%TF.GenerationSoftware,KiCad,Pcbnew,6.0.6-3a73a75311~116~ubuntu21.10.1*%
%TF.CreationDate,2023-05-16T20:40:28-06:00*%
%TF.ProjectId,goon,676f6f6e-2e6b-4696-9361-645f70636258,rev?*%
%TF.SameCoordinates,Original*%
%TF.FileFunction,Legend,Bot*%
%TF.FilePolarity,Positive*%
%FSLAX46Y46*%
G04 Gerber Fmt 4.6, Leading zero omitted, Abs format (unit mm)*
G04 Created by KiCad (PCBNEW 6.0.6-3a73a75311~116~ubuntu21.10.1) date 2023-05-16 20:40:28*
%MOMM*%
%LPD*%
G01*
G04 APERTURE LIST*
%ADD10C,0.120000*%
G04 APERTURE END LIST*
D10*
%TO.C,R1*%
X173635000Y-99347936D02*
X173635000Y-100802064D01*
X171815000Y-99347936D02*
X171815000Y-100802064D01*
%TO.C,G\u002A\u002A\u002A*%
G36*
X142604140Y-93835880D02*
G01*
X142820568Y-93718724D01*
X143040326Y-93615437D01*
X143167158Y-93575666D01*
X143256765Y-93611455D01*
X143475191Y-93721686D01*
X143800319Y-93895387D01*
X144211638Y-94121415D01*
X144688635Y-94388628D01*
X145210803Y-94685884D01*
X145431676Y-94812571D01*
X145988071Y-95133282D01*
X146418746Y-95388721D01*
X146739213Y-95593533D01*
X146964982Y-95762363D01*
X147103623Y-95901866D01*
X147111565Y-95909857D01*
X147194471Y-96050658D01*
X147229211Y-96199412D01*
X147231297Y-96370763D01*
X147216240Y-96579357D01*
X147207924Y-96695684D01*
X147199788Y-96886842D01*
X147205511Y-96962333D01*
X147214068Y-96959361D01*
X147320281Y-96901577D01*
X147502454Y-96793316D01*
X147621442Y-96728015D01*
X147845020Y-96643041D01*
X148010922Y-96626682D01*
X148074781Y-96687166D01*
X148034692Y-96735760D01*
X147880881Y-96846795D01*
X147651447Y-96983475D01*
X147549635Y-97041008D01*
X147347566Y-97178287D01*
X147252861Y-97305371D01*
X147229334Y-97463403D01*
X147234600Y-97546409D01*
X147313341Y-97726215D01*
X147517266Y-97888474D01*
X147611187Y-97950691D01*
X147835015Y-98171764D01*
X147906667Y-98412160D01*
X147881890Y-98427224D01*
X147751550Y-98388087D01*
X147546834Y-98282735D01*
X147187000Y-98071999D01*
X147194049Y-98649955D01*
X147191961Y-98945675D01*
X147176868Y-99304533D01*
X147151716Y-99581085D01*
X147140690Y-99653696D01*
X147117026Y-99742356D01*
X147096067Y-99820884D01*
X147006034Y-99951865D01*
X146836156Y-100085702D01*
X146552000Y-100261461D01*
X146509490Y-100286401D01*
X146231915Y-100433201D01*
X146005772Y-100527103D01*
X145876555Y-100548757D01*
X145858513Y-100541355D01*
X145710922Y-100466255D01*
X145447318Y-100323718D01*
X145091411Y-100126826D01*
X144666908Y-99888660D01*
X144197517Y-99622302D01*
X143854858Y-99426771D01*
X143400589Y-99167920D01*
X143064268Y-98977918D01*
X142827682Y-98847616D01*
X142672612Y-98767867D01*
X142580845Y-98729524D01*
X142534163Y-98723438D01*
X142514351Y-98740462D01*
X142503193Y-98771449D01*
X142540162Y-98834822D01*
X142689361Y-98959617D01*
X142917273Y-99110115D01*
X143122508Y-99247950D01*
X143412493Y-99523578D01*
X143679981Y-99904339D01*
X143795555Y-100095738D01*
X143905703Y-100294108D01*
X143941079Y-100408293D01*
X143909874Y-100474845D01*
X143820281Y-100530313D01*
X143695571Y-100575142D01*
X143612349Y-100551641D01*
X143579887Y-100484121D01*
X143479801Y-100301196D01*
X143341398Y-100061025D01*
X143269693Y-99945614D01*
X143090846Y-99723328D01*
X142857676Y-99537269D01*
X142517429Y-99341358D01*
X141937667Y-99036666D01*
X141919421Y-97791543D01*
X142657334Y-97791543D01*
X143900563Y-98498771D01*
X144216803Y-98678446D01*
X144593477Y-98891811D01*
X144898880Y-99064052D01*
X145107734Y-99180923D01*
X145194759Y-99228176D01*
X145206476Y-99224368D01*
X145235939Y-99119346D01*
X145249609Y-98914264D01*
X145249640Y-98885016D01*
X145219024Y-98648290D01*
X145140746Y-98534912D01*
X145070588Y-98536787D01*
X145028000Y-98658323D01*
X145018067Y-98753967D01*
X144973497Y-98825000D01*
X144956316Y-98819380D01*
X144820479Y-98751764D01*
X144576274Y-98619613D01*
X144274956Y-98451262D01*
X146044000Y-98451262D01*
X146044139Y-98658283D01*
X146044852Y-98885016D01*
X146045751Y-99171017D01*
X146048945Y-99612263D01*
X146053437Y-99957561D01*
X146058940Y-100182449D01*
X146065167Y-100262465D01*
X146124270Y-100232796D01*
X146293604Y-100138190D01*
X146530834Y-100001476D01*
X146975334Y-99742356D01*
X146975334Y-97929011D01*
X146975066Y-97722039D01*
X146971939Y-97209059D01*
X146965742Y-96767439D01*
X146957028Y-96421671D01*
X146946354Y-96196250D01*
X146934272Y-96115666D01*
X146873156Y-96142209D01*
X146702409Y-96237022D01*
X146468606Y-96376928D01*
X146044000Y-96638191D01*
X146044000Y-98451262D01*
X144274956Y-98451262D01*
X144251434Y-98438120D01*
X143873691Y-98222477D01*
X143548838Y-98033662D01*
X143232920Y-97842297D01*
X143028703Y-97702910D01*
X142915179Y-97598802D01*
X142871334Y-97513271D01*
X142876159Y-97429619D01*
X142885873Y-97301033D01*
X142790632Y-97188132D01*
X142720991Y-97177783D01*
X142670558Y-97253731D01*
X142657334Y-97464262D01*
X142657334Y-97791543D01*
X141919421Y-97791543D01*
X141906351Y-96899632D01*
X144725900Y-96899632D01*
X144758217Y-97206149D01*
X144761915Y-97235882D01*
X144826062Y-97466687D01*
X144925449Y-97618500D01*
X145079164Y-97711695D01*
X145170746Y-97675961D01*
X145197334Y-97486255D01*
X145155104Y-97293163D01*
X144961617Y-97073905D01*
X144725900Y-96899632D01*
X141906351Y-96899632D01*
X141895334Y-96147825D01*
X141894979Y-96123599D01*
X142760773Y-96123599D01*
X142806642Y-96325344D01*
X142999518Y-96541504D01*
X143231068Y-96706382D01*
X143267915Y-96455327D01*
X143272832Y-96420351D01*
X143276595Y-96212337D01*
X143191537Y-96083142D01*
X142980623Y-95970229D01*
X142831807Y-95914356D01*
X142767007Y-95951124D01*
X142760773Y-96123599D01*
X141894979Y-96123599D01*
X141868210Y-94296922D01*
X142254876Y-94296922D01*
X144092541Y-95359257D01*
X145568230Y-96212337D01*
X145930207Y-96421592D01*
X146399510Y-96161729D01*
X146868812Y-95901866D01*
X146054240Y-95439281D01*
X145671816Y-95220398D01*
X145188928Y-94941229D01*
X144682545Y-94646263D01*
X144215025Y-94371697D01*
X143190382Y-93766697D01*
X142722629Y-94031809D01*
X142254876Y-94296922D01*
X141868210Y-94296922D01*
X141853000Y-93258983D01*
X141408500Y-93510164D01*
X140964000Y-93761344D01*
X140964000Y-99857726D01*
X141265173Y-99680029D01*
X141393565Y-99608232D01*
X141624073Y-99509584D01*
X141732218Y-99508004D01*
X141715655Y-99586909D01*
X141572045Y-99729718D01*
X141299045Y-99919850D01*
X140872089Y-100182559D01*
X140496283Y-99962321D01*
X140120477Y-99742084D01*
X140097739Y-97849670D01*
X140075000Y-95957256D01*
X139440000Y-96772492D01*
X139369472Y-96862486D01*
X139057409Y-97240424D01*
X138787474Y-97521382D01*
X138519383Y-97743897D01*
X138212854Y-97946509D01*
X137620708Y-98305290D01*
X137323854Y-98128262D01*
X137227094Y-98070179D01*
X137021675Y-97931170D01*
X136942214Y-97816099D01*
X136944170Y-97807401D01*
X138013950Y-97807401D01*
X138047406Y-97791789D01*
X138189745Y-97707392D01*
X138399165Y-97574567D01*
X138532070Y-97468244D01*
X138776871Y-97223756D01*
X139067809Y-96896632D01*
X139377282Y-96520720D01*
X139677686Y-96129871D01*
X139941418Y-95757933D01*
X140140874Y-95438755D01*
X140157653Y-95409257D01*
X140315542Y-95154221D01*
X140466287Y-94940359D01*
X140497019Y-94897814D01*
X140574147Y-94725232D01*
X140613998Y-94476468D01*
X140625334Y-94105523D01*
X140629565Y-93803280D01*
X140647868Y-93606372D01*
X140686688Y-93522317D01*
X140752438Y-93521657D01*
X140869025Y-93510837D01*
X141086680Y-93427380D01*
X141348049Y-93288207D01*
X141816556Y-93005982D01*
X141572335Y-92904822D01*
X141480365Y-92871105D01*
X141333705Y-92855581D01*
X141164179Y-92910035D01*
X140913224Y-93047110D01*
X140498334Y-93290557D01*
X140473452Y-93962278D01*
X140448570Y-94634000D01*
X140055034Y-95152071D01*
X139548170Y-95819333D01*
X139330264Y-96105263D01*
X139012224Y-96519498D01*
X138720383Y-96896206D01*
X138480000Y-97202835D01*
X138316335Y-97406833D01*
X138163670Y-97596070D01*
X138047464Y-97749244D01*
X138013950Y-97807401D01*
X136944170Y-97807401D01*
X136972957Y-97679416D01*
X137098153Y-97475568D01*
X137100389Y-97472185D01*
X137217144Y-97272551D01*
X137284679Y-97076445D01*
X137315805Y-96826359D01*
X137323334Y-96464790D01*
X137318763Y-96182922D01*
X137290717Y-95887130D01*
X137226170Y-95655198D01*
X137112687Y-95425808D01*
X137046289Y-95305090D01*
X136993801Y-95185391D01*
X136955881Y-95046917D01*
X136930159Y-94864574D01*
X136914261Y-94613271D01*
X136905818Y-94267914D01*
X136902456Y-93803410D01*
X136901804Y-93194666D01*
X136901786Y-93049710D01*
X137760010Y-93049710D01*
X137761609Y-93587776D01*
X137766364Y-94180002D01*
X137789000Y-96347890D01*
X138233500Y-95749981D01*
X138678000Y-95152071D01*
X138678000Y-93263202D01*
X138677670Y-92991019D01*
X138675078Y-92473007D01*
X138670246Y-92028335D01*
X138663576Y-91680999D01*
X138655470Y-91454999D01*
X138646331Y-91374333D01*
X138621126Y-91379426D01*
X138474576Y-91447345D01*
X138263966Y-91568300D01*
X138042580Y-91708953D01*
X137863701Y-91835964D01*
X137780612Y-91915995D01*
X137772659Y-91997872D01*
X137765684Y-92231017D01*
X137761418Y-92589543D01*
X137760010Y-93049710D01*
X136901786Y-93049710D01*
X136901583Y-91449745D01*
X137305478Y-91449745D01*
X137374914Y-91518564D01*
X137506662Y-91598199D01*
X137639748Y-91614234D01*
X137816168Y-91553570D01*
X138085334Y-91408556D01*
X138237286Y-91321662D01*
X138421019Y-91209315D01*
X138484352Y-91141292D01*
X138443892Y-91090296D01*
X138316249Y-91029031D01*
X138247634Y-91001603D01*
X138104448Y-90984635D01*
X137927732Y-91036900D01*
X137663372Y-91170092D01*
X137456288Y-91286692D01*
X137325215Y-91381380D01*
X137305478Y-91449745D01*
X136901583Y-91449745D01*
X136901568Y-91332000D01*
X137460008Y-91014499D01*
X137504902Y-90989154D01*
X137781011Y-90841238D01*
X137999128Y-90737266D01*
X138115391Y-90698392D01*
X138156312Y-90706539D01*
X138326757Y-90775547D01*
X138551000Y-90891677D01*
X138889667Y-91083568D01*
X138888754Y-91141292D01*
X138828145Y-94972666D01*
X139497724Y-94101455D01*
X139694557Y-93849338D01*
X139975287Y-93513986D01*
X140219953Y-93264715D01*
X140464319Y-93066615D01*
X140744149Y-92884775D01*
X141320997Y-92539306D01*
X141735165Y-92733292D01*
X142149334Y-92927278D01*
X142149334Y-94096094D01*
X142604140Y-93835880D01*
G37*
G36*
X144241835Y-101042607D02*
G01*
X144338625Y-101184760D01*
X144480411Y-101455102D01*
X144525338Y-101542835D01*
X144668144Y-101787968D01*
X144821712Y-101966565D01*
X145033378Y-102125149D01*
X145350478Y-102310245D01*
X145361451Y-102316321D01*
X145690743Y-102485553D01*
X145891470Y-102558642D01*
X145959334Y-102534009D01*
X146023951Y-102453395D01*
X146193750Y-102321653D01*
X146422875Y-102168793D01*
X146665429Y-102023763D01*
X146875516Y-101915516D01*
X147007242Y-101873000D01*
X147016705Y-101878172D01*
X147047152Y-101986305D01*
X147058852Y-102190500D01*
X147058676Y-102215815D01*
X147043616Y-102385113D01*
X146980209Y-102508045D01*
X146834371Y-102625873D01*
X146572019Y-102779859D01*
X146327046Y-102912319D01*
X146120552Y-103014634D01*
X146014700Y-103055025D01*
X145974863Y-103043804D01*
X145807809Y-102969120D01*
X145549529Y-102839614D01*
X145236499Y-102673183D01*
X144948945Y-102512595D01*
X144699777Y-102352512D01*
X144523554Y-102195151D01*
X144376999Y-102000406D01*
X144216840Y-101728171D01*
X144120598Y-101554697D01*
X144007260Y-101333693D01*
X143965357Y-101201308D01*
X143986294Y-101120188D01*
X144061473Y-101052976D01*
X144077603Y-101041464D01*
X144163632Y-101003292D01*
X144241835Y-101042607D01*
G37*
G36*
X147008149Y-101034431D02*
G01*
X147045104Y-101141181D01*
X147060000Y-101344748D01*
X147059891Y-101373703D01*
X147045168Y-101541907D01*
X146981769Y-101664138D01*
X146835751Y-101781585D01*
X146573167Y-101935434D01*
X146327165Y-102068371D01*
X146121900Y-102170048D01*
X146017723Y-102209685D01*
X146006164Y-102205249D01*
X145974729Y-102100431D01*
X145975390Y-101899526D01*
X145996933Y-101749966D01*
X146063578Y-101606846D01*
X146208193Y-101474841D01*
X146467334Y-101310156D01*
X146695959Y-101178205D01*
X146895785Y-101071711D01*
X146996500Y-101029629D01*
X147008149Y-101034431D01*
G37*
G36*
X142826667Y-99956633D02*
G01*
X142813203Y-100125737D01*
X142729353Y-100296160D01*
X142531307Y-100458930D01*
X142235947Y-100659633D01*
X142651195Y-100854124D01*
X143066442Y-101048616D01*
X143858910Y-100621408D01*
X144651377Y-100194201D01*
X145313742Y-100567934D01*
X145481534Y-100662523D01*
X145758443Y-100816457D01*
X145923905Y-100901074D01*
X146002697Y-100926054D01*
X146019600Y-100901079D01*
X145999394Y-100835833D01*
X145998914Y-100834245D01*
X146054627Y-100753417D01*
X146214409Y-100623143D01*
X146434133Y-100472027D01*
X146669670Y-100328674D01*
X146876893Y-100221685D01*
X147011676Y-100179666D01*
X147020813Y-100185478D01*
X147048750Y-100295672D01*
X147060000Y-100501561D01*
X147059173Y-100576769D01*
X147038785Y-100725744D01*
X146965884Y-100838293D01*
X146807543Y-100951910D01*
X146530834Y-101104085D01*
X146001667Y-101384714D01*
X145390431Y-101036190D01*
X145299261Y-100984894D01*
X145014278Y-100833598D01*
X144790760Y-100728218D01*
X144670764Y-100689042D01*
X144631275Y-100698274D01*
X144457925Y-100771079D01*
X144195975Y-100900518D01*
X143885000Y-101067526D01*
X143737088Y-101148396D01*
X143441537Y-101300771D01*
X143212018Y-101406756D01*
X143088804Y-101447151D01*
X143083620Y-101447012D01*
X142945771Y-101403394D01*
X142712979Y-101296945D01*
X142432637Y-101149189D01*
X142298669Y-101073625D01*
X142074011Y-100934849D01*
X141953324Y-100822391D01*
X141904476Y-100699088D01*
X141895334Y-100527779D01*
X141899007Y-100418190D01*
X141950981Y-100225137D01*
X142085834Y-100113159D01*
X142105436Y-100103301D01*
X142316198Y-99984554D01*
X142551500Y-99837254D01*
X142826667Y-99655037D01*
X142826667Y-99956633D01*
G37*
G36*
X137024308Y-95654984D02*
G01*
X137032228Y-95666466D01*
X137095773Y-95851638D01*
X137136535Y-96135916D01*
X137153548Y-96466065D01*
X137145842Y-96788851D01*
X137112449Y-97051041D01*
X137052400Y-97199400D01*
X136998247Y-97250136D01*
X136925400Y-97301000D01*
X136917005Y-97249882D01*
X136908207Y-97060599D01*
X136902214Y-96764356D01*
X136900000Y-96395817D01*
X136900022Y-96340122D01*
X136902702Y-95962504D01*
X136912589Y-95728308D01*
X136933566Y-95614409D01*
X136969512Y-95597676D01*
X137024308Y-95654984D01*
G37*
G36*
X142191667Y-99392384D02*
G01*
X142248746Y-99420529D01*
X142419343Y-99518815D01*
X142488000Y-99583071D01*
X142487659Y-99585962D01*
X142415363Y-99663855D01*
X142255167Y-99776803D01*
X142108101Y-99863244D01*
X141967289Y-99906587D01*
X141907671Y-99820882D01*
X141895334Y-99588369D01*
X141895334Y-99251072D01*
X142191667Y-99392384D01*
G37*
G36*
X153926655Y-95586618D02*
G01*
X155763828Y-96642490D01*
X157601000Y-97698363D01*
X157605302Y-97770974D01*
X157616578Y-97961319D01*
X157651460Y-98550147D01*
X157245230Y-98786248D01*
X157086451Y-98879108D01*
X156838907Y-99026041D01*
X156669667Y-99129216D01*
X156640723Y-99145582D01*
X156549049Y-99168074D01*
X156423683Y-99145317D01*
X156236980Y-99066456D01*
X155961300Y-98920635D01*
X155569000Y-98697000D01*
X155533950Y-98676833D01*
X156627420Y-98676833D01*
X156633185Y-98835001D01*
X156648500Y-98903011D01*
X156685646Y-98882839D01*
X156833303Y-98796011D01*
X157050667Y-98665214D01*
X157211500Y-98559029D01*
X157390855Y-98384562D01*
X157459278Y-98197695D01*
X157486890Y-97961319D01*
X157057198Y-98202659D01*
X156976839Y-98248656D01*
X156759529Y-98394696D01*
X156654672Y-98524607D01*
X156627420Y-98676833D01*
X155533950Y-98676833D01*
X155275023Y-98527851D01*
X154982280Y-98365533D01*
X154793304Y-98274420D01*
X154684042Y-98245535D01*
X154630445Y-98269903D01*
X154608460Y-98338548D01*
X154617911Y-98462088D01*
X154735460Y-98634271D01*
X154839302Y-98701925D01*
X155061605Y-98836747D01*
X155367133Y-99017264D01*
X155727234Y-99227038D01*
X156113256Y-99449634D01*
X156496548Y-99668615D01*
X156848458Y-99867546D01*
X157140334Y-100029988D01*
X157343524Y-100139507D01*
X157429378Y-100179666D01*
X157437410Y-100174513D01*
X157464091Y-100066401D01*
X157475727Y-99862166D01*
X157478814Y-99752801D01*
X157503261Y-99638187D01*
X157574033Y-99535668D01*
X157716308Y-99421224D01*
X157955264Y-99270835D01*
X157968820Y-99262932D01*
X158411386Y-99262932D01*
X158466963Y-99326336D01*
X158647095Y-99456845D01*
X158931672Y-99641342D01*
X159300588Y-99866707D01*
X159733734Y-100119824D01*
X159791527Y-100152898D01*
X160229870Y-100402124D01*
X160613357Y-100617379D01*
X160919041Y-100785990D01*
X161123974Y-100895280D01*
X161205208Y-100932576D01*
X161250774Y-100911162D01*
X161410281Y-100825412D01*
X161636921Y-100698274D01*
X162032175Y-100473062D01*
X160604135Y-99645203D01*
X159176096Y-98817344D01*
X158854215Y-99019529D01*
X158769482Y-99071617D01*
X158556059Y-99193262D01*
X158415527Y-99259848D01*
X158411386Y-99262932D01*
X157968820Y-99262932D01*
X158316081Y-99060480D01*
X159154707Y-98576294D01*
X160727354Y-99473300D01*
X160898522Y-99571504D01*
X161345613Y-99833771D01*
X161730492Y-100067847D01*
X162031724Y-100260188D01*
X162227875Y-100397249D01*
X162297511Y-100465486D01*
X162292186Y-100473062D01*
X162265186Y-100511475D01*
X162113898Y-100634356D01*
X161867233Y-100802212D01*
X161556678Y-100992635D01*
X160818334Y-101424604D01*
X160792736Y-101960208D01*
X160772173Y-102218882D01*
X160716650Y-102468629D01*
X160623403Y-102601466D01*
X160594119Y-102621611D01*
X160530521Y-102638153D01*
X160489848Y-102570890D01*
X160462114Y-102391361D01*
X160437334Y-102071105D01*
X160395000Y-101435092D01*
X159865834Y-101138324D01*
X159336667Y-100841557D01*
X159336667Y-102279232D01*
X159336933Y-102657317D01*
X159342768Y-103121164D01*
X159363747Y-103461500D01*
X159380158Y-103549138D01*
X159409565Y-103706171D01*
X159489920Y-103883021D01*
X159614508Y-104019896D01*
X159731429Y-104101598D01*
X159793025Y-104144640D01*
X160035167Y-104285099D01*
X160437334Y-104513757D01*
X160437334Y-103719633D01*
X160437381Y-103595046D01*
X160441105Y-103266630D01*
X160458146Y-103058439D01*
X160498721Y-102932498D01*
X160573045Y-102850832D01*
X160691334Y-102775468D01*
X160711990Y-102763178D01*
X160841495Y-102671060D01*
X160911368Y-102559841D01*
X160939889Y-102379466D01*
X160945334Y-102079879D01*
X160949874Y-101813433D01*
X160962638Y-101611549D01*
X160980742Y-101534333D01*
X161015108Y-101527769D01*
X161150076Y-101482941D01*
X161177232Y-101478809D01*
X161209188Y-101505313D01*
X161234130Y-101584800D01*
X161252905Y-101733890D01*
X161266363Y-101969205D01*
X161275353Y-102307366D01*
X161280723Y-102764994D01*
X161283323Y-103358710D01*
X161284000Y-104105134D01*
X161284000Y-106778719D01*
X161686167Y-106542465D01*
X162088334Y-106306212D01*
X162110673Y-103581606D01*
X162119459Y-102802276D01*
X162132358Y-102123890D01*
X162148832Y-101581951D01*
X162168561Y-101184679D01*
X162191226Y-100940289D01*
X162216507Y-100857000D01*
X162240988Y-100938986D01*
X162261681Y-101183405D01*
X162278135Y-101583352D01*
X162290145Y-102131914D01*
X162297502Y-102822178D01*
X162300000Y-103647231D01*
X162300000Y-106437463D01*
X161813167Y-106730888D01*
X161559517Y-106873924D01*
X161327335Y-106985703D01*
X161185732Y-107030989D01*
X161165667Y-107027672D01*
X161013092Y-106965125D01*
X160745668Y-106832979D01*
X160387205Y-106643710D01*
X159961512Y-106409794D01*
X159492399Y-106143708D01*
X159215144Y-105983803D01*
X158760790Y-105718608D01*
X158420598Y-105512026D01*
X158172387Y-105347628D01*
X157993976Y-105208982D01*
X157863184Y-105079661D01*
X157757830Y-104943233D01*
X157655734Y-104783270D01*
X157643431Y-104762329D01*
X158727369Y-104762329D01*
X159476518Y-105189967D01*
X159690210Y-105312993D01*
X159990707Y-105489810D01*
X160218399Y-105628523D01*
X160335905Y-105706657D01*
X160368274Y-105726759D01*
X160412525Y-105699187D01*
X160428283Y-105555230D01*
X160420571Y-105268918D01*
X160395000Y-104742127D01*
X159970508Y-104497459D01*
X159546015Y-104252791D01*
X158727369Y-104762329D01*
X157643431Y-104762329D01*
X157596230Y-104681990D01*
X157440609Y-104345257D01*
X157436645Y-104313713D01*
X158378268Y-104313713D01*
X158409323Y-104420453D01*
X158473334Y-104517022D01*
X158557992Y-104582333D01*
X158618956Y-104557076D01*
X158782484Y-104464716D01*
X158991508Y-104335810D01*
X159192424Y-104203667D01*
X159331627Y-104101598D01*
X159325572Y-104052882D01*
X159234983Y-103936363D01*
X159177740Y-103885964D01*
X159082822Y-103856918D01*
X158943895Y-103902152D01*
X158711866Y-104030499D01*
X158606052Y-104093920D01*
X158434846Y-104216467D01*
X158378268Y-104313713D01*
X157436645Y-104313713D01*
X157411159Y-104110895D01*
X157430336Y-103975994D01*
X157423652Y-103905000D01*
X157367118Y-103931330D01*
X157200013Y-104023480D01*
X156966000Y-104159000D01*
X156772375Y-104270035D01*
X156578398Y-104373189D01*
X156482784Y-104413000D01*
X156480148Y-104412517D01*
X156379655Y-104363797D01*
X156158574Y-104244301D01*
X155870991Y-104084138D01*
X156580288Y-104084138D01*
X156581663Y-104151442D01*
X156626172Y-104122543D01*
X156781153Y-104028158D01*
X157008334Y-103892243D01*
X157249951Y-103732492D01*
X157391262Y-103584617D01*
X157431667Y-103434135D01*
X157431332Y-103371606D01*
X157416808Y-103269249D01*
X157356373Y-103248875D01*
X157217086Y-103312450D01*
X156966000Y-103461943D01*
X156747283Y-103610990D01*
X156618580Y-103758980D01*
X156581663Y-103926166D01*
X156580288Y-104084138D01*
X155870991Y-104084138D01*
X155840208Y-104066994D01*
X155447863Y-103844840D01*
X155004843Y-103590804D01*
X153579334Y-102768609D01*
X153579334Y-102453510D01*
X153579721Y-102412948D01*
X153599872Y-102228876D01*
X153662641Y-102117348D01*
X153784693Y-102081489D01*
X153982694Y-102124425D01*
X154273311Y-102249281D01*
X154673210Y-102459182D01*
X155199058Y-102757254D01*
X156465180Y-103488327D01*
X156885348Y-103259643D01*
X157061764Y-103157909D01*
X157221063Y-103049844D01*
X157267413Y-102992856D01*
X157185527Y-102940348D01*
X156980548Y-102817146D01*
X156676087Y-102637206D01*
X156295743Y-102414476D01*
X155863118Y-102162905D01*
X154496927Y-101371056D01*
X153953464Y-101714284D01*
X153865023Y-101770501D01*
X153619969Y-101937309D01*
X153482883Y-102065106D01*
X153423112Y-102189539D01*
X153410000Y-102346256D01*
X153409753Y-102378277D01*
X153396636Y-102560596D01*
X153369714Y-102635000D01*
X153358193Y-102632341D01*
X153240299Y-102575173D01*
X153052214Y-102466897D01*
X152973122Y-102417275D01*
X152860634Y-102322635D01*
X152795313Y-102196766D01*
X152758782Y-101993697D01*
X152732667Y-101667454D01*
X152690334Y-101036113D01*
X152202206Y-101335156D01*
X151714078Y-101634198D01*
X151124000Y-101286044D01*
X151124000Y-104478368D01*
X150525937Y-104833671D01*
X150439036Y-104884157D01*
X150157964Y-105031648D01*
X149935929Y-105124919D01*
X149814822Y-105145592D01*
X149787687Y-105122453D01*
X149753776Y-105026871D01*
X149730884Y-104841905D01*
X149717773Y-104547596D01*
X149713203Y-104123983D01*
X149715939Y-103551105D01*
X149723269Y-103081609D01*
X149736638Y-102632059D01*
X149754335Y-102265004D01*
X149774945Y-102009391D01*
X149797051Y-101894166D01*
X149829617Y-101846957D01*
X149897721Y-101792822D01*
X149948646Y-101840536D01*
X149984530Y-102003571D01*
X150007514Y-102295399D01*
X150019735Y-102729492D01*
X150023334Y-103319321D01*
X150023334Y-104850310D01*
X150450646Y-104603603D01*
X150877959Y-104356896D01*
X150928331Y-101280281D01*
X150978703Y-98203667D01*
X150649185Y-98403588D01*
X150566040Y-98454001D01*
X150334944Y-98593817D01*
X150171500Y-98692288D01*
X150165028Y-98696300D01*
X150110975Y-98749097D01*
X150072539Y-98843948D01*
X150047139Y-99006303D01*
X150032193Y-99261614D01*
X150025118Y-99635333D01*
X150023334Y-100152912D01*
X150023334Y-101524759D01*
X149505498Y-101830653D01*
X149528227Y-103214023D01*
X149531583Y-103418272D01*
X149531915Y-103438818D01*
X149536882Y-103932346D01*
X149535589Y-104359389D01*
X149528566Y-104694247D01*
X149516340Y-104911221D01*
X149499437Y-104984612D01*
X149456219Y-104962666D01*
X149284896Y-104868808D01*
X149009569Y-104715012D01*
X148656319Y-104515876D01*
X148251230Y-104286000D01*
X147061253Y-103608666D01*
X147060627Y-103214216D01*
X147060000Y-102819766D01*
X147068609Y-102815097D01*
X147542302Y-102815097D01*
X148253651Y-103243315D01*
X148443847Y-103357177D01*
X148730513Y-103526167D01*
X148944449Y-103648925D01*
X149049667Y-103704595D01*
X149086352Y-103675832D01*
X149116726Y-103507914D01*
X149122308Y-103214023D01*
X149120316Y-103131459D01*
X149105806Y-102874663D01*
X149062565Y-102722769D01*
X148965432Y-102623777D01*
X148789247Y-102525688D01*
X148468212Y-102360988D01*
X148005257Y-102588042D01*
X147542302Y-102815097D01*
X147068609Y-102815097D01*
X147758500Y-102440958D01*
X148457000Y-102062151D01*
X149134334Y-102456829D01*
X149105804Y-99141537D01*
X148590902Y-98851365D01*
X148550496Y-98828526D01*
X148293544Y-98674111D01*
X148150749Y-98554964D01*
X148089203Y-98434261D01*
X148076000Y-98275181D01*
X148075974Y-98265297D01*
X148051320Y-98074632D01*
X147952291Y-97938624D01*
X147737334Y-97798826D01*
X147690705Y-97770947D01*
X147507358Y-97619770D01*
X147403859Y-97466829D01*
X147397232Y-97348511D01*
X147504500Y-97301201D01*
X147544995Y-97312741D01*
X147718943Y-97391253D01*
X147996764Y-97531756D01*
X148350310Y-97719806D01*
X148751435Y-97940962D01*
X149892536Y-98580522D01*
X150233102Y-98393543D01*
X150295475Y-98359411D01*
X150497529Y-98244960D01*
X150617924Y-98151190D01*
X150646030Y-98060198D01*
X150571218Y-97954084D01*
X150382859Y-97814944D01*
X150070322Y-97624877D01*
X149766832Y-97449235D01*
X150192021Y-97449235D01*
X150657809Y-97692617D01*
X151123598Y-97936000D01*
X151124000Y-100252588D01*
X151441500Y-100765528D01*
X151456836Y-100790220D01*
X151616093Y-101036562D01*
X151739458Y-101210106D01*
X151801334Y-101274638D01*
X151868778Y-101244931D01*
X152046646Y-101150112D01*
X152288167Y-101013398D01*
X152494262Y-100894049D01*
X153579334Y-100894049D01*
X153580494Y-101031859D01*
X153592337Y-101331620D01*
X153614246Y-101539063D01*
X153642834Y-101615696D01*
X153685647Y-101601718D01*
X153845678Y-101521850D01*
X154066167Y-101395432D01*
X154095992Y-101377301D01*
X154305306Y-101228611D01*
X154402321Y-101088639D01*
X154417038Y-100973999D01*
X154595334Y-100973999D01*
X154597788Y-101006730D01*
X154631825Y-101091257D01*
X154720683Y-101189572D01*
X154883066Y-101315247D01*
X155137681Y-101481857D01*
X155503231Y-101702975D01*
X155998422Y-101992174D01*
X156034650Y-102013141D01*
X156467640Y-102263271D01*
X156845050Y-102480468D01*
X157144158Y-102651718D01*
X157342245Y-102764010D01*
X157416588Y-102804333D01*
X157419875Y-102786121D01*
X157425922Y-102641004D01*
X157430105Y-102382397D01*
X157430915Y-102209009D01*
X158236000Y-102209009D01*
X158236323Y-102388518D01*
X158240991Y-102898814D01*
X158250523Y-103338401D01*
X158254282Y-103434135D01*
X158264040Y-103682625D01*
X158280659Y-103906830D01*
X158299500Y-103986362D01*
X158342314Y-103972385D01*
X158502344Y-103892517D01*
X158722834Y-103766098D01*
X159082667Y-103549138D01*
X159082667Y-100701477D01*
X158784185Y-100517005D01*
X158722264Y-100479043D01*
X158564535Y-100392068D01*
X158445222Y-100358648D01*
X158396951Y-100379173D01*
X158358966Y-100395324D01*
X158300409Y-100518635D01*
X158275276Y-100675810D01*
X158264193Y-100745119D01*
X158244958Y-101091317D01*
X158237347Y-101573767D01*
X158236341Y-102048229D01*
X158236000Y-102209009D01*
X157430915Y-102209009D01*
X157431667Y-102048229D01*
X157431667Y-101292126D01*
X156998028Y-101540229D01*
X156803173Y-101646775D01*
X156592576Y-101748876D01*
X156475857Y-101788333D01*
X156449151Y-101782077D01*
X156295285Y-101712998D01*
X156050937Y-101583751D01*
X155962007Y-101532889D01*
X156578497Y-101532889D01*
X156621760Y-101508443D01*
X156775681Y-101418816D01*
X157001542Y-101286236D01*
X157237493Y-101131442D01*
X157381681Y-100980900D01*
X157427671Y-100822013D01*
X157430653Y-100675810D01*
X157423960Y-100603000D01*
X157390867Y-100618706D01*
X157246231Y-100696205D01*
X157028309Y-100816701D01*
X156838367Y-100934704D01*
X156675594Y-101094883D01*
X156608975Y-101282367D01*
X156608457Y-101285905D01*
X156584627Y-101461051D01*
X156578497Y-101532889D01*
X155962007Y-101532889D01*
X155755218Y-101414620D01*
X155669747Y-101364258D01*
X155344423Y-101175315D01*
X155056222Y-101011780D01*
X154859222Y-100904446D01*
X154811477Y-100879845D01*
X154660695Y-100813508D01*
X154603998Y-100840847D01*
X154599876Y-100904192D01*
X154595334Y-100973999D01*
X154417038Y-100973999D01*
X154426000Y-100904192D01*
X154421513Y-100804731D01*
X154375050Y-100665003D01*
X154247753Y-100544612D01*
X154002667Y-100399505D01*
X153579334Y-100169098D01*
X153579334Y-100894049D01*
X152494262Y-100894049D01*
X152732667Y-100755989D01*
X152732667Y-99278303D01*
X153682427Y-99278303D01*
X155049047Y-100065401D01*
X155480429Y-100311347D01*
X155868818Y-100527960D01*
X156184628Y-100699043D01*
X156403315Y-100811303D01*
X156500334Y-100851445D01*
X156550649Y-100838057D01*
X156722001Y-100758490D01*
X156948395Y-100631328D01*
X157076119Y-100552630D01*
X157214364Y-100449428D01*
X157235455Y-100379173D01*
X157160062Y-100310534D01*
X157123373Y-100286450D01*
X156910167Y-100154788D01*
X156609890Y-99977151D01*
X156251707Y-99769951D01*
X155864787Y-99549599D01*
X155478297Y-99332509D01*
X155121404Y-99135092D01*
X154823275Y-98973760D01*
X154613079Y-98864925D01*
X154519983Y-98825000D01*
X154463854Y-98840083D01*
X154287837Y-98922122D01*
X154057665Y-99051651D01*
X153682427Y-99278303D01*
X152732667Y-99278303D01*
X152732667Y-98003436D01*
X152733135Y-97414122D01*
X152733444Y-96761201D01*
X152730596Y-96317690D01*
X153085257Y-96317690D01*
X153854805Y-96761201D01*
X154623462Y-97204198D01*
X154767902Y-97287480D01*
X155214663Y-97545591D01*
X155603242Y-97770848D01*
X155911485Y-97950362D01*
X156117241Y-98071241D01*
X156198356Y-98120597D01*
X156205586Y-98142879D01*
X156148405Y-98237128D01*
X156099869Y-98250558D01*
X155920903Y-98200873D01*
X155616329Y-98056871D01*
X155180383Y-97816044D01*
X154299000Y-97308319D01*
X154272723Y-97600993D01*
X154269270Y-97636748D01*
X154242249Y-97819308D01*
X154214062Y-97893666D01*
X154198258Y-97888784D01*
X154075219Y-97826665D01*
X153880507Y-97715970D01*
X153579334Y-97538273D01*
X153579334Y-98308636D01*
X153579906Y-98486305D01*
X153584018Y-98790209D01*
X153591227Y-98999728D01*
X153600500Y-99077391D01*
X153648855Y-99052010D01*
X153806392Y-98957932D01*
X154031388Y-98818533D01*
X154441109Y-98561285D01*
X154412388Y-98100360D01*
X154405532Y-97912370D01*
X154413453Y-97715767D01*
X154439209Y-97639551D01*
X154481957Y-97655797D01*
X154647595Y-97741099D01*
X154903003Y-97883058D01*
X155214011Y-98063000D01*
X155409130Y-98175519D01*
X155702840Y-98335513D01*
X155926387Y-98445458D01*
X156042545Y-98486333D01*
X156150322Y-98448819D01*
X156348430Y-98351428D01*
X156596726Y-98217150D01*
X156855120Y-98068974D01*
X157083521Y-97929893D01*
X157241838Y-97822896D01*
X157289981Y-97770974D01*
X157272113Y-97758187D01*
X157130715Y-97670802D01*
X156879642Y-97522895D01*
X156544534Y-97328971D01*
X156151032Y-97103535D01*
X155724774Y-96861095D01*
X155291401Y-96616155D01*
X154876552Y-96383221D01*
X154505867Y-96176799D01*
X154204986Y-96011396D01*
X153999547Y-95901516D01*
X153915192Y-95861666D01*
X153861814Y-95877415D01*
X153690808Y-95960012D01*
X153462746Y-96089678D01*
X153085257Y-96317690D01*
X152730596Y-96317690D01*
X152730172Y-96251680D01*
X152719806Y-95870717D01*
X152698831Y-95603470D01*
X152663733Y-95435096D01*
X152610998Y-95350755D01*
X152537112Y-95335603D01*
X152438561Y-95374800D01*
X152311831Y-95453502D01*
X152153408Y-95556869D01*
X151815261Y-95770332D01*
X151816991Y-96080080D01*
X151818081Y-96275231D01*
X151829464Y-98313639D01*
X151830572Y-98553585D01*
X151831179Y-99171223D01*
X151828520Y-99722940D01*
X151822905Y-100188053D01*
X151814644Y-100545883D01*
X151804045Y-100775750D01*
X151791418Y-100856973D01*
X151762448Y-100838761D01*
X151656869Y-100717551D01*
X151516252Y-100520148D01*
X151499155Y-100494186D01*
X151415361Y-100355551D01*
X151358052Y-100218442D01*
X151322213Y-100048688D01*
X151302824Y-99812120D01*
X151294870Y-99474565D01*
X151293334Y-99001854D01*
X151291823Y-98541250D01*
X151284773Y-98209868D01*
X151268547Y-97994065D01*
X151239511Y-97866636D01*
X151194028Y-97800377D01*
X151128464Y-97768083D01*
X151068486Y-97739724D01*
X150979181Y-97609662D01*
X150937964Y-97354222D01*
X150912334Y-96992690D01*
X150552177Y-97220962D01*
X150192021Y-97449235D01*
X149766832Y-97449235D01*
X149622980Y-97365982D01*
X149466103Y-97275163D01*
X148998948Y-97002362D01*
X148967013Y-96983500D01*
X150108087Y-96983500D01*
X150113829Y-97142564D01*
X150129167Y-97213905D01*
X150172054Y-97193230D01*
X150327091Y-97108505D01*
X150552156Y-96981072D01*
X150591397Y-96958345D01*
X150816795Y-96807431D01*
X150925793Y-96672905D01*
X150954323Y-96512949D01*
X150954667Y-96275231D01*
X150531420Y-96512949D01*
X150462274Y-96552435D01*
X150242162Y-96699370D01*
X150135792Y-96830061D01*
X150108087Y-96983500D01*
X148967013Y-96983500D01*
X148542435Y-96732726D01*
X148142021Y-96493207D01*
X147843167Y-96310756D01*
X147229334Y-95928806D01*
X147229334Y-95512992D01*
X147233006Y-95338003D01*
X147260955Y-95185779D01*
X147276923Y-95159915D01*
X147555901Y-95159915D01*
X148721425Y-95849457D01*
X148973611Y-95997364D01*
X149348205Y-96211940D01*
X149658026Y-96383101D01*
X149876313Y-96496196D01*
X149976308Y-96536572D01*
X150039563Y-96518698D01*
X150222626Y-96435259D01*
X150460129Y-96307112D01*
X150854591Y-96080080D01*
X149684458Y-95378206D01*
X149423618Y-95222843D01*
X149123380Y-95047334D01*
X150066623Y-95047334D01*
X150079089Y-95142159D01*
X150142532Y-95157743D01*
X150289185Y-95092883D01*
X150551282Y-94946374D01*
X150592582Y-94922670D01*
X150816637Y-94773590D01*
X150924820Y-94639722D01*
X150953449Y-94478844D01*
X150954667Y-94239022D01*
X150517001Y-94491707D01*
X150504846Y-94498745D01*
X150246320Y-94667368D01*
X150112137Y-94811094D01*
X150069705Y-94964363D01*
X150066623Y-95047334D01*
X149123380Y-95047334D01*
X149052767Y-95006056D01*
X148748392Y-94833143D01*
X148536558Y-94718813D01*
X148443329Y-94677777D01*
X148379454Y-94699050D01*
X148200744Y-94786965D01*
X147964118Y-94919568D01*
X147555901Y-95159915D01*
X147276923Y-95159915D01*
X147338349Y-95060419D01*
X147490345Y-94935599D01*
X147742101Y-94784994D01*
X148118772Y-94582281D01*
X148457877Y-94402283D01*
X148881894Y-94652292D01*
X149305911Y-94902302D01*
X150080873Y-94476668D01*
X150855835Y-94051035D01*
X149666993Y-93347684D01*
X149390630Y-93185070D01*
X149020528Y-92970370D01*
X148719262Y-92799311D01*
X148512332Y-92686308D01*
X148425242Y-92645777D01*
X148365461Y-92668611D01*
X148192822Y-92757743D01*
X147958333Y-92890946D01*
X147544332Y-93134672D01*
X148613031Y-93757336D01*
X148780268Y-93855509D01*
X149136071Y-94069757D01*
X149422413Y-94249689D01*
X149613415Y-94378784D01*
X149683199Y-94440521D01*
X149645876Y-94498734D01*
X149510693Y-94594150D01*
X149469698Y-94613336D01*
X149336522Y-94630448D01*
X149157699Y-94574429D01*
X148886698Y-94433283D01*
X148653811Y-94306831D01*
X148485488Y-94239956D01*
X148368744Y-94243240D01*
X148254546Y-94306877D01*
X148168521Y-94359736D01*
X148056640Y-94379646D01*
X147908529Y-94326206D01*
X147672041Y-94188852D01*
X147450745Y-94045482D01*
X147324322Y-93918030D01*
X147269532Y-93752147D01*
X147248147Y-93484295D01*
X147224626Y-93025333D01*
X148419552Y-92377737D01*
X149792943Y-93179592D01*
X151166334Y-93981448D01*
X151181906Y-94239022D01*
X151216084Y-94804356D01*
X150175158Y-95418294D01*
X150912334Y-95859154D01*
X150939321Y-95542910D01*
X150950892Y-95441248D01*
X150992857Y-95304744D01*
X151005006Y-95289984D01*
X151376047Y-95289984D01*
X151386757Y-95348322D01*
X151483521Y-95411020D01*
X151618685Y-95480470D01*
X151716667Y-95517572D01*
X151759175Y-95505245D01*
X151912590Y-95429490D01*
X152120608Y-95311027D01*
X152332299Y-95180594D01*
X152496736Y-95068929D01*
X152562989Y-95006771D01*
X152519952Y-94955192D01*
X152376686Y-94872925D01*
X152350619Y-94862282D01*
X152205929Y-94844476D01*
X152018380Y-94901898D01*
X151741373Y-95047340D01*
X151690708Y-95076485D01*
X151470870Y-95208530D01*
X151376047Y-95289984D01*
X151005006Y-95289984D01*
X151089839Y-95186916D01*
X151273206Y-95054792D01*
X151574321Y-94875400D01*
X152182334Y-94524133D01*
X152584500Y-94740689D01*
X152986667Y-94957245D01*
X152986667Y-96117114D01*
X153926655Y-95586618D01*
G37*
%TO.C,BT1*%
X139600000Y-131950000D02*
X134800000Y-131950000D01*
X139800000Y-119700000D02*
X146500000Y-119700000D01*
X165900000Y-126450000D02*
X165900000Y-131950000D01*
X154300000Y-140050000D02*
X146400000Y-140050000D01*
X161100000Y-126450000D02*
X165900000Y-126450000D01*
X134800000Y-131950000D02*
X134800000Y-126450000D01*
X165900000Y-131950000D02*
X161100000Y-131950000D01*
X160900000Y-119700000D02*
X154200000Y-119700000D01*
X134800000Y-126450000D02*
X139600000Y-126450000D01*
X161150000Y-135250000D02*
X154300000Y-140050000D01*
X146400000Y-140050000D02*
X139600000Y-135250000D01*
X154196385Y-119698536D02*
G75*
G03*
X146500000Y-119700000I-3846385J-9501464D01*
G01*
%TD*%
M02*
