%TF.GenerationSoftware,KiCad,Pcbnew,6.0.6-3a73a75311~116~ubuntu21.10.1*%
%TF.CreationDate,2023-05-16T20:40:28-06:00*%
%TF.ProjectId,goon,676f6f6e-2e6b-4696-9361-645f70636258,rev?*%
%TF.SameCoordinates,Original*%
%TF.FileFunction,Legend,Top*%
%TF.FilePolarity,Positive*%
%FSLAX46Y46*%
G04 Gerber Fmt 4.6, Leading zero omitted, Abs format (unit mm)*
G04 Created by KiCad (PCBNEW 6.0.6-3a73a75311~116~ubuntu21.10.1) date 2023-05-16 20:40:28*
%MOMM*%
%LPD*%
G01*
G04 APERTURE LIST*
%ADD10C,0.150000*%
G04 APERTURE END LIST*
D10*
%TO.C,REF\u002A\u002A*%
X148641666Y-58852380D02*
X148308333Y-58376190D01*
X148070238Y-58852380D02*
X148070238Y-57852380D01*
X148451190Y-57852380D01*
X148546428Y-57900000D01*
X148594047Y-57947619D01*
X148641666Y-58042857D01*
X148641666Y-58185714D01*
X148594047Y-58280952D01*
X148546428Y-58328571D01*
X148451190Y-58376190D01*
X148070238Y-58376190D01*
X149070238Y-58328571D02*
X149403571Y-58328571D01*
X149546428Y-58852380D02*
X149070238Y-58852380D01*
X149070238Y-57852380D01*
X149546428Y-57852380D01*
X150308333Y-58328571D02*
X149975000Y-58328571D01*
X149975000Y-58852380D02*
X149975000Y-57852380D01*
X150451190Y-57852380D01*
X150975000Y-57852380D02*
X150975000Y-58090476D01*
X150736904Y-57995238D02*
X150975000Y-58090476D01*
X151213095Y-57995238D01*
X150832142Y-58280952D02*
X150975000Y-58090476D01*
X151117857Y-58280952D01*
X151736904Y-57852380D02*
X151736904Y-58090476D01*
X151498809Y-57995238D02*
X151736904Y-58090476D01*
X151975000Y-57995238D01*
X151594047Y-58280952D02*
X151736904Y-58090476D01*
X151879761Y-58280952D01*
%TO.C,G\u002A\u002A\u002A*%
G36*
X130748047Y-87581684D02*
G01*
X130714786Y-87519500D01*
X130677962Y-87438964D01*
X130651664Y-87248914D01*
X130635884Y-86984595D01*
X130630615Y-86681252D01*
X130635849Y-86374130D01*
X130651578Y-86098476D01*
X130677796Y-85889534D01*
X130714495Y-85782551D01*
X130715154Y-85781874D01*
X130751418Y-85675415D01*
X130784717Y-85442891D01*
X130813009Y-85103377D01*
X130834259Y-84675948D01*
X130834733Y-84662882D01*
X130856837Y-84192906D01*
X130885241Y-83855825D01*
X130921399Y-83639472D01*
X130966761Y-83531680D01*
X130970150Y-83528053D01*
X131032140Y-83384597D01*
X131064421Y-83119692D01*
X131068285Y-82958204D01*
X131086126Y-82628796D01*
X131141200Y-82427860D01*
X131177142Y-82377632D01*
X131250925Y-82226682D01*
X131285131Y-81989099D01*
X131285999Y-81942204D01*
X131311722Y-81695133D01*
X131379514Y-81524724D01*
X131394857Y-81506775D01*
X131466959Y-81364958D01*
X131502828Y-81157777D01*
X131503714Y-81121702D01*
X131531907Y-80909351D01*
X131602858Y-80764197D01*
X131612571Y-80755142D01*
X131689113Y-80622958D01*
X131690456Y-80614970D01*
X140291309Y-80614970D01*
X140314537Y-80794864D01*
X140374827Y-80906679D01*
X140386076Y-80918566D01*
X140468667Y-81079901D01*
X140502481Y-81319489D01*
X140502571Y-81332808D01*
X140530867Y-81569304D01*
X140611428Y-81672327D01*
X140695612Y-81769345D01*
X140720285Y-81890042D01*
X140760324Y-82041469D01*
X140829142Y-82107756D01*
X140926209Y-82189158D01*
X140939372Y-82232478D01*
X140989651Y-82320106D01*
X141119460Y-82474276D01*
X141299472Y-82665826D01*
X141500360Y-82865593D01*
X141692797Y-83044415D01*
X141847456Y-83173128D01*
X141935010Y-83222571D01*
X141935045Y-83222571D01*
X142024453Y-83280591D01*
X142052815Y-83331428D01*
X142149832Y-83415612D01*
X142270529Y-83440285D01*
X142421957Y-83480324D01*
X142488243Y-83549143D01*
X142596149Y-83631634D01*
X142814815Y-83658000D01*
X143041817Y-83687145D01*
X143141386Y-83766857D01*
X143183456Y-83812655D01*
X143283072Y-83844012D01*
X143462309Y-83863355D01*
X143743245Y-83873112D01*
X144131142Y-83875714D01*
X144531058Y-83872901D01*
X144807986Y-83862844D01*
X144984004Y-83843114D01*
X145081188Y-83811284D01*
X145120899Y-83766857D01*
X145228593Y-83684370D01*
X145445192Y-83658000D01*
X145644101Y-83639015D01*
X145723809Y-83576509D01*
X145727714Y-83549143D01*
X145790602Y-83461471D01*
X145905536Y-83440285D01*
X146065324Y-83406507D01*
X146141393Y-83349571D01*
X146277586Y-83215235D01*
X146484399Y-83086699D01*
X146616714Y-83030571D01*
X146724252Y-82947312D01*
X146743714Y-82887536D01*
X146801988Y-82798714D01*
X146852571Y-82787142D01*
X146948784Y-82729051D01*
X146961428Y-82678285D01*
X147019519Y-82582072D01*
X147070285Y-82569428D01*
X147160087Y-82509459D01*
X147179142Y-82432050D01*
X147229654Y-82296833D01*
X147288000Y-82252899D01*
X147384470Y-82160253D01*
X147396857Y-82107756D01*
X147455436Y-81993669D01*
X147505714Y-81962613D01*
X147588088Y-81857140D01*
X147614571Y-81660280D01*
X147630020Y-81501626D01*
X147668281Y-81436857D01*
X147679538Y-81439871D01*
X147738198Y-81443917D01*
X147780792Y-81363327D01*
X147809308Y-81183895D01*
X147825732Y-80891416D01*
X147832051Y-80471681D01*
X147832285Y-80347787D01*
X147831478Y-80244261D01*
X153575118Y-80244261D01*
X153577772Y-80454489D01*
X153609229Y-80651238D01*
X153671606Y-80795209D01*
X153671977Y-80795701D01*
X153741390Y-80958169D01*
X153778865Y-81182740D01*
X153780834Y-81236114D01*
X153809394Y-81463663D01*
X153880104Y-81614657D01*
X153892000Y-81626000D01*
X153985209Y-81770553D01*
X154000857Y-81854878D01*
X154050975Y-81990597D01*
X154109714Y-82035184D01*
X154206231Y-82130661D01*
X154218571Y-82185391D01*
X154267795Y-82294192D01*
X154393395Y-82460707D01*
X154562262Y-82649978D01*
X154741286Y-82827047D01*
X154897357Y-82956958D01*
X154994713Y-83004857D01*
X155078564Y-83063246D01*
X155089428Y-83113714D01*
X155149397Y-83203516D01*
X155226807Y-83222571D01*
X155362023Y-83273083D01*
X155405958Y-83331428D01*
X155502975Y-83415612D01*
X155623672Y-83440285D01*
X155775099Y-83480324D01*
X155841386Y-83549143D01*
X155946957Y-83631524D01*
X156144620Y-83658000D01*
X156351009Y-83687046D01*
X156505070Y-83757877D01*
X156514938Y-83766857D01*
X156600773Y-83817178D01*
X156754481Y-83850212D01*
X157000040Y-83868735D01*
X157361427Y-83875520D01*
X157455461Y-83875714D01*
X157828109Y-83872234D01*
X158079072Y-83859856D01*
X158231683Y-83835671D01*
X158309276Y-83796772D01*
X158328899Y-83766857D01*
X158436805Y-83684366D01*
X158655470Y-83658000D01*
X158882472Y-83628854D01*
X158982041Y-83549143D01*
X159079059Y-83464959D01*
X159199756Y-83440285D01*
X159351183Y-83400247D01*
X159417470Y-83331428D01*
X159510116Y-83234957D01*
X159562613Y-83222571D01*
X159676700Y-83163992D01*
X159707756Y-83113714D01*
X159806723Y-83021929D01*
X159886907Y-83004857D01*
X160000237Y-82957338D01*
X160024285Y-82896000D01*
X160082376Y-82799787D01*
X160133142Y-82787142D01*
X160229355Y-82729051D01*
X160241999Y-82678285D01*
X160300091Y-82582072D01*
X160350857Y-82569428D01*
X160447389Y-82527502D01*
X160459714Y-82491673D01*
X160506397Y-82381260D01*
X160568571Y-82305061D01*
X160659602Y-82150582D01*
X160677428Y-82056245D01*
X160724177Y-81941471D01*
X160786285Y-81916285D01*
X160872934Y-81851755D01*
X160895142Y-81706335D01*
X160930011Y-81536293D01*
X161003999Y-81454613D01*
X161048297Y-81414144D01*
X161079133Y-81318217D01*
X161098699Y-81145466D01*
X161109182Y-80874526D01*
X161112773Y-80484030D01*
X161112857Y-80392285D01*
X161110353Y-79976030D01*
X161101383Y-79683489D01*
X161083758Y-79493296D01*
X161055287Y-79384087D01*
X161013782Y-79334497D01*
X161003999Y-79329958D01*
X160922772Y-79231537D01*
X160895142Y-79078235D01*
X160861684Y-78911118D01*
X160786285Y-78868285D01*
X160698734Y-78805199D01*
X160677428Y-78686857D01*
X160639576Y-78540938D01*
X160568571Y-78505428D01*
X160472200Y-78454625D01*
X160459714Y-78410713D01*
X160409162Y-78314147D01*
X160280377Y-78159582D01*
X160107662Y-77980680D01*
X159925321Y-77811103D01*
X159767657Y-77684513D01*
X159668976Y-77634572D01*
X159668770Y-77634571D01*
X159597918Y-77575910D01*
X159588857Y-77525714D01*
X159526271Y-77437866D01*
X159416314Y-77416857D01*
X159242775Y-77373512D01*
X159153428Y-77308000D01*
X159018488Y-77228141D01*
X158849973Y-77199142D01*
X158712529Y-77179210D01*
X158679483Y-77130260D01*
X158680399Y-77128699D01*
X158681390Y-77073828D01*
X158598504Y-77033798D01*
X158419173Y-77007439D01*
X158130828Y-76993578D01*
X157720900Y-76991045D01*
X157266571Y-76996940D01*
X156816352Y-77008201D01*
X156495958Y-77023796D01*
X156290097Y-77045264D01*
X156183476Y-77074148D01*
X156159857Y-77108428D01*
X156111360Y-77177165D01*
X155969171Y-77199142D01*
X155786486Y-77233391D01*
X155673615Y-77303643D01*
X155532631Y-77400627D01*
X155428872Y-77432366D01*
X155311922Y-77485244D01*
X155288999Y-77545580D01*
X155246098Y-77620720D01*
X155180142Y-77635595D01*
X155062507Y-77682245D01*
X154891182Y-77798625D01*
X154705487Y-77951258D01*
X154544740Y-78106668D01*
X154448260Y-78231380D01*
X154436285Y-78268915D01*
X154378268Y-78358183D01*
X154327428Y-78386529D01*
X154237784Y-78484971D01*
X154218571Y-78575722D01*
X154173727Y-78695714D01*
X154109714Y-78723142D01*
X154023065Y-78787673D01*
X154000857Y-78933092D01*
X153965988Y-79103135D01*
X153892000Y-79184815D01*
X153819279Y-79269963D01*
X153786401Y-79466723D01*
X153783142Y-79596005D01*
X153772015Y-79796175D01*
X153743454Y-79912573D01*
X153718822Y-79925670D01*
X153647759Y-79940553D01*
X153599153Y-80059849D01*
X153575118Y-80244261D01*
X147831478Y-80244261D01*
X147829247Y-79958141D01*
X147818400Y-79691004D01*
X147797150Y-79523836D01*
X147762901Y-79434097D01*
X147723428Y-79402529D01*
X147642105Y-79303707D01*
X147614571Y-79148529D01*
X147579889Y-78976673D01*
X147505714Y-78894529D01*
X147414425Y-78795681D01*
X147396857Y-78713101D01*
X147347114Y-78576895D01*
X147288000Y-78531672D01*
X147191921Y-78458534D01*
X147179142Y-78421637D01*
X147129976Y-78336308D01*
X147004536Y-78188646D01*
X146835915Y-78011741D01*
X146657203Y-77838684D01*
X146501492Y-77702566D01*
X146401873Y-77636480D01*
X146392077Y-77634571D01*
X146309633Y-77576733D01*
X146282041Y-77525714D01*
X146185024Y-77441530D01*
X146064327Y-77416857D01*
X145912900Y-77376818D01*
X145846613Y-77308000D01*
X145750195Y-77226018D01*
X145615951Y-77199142D01*
X145428806Y-77158678D01*
X145318204Y-77090285D01*
X145245575Y-77046133D01*
X145116072Y-77015156D01*
X144908069Y-76995371D01*
X144599937Y-76984794D01*
X144170050Y-76981444D01*
X144131142Y-76981428D01*
X143690947Y-76984303D01*
X143374179Y-76994251D01*
X143159210Y-77013253D01*
X143024412Y-77043295D01*
X142948160Y-77086359D01*
X142944081Y-77090285D01*
X142789335Y-77174817D01*
X142646334Y-77199142D01*
X142489713Y-77236578D01*
X142415672Y-77308000D01*
X142318546Y-77392588D01*
X142200235Y-77416857D01*
X142060148Y-77456129D01*
X142026571Y-77525714D01*
X141966971Y-77616910D01*
X141895767Y-77634571D01*
X141790667Y-77685965D01*
X141624890Y-77819475D01*
X141428693Y-78004088D01*
X141232332Y-78208794D01*
X141066066Y-78402583D01*
X140960150Y-78554444D01*
X140937999Y-78616201D01*
X140879647Y-78719504D01*
X140829142Y-78749386D01*
X140737853Y-78848234D01*
X140720285Y-78930815D01*
X140670542Y-79067021D01*
X140611428Y-79112243D01*
X140532508Y-79212156D01*
X140502946Y-79438350D01*
X140502571Y-79476817D01*
X140484467Y-79686220D01*
X140437555Y-79812276D01*
X140416157Y-79828423D01*
X140364295Y-79913483D01*
X140321853Y-80110612D01*
X140299662Y-80329649D01*
X140291309Y-80614970D01*
X131690456Y-80614970D01*
X131721423Y-80430796D01*
X131721428Y-80428571D01*
X131753068Y-80236211D01*
X131829262Y-80102860D01*
X131830285Y-80102000D01*
X131912041Y-79965478D01*
X131939142Y-79810592D01*
X131974736Y-79647700D01*
X132048000Y-79567756D01*
X132130240Y-79463672D01*
X132156857Y-79277470D01*
X132188625Y-79077530D01*
X132265714Y-78987184D01*
X132347037Y-78888362D01*
X132374571Y-78733184D01*
X132409253Y-78561329D01*
X132483428Y-78479184D01*
X132567612Y-78382167D01*
X132592285Y-78261470D01*
X132632324Y-78110043D01*
X132701142Y-78043756D01*
X132785326Y-77946738D01*
X132810000Y-77826042D01*
X132850038Y-77674614D01*
X132918857Y-77608327D01*
X133003040Y-77511310D01*
X133027714Y-77390613D01*
X133067753Y-77239185D01*
X133136571Y-77172899D01*
X133227860Y-77074051D01*
X133245428Y-76991470D01*
X133295171Y-76855264D01*
X133354285Y-76810042D01*
X133445574Y-76711194D01*
X133463142Y-76628613D01*
X133512885Y-76492407D01*
X133571999Y-76447184D01*
X133663289Y-76348337D01*
X133680857Y-76265756D01*
X133730600Y-76129550D01*
X133789714Y-76084327D01*
X133886185Y-75991681D01*
X133898571Y-75939184D01*
X133957150Y-75825097D01*
X134007428Y-75794042D01*
X134098717Y-75695194D01*
X134116285Y-75612613D01*
X134166028Y-75476407D01*
X134225142Y-75431184D01*
X134321613Y-75338538D01*
X134333999Y-75286042D01*
X134392579Y-75171954D01*
X134442857Y-75140899D01*
X134539327Y-75048253D01*
X134551714Y-74995756D01*
X134610293Y-74881669D01*
X134660571Y-74850613D01*
X134756762Y-74772482D01*
X134769428Y-74731546D01*
X134817409Y-74636375D01*
X134937364Y-74492140D01*
X134987142Y-74441428D01*
X135123032Y-74292077D01*
X135199038Y-74176486D01*
X135204857Y-74153588D01*
X135263598Y-74087048D01*
X135313714Y-74078571D01*
X135410016Y-74024467D01*
X135422571Y-73977478D01*
X135481109Y-73865445D01*
X135531428Y-73834613D01*
X135627601Y-73757309D01*
X135640285Y-73717039D01*
X135688995Y-73636278D01*
X135820346Y-73478259D01*
X136012177Y-73265732D01*
X136242322Y-73021449D01*
X136488617Y-72768160D01*
X136728898Y-72528616D01*
X136941002Y-72325569D01*
X137102763Y-72181770D01*
X137192019Y-72119969D01*
X137196957Y-72119143D01*
X137293417Y-72067673D01*
X137427086Y-71940340D01*
X137457975Y-71904501D01*
X137595463Y-71764366D01*
X137709571Y-71690151D01*
X137726714Y-71686787D01*
X137807195Y-71625277D01*
X137817428Y-71574857D01*
X137875700Y-71479189D01*
X137928563Y-71466000D01*
X138049653Y-71407288D01*
X138081470Y-71357143D01*
X138174116Y-71260672D01*
X138226613Y-71248285D01*
X138340700Y-71189706D01*
X138371756Y-71139428D01*
X138464402Y-71042957D01*
X138516899Y-71030571D01*
X138630986Y-70971992D01*
X138662041Y-70921714D01*
X138754687Y-70825243D01*
X138807184Y-70812857D01*
X138921272Y-70754278D01*
X138952327Y-70704000D01*
X139051175Y-70612710D01*
X139133756Y-70595143D01*
X139269962Y-70545400D01*
X139315184Y-70486285D01*
X139407830Y-70389815D01*
X139460327Y-70377428D01*
X139574415Y-70318849D01*
X139605470Y-70268571D01*
X139704318Y-70177282D01*
X139786899Y-70159714D01*
X139923104Y-70109971D01*
X139968327Y-70050857D01*
X140067175Y-69959568D01*
X140149756Y-69942000D01*
X140285962Y-69892257D01*
X140331184Y-69833142D01*
X140430032Y-69741853D01*
X140512613Y-69724285D01*
X140648819Y-69674542D01*
X140694041Y-69615428D01*
X140791059Y-69531244D01*
X140911756Y-69506571D01*
X141063183Y-69466532D01*
X141129470Y-69397714D01*
X141226488Y-69313530D01*
X141347184Y-69288857D01*
X141498612Y-69248818D01*
X141564899Y-69180000D01*
X141661916Y-69095816D01*
X141782613Y-69071143D01*
X141934040Y-69031104D01*
X142000327Y-68962285D01*
X142099150Y-68880962D01*
X142254327Y-68853428D01*
X142426183Y-68818746D01*
X142508327Y-68744571D01*
X142607150Y-68663248D01*
X142762327Y-68635714D01*
X142934183Y-68601032D01*
X143016327Y-68526857D01*
X143119476Y-68444732D01*
X143299152Y-68418000D01*
X143499978Y-68386455D01*
X143647731Y-68310454D01*
X143649061Y-68309143D01*
X143799424Y-68228790D01*
X143971930Y-68200285D01*
X144157647Y-68165360D01*
X144276285Y-68091428D01*
X144409626Y-68016962D01*
X144617874Y-67982963D01*
X144642845Y-67982571D01*
X144853273Y-67955096D01*
X145011803Y-67887582D01*
X145027918Y-67873714D01*
X145187351Y-67798131D01*
X145454395Y-67765572D01*
X145507093Y-67764857D01*
X145760567Y-67748085D01*
X145893252Y-67694100D01*
X145919184Y-67656000D01*
X145991364Y-67589576D01*
X146160101Y-67555320D01*
X146395796Y-67547143D01*
X146676780Y-67529569D01*
X146934801Y-67484392D01*
X147059318Y-67443987D01*
X147260786Y-67390538D01*
X147597798Y-67348704D01*
X148061143Y-67319478D01*
X148287915Y-67311300D01*
X148736289Y-67291858D01*
X149076262Y-67263884D01*
X149294707Y-67228764D01*
X149372858Y-67196741D01*
X149480691Y-67156582D01*
X149685777Y-67128791D01*
X149949381Y-67113514D01*
X150232768Y-67110899D01*
X150497203Y-67121092D01*
X150703949Y-67144240D01*
X150814273Y-67180490D01*
X150822130Y-67191249D01*
X150905574Y-67227550D01*
X151124061Y-67260353D01*
X151467511Y-67288568D01*
X151925844Y-67311104D01*
X151933208Y-67311381D01*
X152414805Y-67334342D01*
X152763014Y-67362796D01*
X152989531Y-67398111D01*
X153106054Y-67441654D01*
X153115356Y-67449561D01*
X153258851Y-67510847D01*
X153528126Y-67542927D01*
X153706869Y-67547143D01*
X154020666Y-67560306D01*
X154213102Y-67602483D01*
X154291142Y-67656000D01*
X154442853Y-67734218D01*
X154723906Y-67764529D01*
X154763978Y-67764857D01*
X155020400Y-67780410D01*
X155156908Y-67830877D01*
X155188243Y-67873714D01*
X155297296Y-67956208D01*
X155527763Y-67982571D01*
X155751064Y-68008912D01*
X155915148Y-68075275D01*
X155934367Y-68091428D01*
X156080666Y-68167874D01*
X156281363Y-68200278D01*
X156284276Y-68200285D01*
X156478545Y-68232635D01*
X156567100Y-68309142D01*
X156668026Y-68390907D01*
X156834048Y-68418000D01*
X157030596Y-68451810D01*
X157168081Y-68526857D01*
X157327149Y-68615472D01*
X157444297Y-68635714D01*
X157616369Y-68680407D01*
X157701999Y-68744571D01*
X157838521Y-68826327D01*
X157993407Y-68853428D01*
X158156299Y-68889022D01*
X158236243Y-68962285D01*
X158333261Y-69046469D01*
X158453958Y-69071142D01*
X158605385Y-69111181D01*
X158671672Y-69180000D01*
X158768689Y-69264183D01*
X158889386Y-69288857D01*
X159040814Y-69328896D01*
X159107100Y-69397714D01*
X159206007Y-69489247D01*
X159287407Y-69506571D01*
X159449850Y-69559372D01*
X159516285Y-69615428D01*
X159635738Y-69707441D01*
X159698835Y-69724285D01*
X159802854Y-69782653D01*
X159832815Y-69833142D01*
X159929832Y-69917326D01*
X160050529Y-69942000D01*
X160201957Y-69982038D01*
X160268243Y-70050857D01*
X160360889Y-70147328D01*
X160413386Y-70159714D01*
X160527473Y-70218293D01*
X160558529Y-70268571D01*
X160657377Y-70359860D01*
X160739958Y-70377428D01*
X160876163Y-70427171D01*
X160921386Y-70486285D01*
X161014032Y-70582756D01*
X161066529Y-70595143D01*
X161180616Y-70653722D01*
X161211672Y-70704000D01*
X161299624Y-70800388D01*
X161348406Y-70812857D01*
X161456648Y-70858658D01*
X161616271Y-70973791D01*
X161681734Y-71030571D01*
X161838979Y-71162792D01*
X161955004Y-71240050D01*
X161980428Y-71248285D01*
X162055734Y-71305926D01*
X162082529Y-71357143D01*
X162178447Y-71453666D01*
X162233526Y-71466000D01*
X162339059Y-71514457D01*
X162504765Y-71640635D01*
X162669323Y-71792571D01*
X162850020Y-71962340D01*
X162996593Y-72080428D01*
X163070375Y-72119142D01*
X163136443Y-72177892D01*
X163144857Y-72228000D01*
X163202948Y-72324213D01*
X163253714Y-72336857D01*
X163349927Y-72394948D01*
X163362571Y-72445714D01*
X163420662Y-72541927D01*
X163471428Y-72554571D01*
X163567641Y-72612662D01*
X163580285Y-72663428D01*
X163619472Y-72760004D01*
X163652857Y-72772285D01*
X163760779Y-72823945D01*
X163892618Y-72942147D01*
X163993210Y-73071728D01*
X164015714Y-73135143D01*
X164074494Y-73199526D01*
X164124571Y-73207714D01*
X164220784Y-73265805D01*
X164233428Y-73316571D01*
X164291519Y-73412784D01*
X164342285Y-73425428D01*
X164438805Y-73468131D01*
X164451142Y-73504656D01*
X164500165Y-73588592D01*
X164630652Y-73742675D01*
X164817728Y-73938265D01*
X164886571Y-74006000D01*
X165086685Y-74208915D01*
X165238294Y-74379631D01*
X165316524Y-74489509D01*
X165321999Y-74507343D01*
X165374430Y-74583088D01*
X165396127Y-74586571D01*
X165475082Y-74645920D01*
X165558811Y-74786143D01*
X165675139Y-74988619D01*
X165811255Y-75166401D01*
X165925237Y-75328237D01*
X165975057Y-75470612D01*
X165975142Y-75474830D01*
X166025776Y-75582629D01*
X166083999Y-75602571D01*
X166173801Y-75662540D01*
X166192857Y-75739950D01*
X166243368Y-75875166D01*
X166301714Y-75919101D01*
X166391358Y-76017542D01*
X166410571Y-76108293D01*
X166441274Y-76227439D01*
X166484939Y-76255714D01*
X166562941Y-76315787D01*
X166628285Y-76437143D01*
X166704075Y-76571719D01*
X166771632Y-76618571D01*
X166831736Y-76679435D01*
X166845999Y-76765992D01*
X166893289Y-76905539D01*
X166954857Y-76955184D01*
X167039040Y-77052202D01*
X167063714Y-77172899D01*
X167103753Y-77324326D01*
X167172571Y-77390613D01*
X167256755Y-77487631D01*
X167281428Y-77608327D01*
X167321467Y-77759755D01*
X167390285Y-77826042D01*
X167474469Y-77923059D01*
X167499142Y-78043756D01*
X167539181Y-78195183D01*
X167607999Y-78261470D01*
X167689227Y-78359891D01*
X167716857Y-78513193D01*
X167750315Y-78680310D01*
X167825714Y-78723142D01*
X167911734Y-78787353D01*
X167934571Y-78943134D01*
X167968616Y-79121120D01*
X168043428Y-79204899D01*
X168125669Y-79308983D01*
X168152285Y-79495184D01*
X168184054Y-79695125D01*
X168261142Y-79785470D01*
X168343383Y-79889554D01*
X168369999Y-80075756D01*
X168401768Y-80275696D01*
X168478857Y-80366042D01*
X168561315Y-80472879D01*
X168587714Y-80681449D01*
X168615983Y-80891658D01*
X168686772Y-81036277D01*
X168696571Y-81045428D01*
X168772953Y-81186480D01*
X168805138Y-81421442D01*
X168805428Y-81448273D01*
X168831464Y-81683840D01*
X168898632Y-81851192D01*
X168914285Y-81869632D01*
X168989305Y-82026178D01*
X169022392Y-82282592D01*
X169023142Y-82332660D01*
X169045188Y-82580396D01*
X169101536Y-82778533D01*
X169129691Y-82827701D01*
X169199833Y-83012469D01*
X169234485Y-83335378D01*
X169238549Y-83517129D01*
X169258036Y-83900008D01*
X169312883Y-84143932D01*
X169347406Y-84206558D01*
X169377939Y-84268228D01*
X169402249Y-84373594D01*
X169420990Y-84537494D01*
X169434811Y-84774765D01*
X169444364Y-85100247D01*
X169450301Y-85528775D01*
X169453273Y-86075190D01*
X169453955Y-86633428D01*
X169452962Y-87289820D01*
X169449549Y-87815918D01*
X169443065Y-88226560D01*
X169432857Y-88536583D01*
X169418275Y-88760826D01*
X169398668Y-88914127D01*
X169373383Y-89011323D01*
X169347406Y-89060299D01*
X169279940Y-89232856D01*
X169245868Y-89532854D01*
X169240857Y-89761823D01*
X169229651Y-90090237D01*
X169196827Y-90289679D01*
X169155784Y-90350833D01*
X169105567Y-90433877D01*
X169062094Y-90623886D01*
X169037120Y-90843586D01*
X169004749Y-91101619D01*
X168954132Y-91308196D01*
X168904478Y-91407031D01*
X168840471Y-91540234D01*
X168806895Y-91745125D01*
X168805428Y-91796367D01*
X168778946Y-92013383D01*
X168713049Y-92175783D01*
X168696571Y-92195510D01*
X168619973Y-92341966D01*
X168587717Y-92542408D01*
X168587714Y-92544297D01*
X168556562Y-92737764D01*
X168481367Y-92872425D01*
X168478857Y-92874571D01*
X168402466Y-93006631D01*
X168370009Y-93199032D01*
X168369999Y-93202264D01*
X168337357Y-93393702D01*
X168261142Y-93481386D01*
X168179866Y-93580012D01*
X168152285Y-93734265D01*
X168116878Y-93919114D01*
X168043428Y-94035714D01*
X167962143Y-94173232D01*
X167940300Y-94316743D01*
X167955326Y-94425296D01*
X167982634Y-94416714D01*
X168076840Y-94341033D01*
X168160610Y-94326000D01*
X168297559Y-94276821D01*
X168343756Y-94217142D01*
X168441315Y-94130926D01*
X168550306Y-94108285D01*
X168721655Y-94062889D01*
X168805428Y-93999428D01*
X168949982Y-93906218D01*
X169034306Y-93890571D01*
X169170025Y-93840453D01*
X169214613Y-93781714D01*
X169312172Y-93695498D01*
X169421164Y-93672857D01*
X169592512Y-93627460D01*
X169676285Y-93564000D01*
X169820839Y-93470790D01*
X169905163Y-93455142D01*
X170040882Y-93405024D01*
X170085470Y-93346285D01*
X170182488Y-93262102D01*
X170303184Y-93237428D01*
X170454612Y-93197389D01*
X170520899Y-93128571D01*
X170617916Y-93044387D01*
X170738613Y-93019714D01*
X170890040Y-92979675D01*
X170956327Y-92910857D01*
X171055567Y-92817920D01*
X171130294Y-92802000D01*
X171289589Y-92752985D01*
X171371346Y-92693142D01*
X171532673Y-92601757D01*
X171632808Y-92584285D01*
X171774561Y-92538503D01*
X171827184Y-92475428D01*
X171924202Y-92391244D01*
X172044899Y-92366571D01*
X172196326Y-92326532D01*
X172262613Y-92257714D01*
X172359631Y-92173530D01*
X172480327Y-92148857D01*
X172631755Y-92108818D01*
X172698041Y-92040000D01*
X172795059Y-91955816D01*
X172915756Y-91931142D01*
X173067183Y-91891104D01*
X173133470Y-91822285D01*
X173230488Y-91738102D01*
X173351184Y-91713428D01*
X173502612Y-91673389D01*
X173568899Y-91604571D01*
X173665916Y-91520387D01*
X173786613Y-91495714D01*
X173938040Y-91455675D01*
X174004327Y-91386857D01*
X174101345Y-91302673D01*
X174222041Y-91278000D01*
X174373469Y-91237961D01*
X174439756Y-91169142D01*
X174536773Y-91084959D01*
X174657470Y-91060285D01*
X174808898Y-91020247D01*
X174875184Y-90951428D01*
X174972202Y-90867244D01*
X175092899Y-90842571D01*
X175244326Y-90802532D01*
X175310613Y-90733714D01*
X175407631Y-90649530D01*
X175528327Y-90624857D01*
X175679755Y-90584818D01*
X175746041Y-90516000D01*
X175843342Y-90430761D01*
X175957872Y-90407142D01*
X176114664Y-90367605D01*
X176185965Y-90305267D01*
X176297511Y-90217273D01*
X176425428Y-90178267D01*
X176559330Y-90130449D01*
X176587369Y-90009724D01*
X176583444Y-89971714D01*
X176526010Y-89799495D01*
X176456444Y-89709713D01*
X176366077Y-89577251D01*
X176352857Y-89507864D01*
X176296152Y-89379750D01*
X176243999Y-89344815D01*
X176159816Y-89247797D01*
X176135142Y-89127101D01*
X176095104Y-88975673D01*
X176026285Y-88909386D01*
X175944161Y-88806237D01*
X175917428Y-88626562D01*
X175881327Y-88420343D01*
X175794508Y-88262590D01*
X175794314Y-88262396D01*
X175749934Y-88202125D01*
X175717931Y-88109414D01*
X175696635Y-87963037D01*
X175684371Y-87741766D01*
X175679468Y-87424375D01*
X175680252Y-86989637D01*
X175681378Y-86829094D01*
X175686810Y-86351604D01*
X175695780Y-85999703D01*
X175710039Y-85753845D01*
X175731339Y-85594489D01*
X175761432Y-85502090D01*
X175802070Y-85457105D01*
X175804492Y-85455704D01*
X175889847Y-85329679D01*
X175917428Y-85113586D01*
X175946974Y-84890923D01*
X176026285Y-84792899D01*
X176110469Y-84695881D01*
X176135142Y-84575184D01*
X176175181Y-84423757D01*
X176243999Y-84357470D01*
X176333174Y-84259147D01*
X176352857Y-84166000D01*
X176399472Y-84025480D01*
X176461714Y-83974529D01*
X176557779Y-83901948D01*
X176570571Y-83865504D01*
X176618323Y-83776915D01*
X176737774Y-83636644D01*
X176788285Y-83585428D01*
X176924175Y-83436077D01*
X177000180Y-83320486D01*
X177005999Y-83297588D01*
X177061481Y-83225167D01*
X177081017Y-83222571D01*
X177174692Y-83174642D01*
X177318029Y-83054802D01*
X177368857Y-83004857D01*
X177528230Y-82867872D01*
X177665627Y-82792311D01*
X177695260Y-82787142D01*
X177818556Y-82728391D01*
X177850613Y-82678285D01*
X177949853Y-82585348D01*
X178024580Y-82569428D01*
X178183875Y-82520413D01*
X178265632Y-82460571D01*
X178423566Y-82373024D01*
X178547231Y-82351714D01*
X178745344Y-82307587D01*
X178860843Y-82245165D01*
X178964846Y-82197106D01*
X179141962Y-82164538D01*
X179414150Y-82145228D01*
X179803367Y-82136944D01*
X179931282Y-82136308D01*
X180288985Y-82140137D01*
X180571710Y-82152488D01*
X180756811Y-82171764D01*
X180821643Y-82196370D01*
X180820699Y-82198967D01*
X180838699Y-82273164D01*
X180971573Y-82327913D01*
X181189258Y-82351516D01*
X181213313Y-82351714D01*
X181378594Y-82387068D01*
X181459100Y-82460571D01*
X181556118Y-82544755D01*
X181676815Y-82569428D01*
X181828242Y-82609467D01*
X181894529Y-82678285D01*
X181992883Y-82774846D01*
X182049882Y-82787142D01*
X182169064Y-82835957D01*
X182327531Y-82957740D01*
X182376285Y-83004857D01*
X182525636Y-83140746D01*
X182641227Y-83216752D01*
X182664125Y-83222571D01*
X182730665Y-83281312D01*
X182739142Y-83331428D01*
X182797233Y-83427641D01*
X182848000Y-83440285D01*
X182945607Y-83489181D01*
X182958873Y-83531000D01*
X183008387Y-83635362D01*
X183129490Y-83785024D01*
X183176587Y-83833381D01*
X183313365Y-83998490D01*
X183387763Y-84148387D01*
X183392285Y-84180373D01*
X183443510Y-84314694D01*
X183501142Y-84357470D01*
X183585326Y-84454488D01*
X183610000Y-84575184D01*
X183650038Y-84726612D01*
X183718857Y-84792899D01*
X183800981Y-84896048D01*
X183827714Y-85075723D01*
X183861431Y-85279123D01*
X183942593Y-85431648D01*
X183943406Y-85432468D01*
X183989004Y-85548611D01*
X184024662Y-85777294D01*
X184050392Y-86090603D01*
X184066203Y-86460623D01*
X184072103Y-86859440D01*
X184068103Y-87259142D01*
X184054212Y-87631813D01*
X184030439Y-87949542D01*
X183996794Y-88184413D01*
X183953287Y-88308513D01*
X183942424Y-88318159D01*
X183856063Y-88440186D01*
X183827714Y-88624984D01*
X183795488Y-88820456D01*
X183718857Y-88909386D01*
X183634673Y-89006404D01*
X183610000Y-89127101D01*
X183573594Y-89276985D01*
X183510742Y-89341131D01*
X183423290Y-89434947D01*
X183375663Y-89566610D01*
X183339841Y-89754000D01*
X183879247Y-89754000D01*
X184213585Y-89766254D01*
X184426181Y-89805427D01*
X184527510Y-89862857D01*
X184669196Y-89934832D01*
X184876545Y-89970782D01*
X184913705Y-89971714D01*
X185135202Y-90001369D01*
X185232815Y-90080571D01*
X185329365Y-90163033D01*
X185460571Y-90189428D01*
X185616037Y-90227418D01*
X185688327Y-90298285D01*
X185787295Y-90390071D01*
X185867478Y-90407142D01*
X185980809Y-90454661D01*
X186004857Y-90516000D01*
X186053636Y-90612807D01*
X186095571Y-90625526D01*
X186211911Y-90675842D01*
X186381745Y-90802676D01*
X186568850Y-90971569D01*
X186737004Y-91148064D01*
X186849984Y-91297704D01*
X186876842Y-91368714D01*
X186926702Y-91476021D01*
X186984571Y-91495714D01*
X187080239Y-91553986D01*
X187093428Y-91606849D01*
X187152140Y-91727939D01*
X187202285Y-91759756D01*
X187288291Y-91857260D01*
X187311142Y-91967428D01*
X187353465Y-92114743D01*
X187420000Y-92175101D01*
X187502462Y-92271650D01*
X187528857Y-92402857D01*
X187566847Y-92558322D01*
X187637714Y-92630613D01*
X187720186Y-92737814D01*
X187746571Y-92949723D01*
X187773933Y-93160458D01*
X187841208Y-93319325D01*
X187855428Y-93335918D01*
X187899896Y-93409178D01*
X187930992Y-93539816D01*
X187950740Y-93749602D01*
X187961163Y-94060304D01*
X187964283Y-94493693D01*
X187964285Y-94507428D01*
X187961336Y-94944465D01*
X187951139Y-95258223D01*
X187931672Y-95470471D01*
X187900911Y-95602977D01*
X187856835Y-95677513D01*
X187855428Y-95678938D01*
X187780669Y-95823493D01*
X187746753Y-96026894D01*
X187746571Y-96041796D01*
X187716659Y-96246147D01*
X187644022Y-96397919D01*
X187637714Y-96404653D01*
X187551278Y-96561409D01*
X187528857Y-96692032D01*
X187489365Y-96844505D01*
X187420000Y-96912327D01*
X187326478Y-97011703D01*
X187311142Y-97083714D01*
X187257822Y-97215530D01*
X187202285Y-97255101D01*
X187105943Y-97355092D01*
X187093428Y-97414475D01*
X187042683Y-97514962D01*
X186908712Y-97682148D01*
X186718917Y-97888771D01*
X186500695Y-98107569D01*
X186281447Y-98311280D01*
X186088572Y-98472642D01*
X185949469Y-98564391D01*
X185929886Y-98572190D01*
X185813877Y-98637374D01*
X185787142Y-98685176D01*
X185726219Y-98739895D01*
X185639722Y-98752857D01*
X185500174Y-98800146D01*
X185450529Y-98861714D01*
X185346445Y-98943955D01*
X185160243Y-98970571D01*
X184960303Y-99002340D01*
X184869958Y-99079428D01*
X184782631Y-99126104D01*
X184581319Y-99161389D01*
X184296731Y-99185282D01*
X183959576Y-99197784D01*
X183600563Y-99198894D01*
X183250403Y-99188612D01*
X182939805Y-99166939D01*
X182699477Y-99133875D01*
X182560130Y-99089419D01*
X182547346Y-99079428D01*
X182395445Y-98997605D01*
X182233723Y-98970571D01*
X182067837Y-98935278D01*
X181987184Y-98861714D01*
X181888861Y-98772539D01*
X181795714Y-98752857D01*
X181655195Y-98706242D01*
X181604243Y-98644000D01*
X181515442Y-98547596D01*
X181465988Y-98535143D01*
X181369026Y-98485740D01*
X181206094Y-98357040D01*
X181007565Y-98178301D01*
X180803810Y-97978783D01*
X180625202Y-97787744D01*
X180502113Y-97634443D01*
X180467840Y-97573571D01*
X180393991Y-97466511D01*
X180346563Y-97446571D01*
X180280553Y-97387669D01*
X180271714Y-97335436D01*
X180213002Y-97214346D01*
X180162857Y-97182529D01*
X180078673Y-97085511D01*
X180054000Y-96964815D01*
X180013961Y-96813387D01*
X179945142Y-96747101D01*
X179864215Y-96650973D01*
X179836285Y-96509892D01*
X179805704Y-96330898D01*
X179749200Y-96227371D01*
X179604580Y-96153696D01*
X179434298Y-96149691D01*
X179305078Y-96212245D01*
X179281958Y-96249142D01*
X179184940Y-96333326D01*
X179064243Y-96358000D01*
X178912816Y-96398038D01*
X178846529Y-96466857D01*
X178749511Y-96551041D01*
X178628815Y-96575714D01*
X178477387Y-96615753D01*
X178411100Y-96684571D01*
X178314083Y-96768755D01*
X178193386Y-96793428D01*
X178041959Y-96833467D01*
X177975672Y-96902285D01*
X177878371Y-96987524D01*
X177763841Y-97011142D01*
X177607049Y-97050680D01*
X177535748Y-97113018D01*
X177424218Y-97201638D01*
X177296285Y-97241741D01*
X177166943Y-97291726D01*
X177132999Y-97357580D01*
X177086194Y-97425946D01*
X176974897Y-97446571D01*
X176790803Y-97490020D01*
X176689795Y-97555428D01*
X176528469Y-97646814D01*
X176428334Y-97664285D01*
X176286581Y-97710067D01*
X176233958Y-97773142D01*
X176136940Y-97857326D01*
X176016243Y-97882000D01*
X175864816Y-97922038D01*
X175798529Y-97990857D01*
X175701511Y-98075041D01*
X175580815Y-98099714D01*
X175429387Y-98139753D01*
X175363100Y-98208571D01*
X175266083Y-98292755D01*
X175145386Y-98317428D01*
X174993959Y-98357467D01*
X174927672Y-98426285D01*
X174828238Y-98520064D01*
X174757407Y-98535142D01*
X174604200Y-98587532D01*
X174538571Y-98644000D01*
X174400199Y-98736931D01*
X174320857Y-98752857D01*
X174168679Y-98805200D01*
X174103142Y-98861714D01*
X173958589Y-98954924D01*
X173874264Y-98970571D01*
X173738545Y-99020690D01*
X173693958Y-99079428D01*
X173596940Y-99163612D01*
X173476243Y-99188285D01*
X173324816Y-99228324D01*
X173258529Y-99297143D01*
X173161511Y-99381326D01*
X173040815Y-99406000D01*
X172889387Y-99446038D01*
X172823100Y-99514857D01*
X172725767Y-99600219D01*
X172611947Y-99623714D01*
X172463184Y-99651267D01*
X172391463Y-99713627D01*
X172425572Y-99780344D01*
X172451690Y-99793215D01*
X172449179Y-99817631D01*
X172331420Y-99833591D01*
X172275897Y-99835699D01*
X172067803Y-99868048D01*
X171912059Y-99939567D01*
X171900081Y-99950285D01*
X171758081Y-100040640D01*
X171674906Y-100059143D01*
X171549141Y-100117936D01*
X171516815Y-100168000D01*
X171417381Y-100261778D01*
X171346550Y-100276857D01*
X171193343Y-100329247D01*
X171127714Y-100385714D01*
X170987344Y-100472072D01*
X170862550Y-100494571D01*
X170711578Y-100534853D01*
X170645958Y-100603428D01*
X170548940Y-100687612D01*
X170428243Y-100712285D01*
X170276816Y-100752324D01*
X170210529Y-100821143D01*
X170113511Y-100905326D01*
X169992815Y-100930000D01*
X169841387Y-100970038D01*
X169775100Y-101038857D01*
X169678083Y-101123041D01*
X169557386Y-101147714D01*
X169405959Y-101187753D01*
X169339672Y-101256571D01*
X169242654Y-101340755D01*
X169121958Y-101365428D01*
X168970530Y-101405467D01*
X168904243Y-101474285D01*
X168807226Y-101558469D01*
X168686529Y-101583143D01*
X168535101Y-101623181D01*
X168468815Y-101692000D01*
X168371311Y-101778006D01*
X168261142Y-101800857D01*
X168113827Y-101843179D01*
X168053470Y-101909714D01*
X167955146Y-101998889D01*
X167861999Y-102018571D01*
X167721480Y-102065186D01*
X167670529Y-102127428D01*
X167572109Y-102208656D01*
X167418807Y-102236285D01*
X167251690Y-102269744D01*
X167208857Y-102345143D01*
X167144646Y-102431163D01*
X166988865Y-102454000D01*
X166810879Y-102488045D01*
X166727100Y-102562857D01*
X166627667Y-102656635D01*
X166556835Y-102671714D01*
X166403628Y-102724104D01*
X166337999Y-102780571D01*
X166196682Y-102868058D01*
X166078720Y-102889428D01*
X165922343Y-102929220D01*
X165851748Y-102991304D01*
X165740218Y-103079924D01*
X165612285Y-103120027D01*
X165482943Y-103170012D01*
X165448999Y-103235865D01*
X165402421Y-103304422D01*
X165294600Y-103324857D01*
X165121061Y-103368202D01*
X165031714Y-103433714D01*
X164887160Y-103526924D01*
X164802836Y-103542571D01*
X164667117Y-103592690D01*
X164622529Y-103651428D01*
X164525511Y-103735612D01*
X164404815Y-103760285D01*
X164253387Y-103800324D01*
X164187100Y-103869143D01*
X164090083Y-103953326D01*
X163969386Y-103978000D01*
X163817959Y-104018038D01*
X163751672Y-104086857D01*
X163654112Y-104173073D01*
X163545121Y-104195714D01*
X163373773Y-104241111D01*
X163289999Y-104304571D01*
X163145446Y-104397781D01*
X163061122Y-104413428D01*
X162925402Y-104463547D01*
X162880815Y-104522285D01*
X162783255Y-104608501D01*
X162674264Y-104631143D01*
X162502916Y-104676539D01*
X162419142Y-104740000D01*
X162274589Y-104833209D01*
X162190264Y-104848857D01*
X162054545Y-104898975D01*
X162009958Y-104957714D01*
X161912940Y-105041898D01*
X161792243Y-105066571D01*
X161640816Y-105106610D01*
X161574529Y-105175428D01*
X161477511Y-105259612D01*
X161356815Y-105284285D01*
X161205387Y-105324324D01*
X161139100Y-105393143D01*
X161042083Y-105477326D01*
X160921386Y-105502000D01*
X160769959Y-105542038D01*
X160703672Y-105610857D01*
X160606654Y-105695041D01*
X160485958Y-105719714D01*
X160334530Y-105759753D01*
X160268243Y-105828571D01*
X160171226Y-105912755D01*
X160050529Y-105937428D01*
X159899101Y-105977467D01*
X159832815Y-106046285D01*
X159735797Y-106130469D01*
X159615100Y-106155143D01*
X159463673Y-106195181D01*
X159397386Y-106264000D01*
X159322775Y-106331681D01*
X159148661Y-106365782D01*
X158935714Y-106372857D01*
X158669806Y-106360247D01*
X158522245Y-106318502D01*
X158474041Y-106264000D01*
X158375718Y-106174825D01*
X158282571Y-106155143D01*
X158142052Y-106108527D01*
X158091100Y-106046285D01*
X157993596Y-105960279D01*
X157883428Y-105937428D01*
X157736113Y-105895106D01*
X157675756Y-105828571D01*
X157576908Y-105737282D01*
X157494327Y-105719714D01*
X157358121Y-105669971D01*
X157312899Y-105610857D01*
X157214051Y-105519568D01*
X157131470Y-105502000D01*
X156995264Y-105452257D01*
X156950041Y-105393143D01*
X156853387Y-105310298D01*
X156724563Y-105284285D01*
X156576940Y-105246830D01*
X156540857Y-105175428D01*
X156493298Y-105100007D01*
X156335348Y-105068690D01*
X156248293Y-105066571D01*
X156015589Y-105095202D01*
X155913958Y-105175428D01*
X155809632Y-105257695D01*
X155621667Y-105284285D01*
X155460717Y-105301946D01*
X155412129Y-105348404D01*
X155416000Y-105356857D01*
X155516497Y-105413974D01*
X155630232Y-105429428D01*
X155778982Y-105470930D01*
X155841386Y-105538285D01*
X155940234Y-105629575D01*
X156022815Y-105647143D01*
X156159021Y-105696885D01*
X156204243Y-105756000D01*
X156303091Y-105847289D01*
X156385672Y-105864857D01*
X156521878Y-105914600D01*
X156567100Y-105973714D01*
X156665948Y-106065003D01*
X156748529Y-106082571D01*
X156884735Y-106132314D01*
X156929958Y-106191428D01*
X157026975Y-106275612D01*
X157147672Y-106300285D01*
X157299099Y-106340324D01*
X157365386Y-106409143D01*
X157464234Y-106500432D01*
X157546815Y-106518000D01*
X157683021Y-106567743D01*
X157728243Y-106626857D01*
X157826567Y-106716032D01*
X157919714Y-106735714D01*
X158060233Y-106782329D01*
X158111184Y-106844571D01*
X158208688Y-106930577D01*
X158318857Y-106953428D01*
X158466172Y-106995751D01*
X158526529Y-107062285D01*
X158625377Y-107153575D01*
X158707958Y-107171143D01*
X158844163Y-107220885D01*
X158889386Y-107280000D01*
X158988293Y-107371532D01*
X159069693Y-107388857D01*
X159232136Y-107441658D01*
X159298571Y-107497714D01*
X159423338Y-107589995D01*
X159491163Y-107606571D01*
X159604239Y-107665130D01*
X159635184Y-107715428D01*
X159732688Y-107801434D01*
X159842857Y-107824285D01*
X159990172Y-107866608D01*
X160050529Y-107933143D01*
X160147547Y-108017326D01*
X160268243Y-108042000D01*
X160419671Y-108082038D01*
X160485958Y-108150857D01*
X160584805Y-108242146D01*
X160667386Y-108259714D01*
X160803592Y-108309457D01*
X160848815Y-108368571D01*
X160947662Y-108459860D01*
X161030243Y-108477428D01*
X161166449Y-108527171D01*
X161211672Y-108586285D01*
X161310519Y-108677575D01*
X161393100Y-108695143D01*
X161529306Y-108744885D01*
X161574529Y-108804000D01*
X161671547Y-108888183D01*
X161792243Y-108912857D01*
X161943671Y-108952896D01*
X162009958Y-109021714D01*
X162101977Y-109118174D01*
X162153979Y-109130571D01*
X162283228Y-109181865D01*
X162346571Y-109239428D01*
X162485560Y-109332388D01*
X162565407Y-109348285D01*
X162696728Y-109402037D01*
X162735672Y-109457142D01*
X162834519Y-109548432D01*
X162917100Y-109566000D01*
X163053306Y-109615743D01*
X163098529Y-109674857D01*
X163195547Y-109759041D01*
X163316243Y-109783714D01*
X163467671Y-109823753D01*
X163533958Y-109892571D01*
X163632805Y-109983860D01*
X163715386Y-110001428D01*
X163851592Y-110051171D01*
X163896815Y-110110285D01*
X163995256Y-110199929D01*
X164086008Y-110219142D01*
X164205209Y-110246208D01*
X164233428Y-110284615D01*
X164294451Y-110351229D01*
X164442206Y-110422812D01*
X164451142Y-110425982D01*
X164602084Y-110500057D01*
X164668694Y-110575207D01*
X164668857Y-110578225D01*
X164730691Y-110636519D01*
X164842521Y-110654571D01*
X164993022Y-110695106D01*
X165057958Y-110763428D01*
X165156281Y-110852603D01*
X165249428Y-110872285D01*
X165389947Y-110918900D01*
X165440899Y-110981142D01*
X165535169Y-111077640D01*
X165588948Y-111090000D01*
X165724777Y-111137901D01*
X165804081Y-111198857D01*
X165954415Y-111289668D01*
X166045133Y-111307714D01*
X166178084Y-111360067D01*
X166219100Y-111416571D01*
X166317948Y-111507860D01*
X166400529Y-111525428D01*
X166536735Y-111575171D01*
X166581958Y-111634285D01*
X166678975Y-111718469D01*
X166799672Y-111743142D01*
X166951099Y-111783181D01*
X167017386Y-111852000D01*
X167116234Y-111943289D01*
X167198815Y-111960857D01*
X167335021Y-112010600D01*
X167380243Y-112069714D01*
X167479091Y-112161003D01*
X167561672Y-112178571D01*
X167697878Y-112228314D01*
X167743100Y-112287428D01*
X167841424Y-112376603D01*
X167934571Y-112396285D01*
X168075090Y-112442900D01*
X168126041Y-112505142D01*
X168223545Y-112591149D01*
X168333714Y-112614000D01*
X168481029Y-112656322D01*
X168541386Y-112722857D01*
X168640234Y-112814146D01*
X168722815Y-112831714D01*
X168859021Y-112881457D01*
X168904243Y-112940571D01*
X169003150Y-113032104D01*
X169084550Y-113049428D01*
X169246993Y-113102230D01*
X169313428Y-113158285D01*
X169456714Y-113251439D01*
X169540028Y-113267142D01*
X169652727Y-113315004D01*
X169676285Y-113376000D01*
X169738937Y-113463810D01*
X169849949Y-113484857D01*
X170000451Y-113525392D01*
X170065386Y-113593714D01*
X170164293Y-113685247D01*
X170245693Y-113702571D01*
X170408136Y-113755372D01*
X170474571Y-113811428D01*
X170613560Y-113904388D01*
X170693407Y-113920285D01*
X170824728Y-113974037D01*
X170863672Y-114029142D01*
X170962519Y-114120432D01*
X171045100Y-114138000D01*
X171181306Y-114187743D01*
X171226529Y-114246857D01*
X171325377Y-114338146D01*
X171407958Y-114355714D01*
X171544163Y-114405457D01*
X171589386Y-114464571D01*
X171688293Y-114556104D01*
X171769693Y-114573428D01*
X171932136Y-114626230D01*
X171998571Y-114682285D01*
X172137560Y-114775245D01*
X172217407Y-114791142D01*
X172348728Y-114844894D01*
X172387672Y-114900000D01*
X172486519Y-114991289D01*
X172569100Y-115008857D01*
X172705306Y-115058600D01*
X172750529Y-115117714D01*
X172849377Y-115209003D01*
X172931958Y-115226571D01*
X173068163Y-115276314D01*
X173113386Y-115335428D01*
X173210404Y-115419612D01*
X173331100Y-115444285D01*
X173482528Y-115484324D01*
X173548815Y-115553142D01*
X173647572Y-115644062D01*
X173731960Y-115662000D01*
X173866390Y-115702854D01*
X173909937Y-115752714D01*
X173939844Y-115766781D01*
X173952270Y-115687907D01*
X174002115Y-115544596D01*
X174066857Y-115490613D01*
X174156031Y-115392289D01*
X174175714Y-115299142D01*
X174222329Y-115158623D01*
X174284571Y-115107672D01*
X174376356Y-115008705D01*
X174393428Y-114928521D01*
X174440947Y-114815190D01*
X174502285Y-114791142D01*
X174598498Y-114733051D01*
X174611142Y-114682285D01*
X174669233Y-114586072D01*
X174719999Y-114573428D01*
X174816212Y-114515337D01*
X174828857Y-114464571D01*
X174886948Y-114368358D01*
X174937714Y-114355714D01*
X175033927Y-114297623D01*
X175046571Y-114246857D01*
X175104662Y-114150644D01*
X175155428Y-114138000D01*
X175251641Y-114079909D01*
X175264285Y-114029142D01*
X175317810Y-113932828D01*
X175364256Y-113920285D01*
X175491440Y-113869087D01*
X175554571Y-113811428D01*
X175699125Y-113718218D01*
X175783449Y-113702571D01*
X175919168Y-113652453D01*
X175963756Y-113593714D01*
X176071662Y-113511223D01*
X176290327Y-113484857D01*
X176517330Y-113455712D01*
X176616899Y-113376000D01*
X176657787Y-113331303D01*
X176754680Y-113300325D01*
X176929134Y-113280812D01*
X177202706Y-113270515D01*
X177596952Y-113267182D01*
X177659142Y-113267142D01*
X178070925Y-113269725D01*
X178359188Y-113278974D01*
X178545489Y-113297141D01*
X178651384Y-113326477D01*
X178698429Y-113369235D01*
X178701386Y-113376000D01*
X178805470Y-113458240D01*
X178991672Y-113484857D01*
X179191612Y-113516625D01*
X179281958Y-113593714D01*
X179378612Y-113676558D01*
X179507436Y-113702571D01*
X179655059Y-113740026D01*
X179691142Y-113811428D01*
X179748673Y-113907654D01*
X179798904Y-113920285D01*
X179904465Y-113968979D01*
X180073782Y-114095322D01*
X180275298Y-114269711D01*
X180477455Y-114462541D01*
X180648696Y-114644207D01*
X180757463Y-114785105D01*
X180779714Y-114840402D01*
X180838240Y-114951845D01*
X180888571Y-114982613D01*
X180982093Y-115081988D01*
X180997428Y-115154000D01*
X181050748Y-115285815D01*
X181106285Y-115325386D01*
X181188747Y-115421936D01*
X181215142Y-115553142D01*
X181253132Y-115708608D01*
X181324000Y-115780899D01*
X181406472Y-115888100D01*
X181432857Y-116100009D01*
X181460219Y-116310744D01*
X181527494Y-116469611D01*
X181541714Y-116486204D01*
X181591621Y-116571093D01*
X181624536Y-116723042D01*
X181643182Y-116965906D01*
X181650281Y-117323539D01*
X181650571Y-117440000D01*
X181646064Y-117831881D01*
X181630728Y-118102701D01*
X181601841Y-118276314D01*
X181556680Y-118376575D01*
X181541714Y-118393796D01*
X181469739Y-118535482D01*
X181433788Y-118742831D01*
X181432857Y-118779990D01*
X181403201Y-119001487D01*
X181324000Y-119099101D01*
X181241537Y-119195650D01*
X181215142Y-119326857D01*
X181177152Y-119482322D01*
X181106285Y-119554613D01*
X181012763Y-119653988D01*
X180997428Y-119726000D01*
X180944108Y-119857815D01*
X180888571Y-119897386D01*
X180792290Y-119979800D01*
X180779714Y-120024171D01*
X180728401Y-120118693D01*
X180595097Y-120275020D01*
X180410759Y-120463801D01*
X180206339Y-120655683D01*
X180012794Y-120821314D01*
X179861077Y-120931341D01*
X179793112Y-120959714D01*
X179676179Y-121018348D01*
X179644815Y-121068571D01*
X179547797Y-121152755D01*
X179427100Y-121177428D01*
X179275673Y-121217467D01*
X179209386Y-121286285D01*
X179111920Y-121367274D01*
X178962847Y-121395142D01*
X178771679Y-121432397D01*
X178649224Y-121504000D01*
X178568102Y-121552217D01*
X178423128Y-121584617D01*
X178191006Y-121603705D01*
X177848443Y-121611985D01*
X177636926Y-121612857D01*
X177237445Y-121609177D01*
X176959817Y-121596449D01*
X176780897Y-121572138D01*
X176677542Y-121533707D01*
X176643142Y-121504000D01*
X176528388Y-121409354D01*
X176444412Y-121411137D01*
X176425428Y-121467714D01*
X176484208Y-121532098D01*
X176534285Y-121540285D01*
X176622889Y-121601015D01*
X176643142Y-121687706D01*
X176690432Y-121827254D01*
X176751999Y-121876899D01*
X176838216Y-121974458D01*
X176860857Y-122083449D01*
X176906253Y-122254798D01*
X176969714Y-122338571D01*
X177051053Y-122474744D01*
X177078571Y-122632559D01*
X177111797Y-122818532D01*
X177176173Y-122933806D01*
X177230945Y-123052243D01*
X177280583Y-123268753D01*
X177314225Y-123535340D01*
X177344941Y-123789365D01*
X177387301Y-123979075D01*
X177432373Y-124065026D01*
X177434338Y-124065827D01*
X177478735Y-124149214D01*
X177506891Y-124339116D01*
X177519520Y-124597896D01*
X177517336Y-124887920D01*
X177501053Y-125171553D01*
X177471386Y-125411159D01*
X177429048Y-125569103D01*
X177405142Y-125604285D01*
X177334467Y-125731328D01*
X177300539Y-125974155D01*
X177296285Y-126149693D01*
X177285672Y-126424880D01*
X177250029Y-126582265D01*
X177187428Y-126646529D01*
X177105187Y-126750613D01*
X177078571Y-126936815D01*
X177046802Y-127136755D01*
X176969714Y-127227101D01*
X176885530Y-127324118D01*
X176860857Y-127444815D01*
X176820818Y-127596242D01*
X176751999Y-127662529D01*
X176658849Y-127761819D01*
X176643142Y-127835549D01*
X176596538Y-127967489D01*
X176479623Y-128141684D01*
X176425428Y-128205162D01*
X176292989Y-128364306D01*
X176215795Y-128484423D01*
X176207714Y-128511621D01*
X176148867Y-128572054D01*
X176098857Y-128579714D01*
X176002644Y-128637805D01*
X175989999Y-128688571D01*
X175931908Y-128784784D01*
X175881142Y-128797428D01*
X175784929Y-128855519D01*
X175772285Y-128906285D01*
X175714013Y-129001953D01*
X175661150Y-129015142D01*
X175540060Y-129073854D01*
X175508243Y-129124000D01*
X175409396Y-129215289D01*
X175326815Y-129232857D01*
X175190609Y-129282600D01*
X175145386Y-129341714D01*
X175041302Y-129423955D01*
X174855100Y-129450571D01*
X174655160Y-129482340D01*
X174564815Y-129559428D01*
X174516592Y-129610493D01*
X174402726Y-129643375D01*
X174198882Y-129661435D01*
X173880722Y-129668033D01*
X173776571Y-129668285D01*
X173424797Y-129664111D01*
X173193649Y-129649346D01*
X173058790Y-129620630D01*
X172995883Y-129574602D01*
X172988327Y-129559428D01*
X172884243Y-129477188D01*
X172698041Y-129450571D01*
X172498101Y-129418803D01*
X172407756Y-129341714D01*
X172308908Y-129250425D01*
X172226327Y-129232857D01*
X172090121Y-129183114D01*
X172044899Y-129124000D01*
X171947912Y-129027459D01*
X171891991Y-129015142D01*
X171794322Y-128958065D01*
X171780857Y-128906285D01*
X171722766Y-128810072D01*
X171671999Y-128797428D01*
X171575787Y-128739337D01*
X171563142Y-128688571D01*
X171505051Y-128592358D01*
X171454285Y-128579714D01*
X171357674Y-128542904D01*
X171345428Y-128511621D01*
X171300213Y-128420696D01*
X171186385Y-128271927D01*
X171127714Y-128205162D01*
X170993491Y-128030112D01*
X170916872Y-127875744D01*
X170909999Y-127835549D01*
X170857295Y-127703014D01*
X170801142Y-127662529D01*
X170716959Y-127565511D01*
X170692285Y-127444815D01*
X170652246Y-127293387D01*
X170583428Y-127227101D01*
X170502440Y-127129635D01*
X170474571Y-126980562D01*
X170440992Y-126793650D01*
X170375521Y-126676745D01*
X170318625Y-126555586D01*
X170269725Y-126339429D01*
X170242879Y-126113300D01*
X170212544Y-125861852D01*
X170167568Y-125684577D01*
X170124215Y-125620548D01*
X170079049Y-125536771D01*
X170049250Y-125344919D01*
X170034300Y-125081188D01*
X170033679Y-124781775D01*
X170046869Y-124482875D01*
X170073351Y-124220685D01*
X170112606Y-124031400D01*
X170147999Y-123961061D01*
X170221579Y-123805627D01*
X170254577Y-123522239D01*
X170256857Y-123393437D01*
X170267291Y-123117262D01*
X170302381Y-122958863D01*
X170365714Y-122892899D01*
X170447954Y-122788815D01*
X170474571Y-122602613D01*
X170506339Y-122402673D01*
X170583428Y-122312327D01*
X170678915Y-122224537D01*
X170676803Y-122116087D01*
X170583966Y-122050621D01*
X170554907Y-122048285D01*
X170419690Y-121997774D01*
X170375756Y-121939428D01*
X170277314Y-121849784D01*
X170186563Y-121830571D01*
X170066571Y-121785727D01*
X170039142Y-121721714D01*
X169976490Y-121633904D01*
X169865478Y-121612857D01*
X169714977Y-121572322D01*
X169650041Y-121504000D01*
X169553024Y-121419816D01*
X169432327Y-121395142D01*
X169280900Y-121355104D01*
X169214613Y-121286285D01*
X169115765Y-121194996D01*
X169033184Y-121177428D01*
X168896978Y-121127685D01*
X168851756Y-121068571D01*
X168752908Y-120977282D01*
X168670327Y-120959714D01*
X168534121Y-120909971D01*
X168488899Y-120850857D01*
X168392244Y-120768013D01*
X168263420Y-120742000D01*
X168129092Y-120712397D01*
X168097857Y-120653008D01*
X168050358Y-120577538D01*
X167934571Y-120537169D01*
X167772993Y-120478980D01*
X167695108Y-120408446D01*
X167579868Y-120320975D01*
X167503301Y-120306571D01*
X167369658Y-120254793D01*
X167327756Y-120197714D01*
X167227870Y-120101131D01*
X167169665Y-120088857D01*
X167024784Y-120040524D01*
X166944489Y-119980000D01*
X166794155Y-119889189D01*
X166703437Y-119871142D01*
X166570486Y-119818790D01*
X166529470Y-119762285D01*
X166430622Y-119670996D01*
X166348041Y-119653428D01*
X166211836Y-119603685D01*
X166166613Y-119544571D01*
X166068289Y-119455396D01*
X165975142Y-119435714D01*
X165834623Y-119389099D01*
X165783672Y-119326857D01*
X165686168Y-119240851D01*
X165575999Y-119218000D01*
X165428684Y-119175677D01*
X165368327Y-119109142D01*
X165269885Y-119019498D01*
X165179134Y-119000285D01*
X165059142Y-118955442D01*
X165031714Y-118891428D01*
X164969062Y-118803618D01*
X164858050Y-118782571D01*
X164707548Y-118742036D01*
X164642613Y-118673714D01*
X164545595Y-118589530D01*
X164424899Y-118564857D01*
X164273471Y-118524818D01*
X164207184Y-118456000D01*
X164108337Y-118364710D01*
X164025756Y-118347142D01*
X163889550Y-118297400D01*
X163844327Y-118238285D01*
X163745480Y-118146996D01*
X163662899Y-118129428D01*
X163526693Y-118079685D01*
X163481470Y-118020571D01*
X163384452Y-117936387D01*
X163263756Y-117911714D01*
X163112328Y-117871675D01*
X163046041Y-117802857D01*
X162949387Y-117720013D01*
X162820563Y-117694000D01*
X162686235Y-117664397D01*
X162654999Y-117605008D01*
X162608371Y-117527479D01*
X162505419Y-117490522D01*
X162357680Y-117430373D01*
X162298083Y-117361799D01*
X162202328Y-117268888D01*
X162152194Y-117258571D01*
X162016365Y-117210670D01*
X161937061Y-117149714D01*
X161786727Y-117058903D01*
X161696009Y-117040857D01*
X161563058Y-116988504D01*
X161522041Y-116932000D01*
X161423194Y-116840710D01*
X161340613Y-116823142D01*
X161204407Y-116773400D01*
X161159184Y-116714285D01*
X161060278Y-116622753D01*
X160978877Y-116605428D01*
X160816435Y-116552627D01*
X160749999Y-116496571D01*
X160631136Y-116404588D01*
X160568571Y-116387714D01*
X160449427Y-116336892D01*
X160387142Y-116278857D01*
X160248153Y-116185897D01*
X160168306Y-116170000D01*
X160036986Y-116116248D01*
X159998041Y-116061142D01*
X159899194Y-115969853D01*
X159816613Y-115952285D01*
X159680407Y-115902542D01*
X159635184Y-115843428D01*
X159538167Y-115759244D01*
X159417470Y-115734571D01*
X159266042Y-115694532D01*
X159199756Y-115625714D01*
X159100908Y-115534425D01*
X159018327Y-115516857D01*
X158882121Y-115467114D01*
X158836899Y-115408000D01*
X158738051Y-115316710D01*
X158655470Y-115299142D01*
X158519264Y-115249400D01*
X158474041Y-115190285D01*
X158375194Y-115098996D01*
X158292613Y-115081428D01*
X158156407Y-115031685D01*
X158111184Y-114972571D01*
X158014167Y-114888387D01*
X157893470Y-114863714D01*
X157742042Y-114823675D01*
X157675756Y-114754857D01*
X157577432Y-114665682D01*
X157484285Y-114646000D01*
X157343766Y-114599385D01*
X157292815Y-114537142D01*
X157198545Y-114440645D01*
X157144766Y-114428285D01*
X157008936Y-114380384D01*
X156929632Y-114319428D01*
X156779298Y-114228617D01*
X156688580Y-114210571D01*
X156555629Y-114158218D01*
X156514613Y-114101714D01*
X156415765Y-114010425D01*
X156333184Y-113992857D01*
X156196978Y-113943114D01*
X156151756Y-113884000D01*
X156052849Y-113792467D01*
X155971449Y-113775142D01*
X155809006Y-113722341D01*
X155742571Y-113666285D01*
X155603581Y-113573326D01*
X155523735Y-113557428D01*
X155392414Y-113503676D01*
X155353470Y-113448571D01*
X155254622Y-113357282D01*
X155172041Y-113339714D01*
X155035836Y-113289971D01*
X154990613Y-113230857D01*
X154892289Y-113141682D01*
X154799142Y-113122000D01*
X154658623Y-113075385D01*
X154607672Y-113013142D01*
X154510168Y-112927136D01*
X154400000Y-112904285D01*
X154252684Y-112861963D01*
X154192327Y-112795428D01*
X154093480Y-112704139D01*
X154010899Y-112686571D01*
X153874693Y-112636828D01*
X153829470Y-112577714D01*
X153731028Y-112488070D01*
X153640277Y-112468857D01*
X153521075Y-112441792D01*
X153492857Y-112403385D01*
X153431834Y-112336770D01*
X153284079Y-112265187D01*
X153275142Y-112262017D01*
X153124201Y-112187943D01*
X153057591Y-112112792D01*
X153057428Y-112109775D01*
X152995594Y-112051480D01*
X152883764Y-112033428D01*
X152733262Y-111992893D01*
X152668327Y-111924571D01*
X152570004Y-111835396D01*
X152476857Y-111815714D01*
X152336337Y-111769099D01*
X152285386Y-111706857D01*
X152181343Y-111624573D01*
X151979235Y-111592270D01*
X151832861Y-111580336D01*
X151792783Y-111557632D01*
X151806023Y-111549786D01*
X151865869Y-111484267D01*
X151816796Y-111414440D01*
X151688084Y-111380340D01*
X151682052Y-111380285D01*
X151548706Y-111328262D01*
X151507184Y-111271428D01*
X151408861Y-111182253D01*
X151315714Y-111162571D01*
X151175195Y-111115956D01*
X151124243Y-111053714D01*
X151026739Y-110967708D01*
X150916571Y-110944857D01*
X150769256Y-110902534D01*
X150708899Y-110836000D01*
X150610051Y-110744710D01*
X150527470Y-110727142D01*
X150391264Y-110677400D01*
X150346041Y-110618285D01*
X150247194Y-110526996D01*
X150164613Y-110509428D01*
X150028407Y-110459685D01*
X149983184Y-110400571D01*
X149884861Y-110311396D01*
X149791714Y-110291714D01*
X149651195Y-110245099D01*
X149600243Y-110182857D01*
X149502739Y-110096851D01*
X149392571Y-110074000D01*
X149245256Y-110031677D01*
X149184899Y-109965142D01*
X149086051Y-109873853D01*
X149003470Y-109856285D01*
X148867264Y-109806542D01*
X148822041Y-109747428D01*
X148723135Y-109655895D01*
X148641735Y-109638571D01*
X148479292Y-109585770D01*
X148412857Y-109529714D01*
X148288090Y-109437433D01*
X148220264Y-109420857D01*
X148107189Y-109362298D01*
X148076243Y-109312000D01*
X147978739Y-109225994D01*
X147868571Y-109203143D01*
X147721256Y-109160820D01*
X147660899Y-109094285D01*
X147562575Y-109005111D01*
X147469428Y-108985428D01*
X147328909Y-108938813D01*
X147277958Y-108876571D01*
X147183688Y-108780073D01*
X147129909Y-108767714D01*
X146994079Y-108719813D01*
X146914775Y-108658857D01*
X146764441Y-108568046D01*
X146673723Y-108550000D01*
X146540772Y-108497647D01*
X146499756Y-108441143D01*
X146400908Y-108349853D01*
X146318327Y-108332285D01*
X146182121Y-108282542D01*
X146136899Y-108223428D01*
X146039881Y-108139244D01*
X145919184Y-108114571D01*
X145767757Y-108074532D01*
X145701470Y-108005714D01*
X145602622Y-107914425D01*
X145520041Y-107896857D01*
X145383836Y-107847114D01*
X145338613Y-107788000D01*
X145239765Y-107696710D01*
X145157184Y-107679143D01*
X145020978Y-107629400D01*
X144975756Y-107570285D01*
X144877432Y-107481111D01*
X144784285Y-107461428D01*
X144643766Y-107414813D01*
X144592815Y-107352571D01*
X144495311Y-107266565D01*
X144385142Y-107243714D01*
X144237827Y-107201391D01*
X144177470Y-107134857D01*
X144078622Y-107043568D01*
X143996041Y-107026000D01*
X143859836Y-106976257D01*
X143814613Y-106917143D01*
X143715706Y-106825610D01*
X143634306Y-106808285D01*
X143471863Y-106755484D01*
X143405428Y-106699428D01*
X143266439Y-106606469D01*
X143186592Y-106590571D01*
X143055271Y-106536819D01*
X143016327Y-106481714D01*
X142917480Y-106390425D01*
X142834899Y-106372857D01*
X142698693Y-106323114D01*
X142653470Y-106264000D01*
X142556452Y-106179816D01*
X142435756Y-106155143D01*
X142284328Y-106115104D01*
X142218041Y-106046285D01*
X142126022Y-105949825D01*
X142074020Y-105937428D01*
X141944771Y-105886134D01*
X141881428Y-105828571D01*
X141738142Y-105735418D01*
X141654828Y-105719714D01*
X141542129Y-105671853D01*
X141518571Y-105610857D01*
X141455919Y-105523047D01*
X141344907Y-105502000D01*
X141194405Y-105461465D01*
X141129470Y-105393143D01*
X141032452Y-105308959D01*
X140911756Y-105284285D01*
X140760328Y-105244247D01*
X140694041Y-105175428D01*
X140595194Y-105084139D01*
X140512613Y-105066571D01*
X140376407Y-105016828D01*
X140331184Y-104957714D01*
X140232337Y-104866425D01*
X140149756Y-104848857D01*
X140013550Y-104799114D01*
X139968327Y-104740000D01*
X139870004Y-104650825D01*
X139776857Y-104631143D01*
X139636337Y-104584527D01*
X139585386Y-104522285D01*
X139487882Y-104436279D01*
X139377714Y-104413428D01*
X139230399Y-104371106D01*
X139170041Y-104304571D01*
X139071718Y-104215396D01*
X138978571Y-104195714D01*
X138838052Y-104149099D01*
X138787100Y-104086857D01*
X138692830Y-103990359D01*
X138639051Y-103978000D01*
X138503222Y-103930098D01*
X138423918Y-103869143D01*
X138269439Y-103778111D01*
X138175102Y-103760285D01*
X138060328Y-103713537D01*
X138035142Y-103651428D01*
X137972490Y-103563618D01*
X137861478Y-103542571D01*
X137710977Y-103502036D01*
X137646041Y-103433714D01*
X137549024Y-103349530D01*
X137428327Y-103324857D01*
X137276900Y-103284818D01*
X137210613Y-103216000D01*
X137111765Y-103124710D01*
X137029184Y-103107143D01*
X136892978Y-103057400D01*
X136847756Y-102998285D01*
X136749314Y-102908641D01*
X136658563Y-102889428D01*
X136539397Y-102860023D01*
X136511142Y-102818239D01*
X136449636Y-102749141D01*
X136332691Y-102702262D01*
X136160226Y-102628148D01*
X136069805Y-102555737D01*
X135929878Y-102466856D01*
X135856878Y-102454000D01*
X135725557Y-102400248D01*
X135686613Y-102345143D01*
X135587765Y-102253853D01*
X135505184Y-102236285D01*
X135368978Y-102186542D01*
X135323756Y-102127428D01*
X135224908Y-102036139D01*
X135142327Y-102018571D01*
X135006121Y-101968828D01*
X134960899Y-101909714D01*
X134863881Y-101825530D01*
X134743184Y-101800857D01*
X134591757Y-101760818D01*
X134525470Y-101692000D01*
X134426622Y-101600710D01*
X134344041Y-101583142D01*
X134207836Y-101533400D01*
X134162613Y-101474285D01*
X134065959Y-101391441D01*
X133937134Y-101365428D01*
X133802807Y-101335825D01*
X133771571Y-101276437D01*
X133724072Y-101200967D01*
X133608285Y-101160598D01*
X133446707Y-101102409D01*
X133368822Y-101031875D01*
X133253582Y-100944403D01*
X133177015Y-100930000D01*
X133043372Y-100878221D01*
X133001470Y-100821143D01*
X132902622Y-100729853D01*
X132820041Y-100712285D01*
X132683836Y-100662542D01*
X132638613Y-100603428D01*
X132539706Y-100511895D01*
X132458306Y-100494571D01*
X132295863Y-100441770D01*
X132229428Y-100385714D01*
X132090439Y-100292754D01*
X132010592Y-100276857D01*
X131879271Y-100223105D01*
X131840327Y-100168000D01*
X131741480Y-100076710D01*
X131658899Y-100059143D01*
X131522693Y-100009400D01*
X131477470Y-99950285D01*
X131380452Y-99866102D01*
X131259756Y-99841428D01*
X131108328Y-99801389D01*
X131042041Y-99732571D01*
X130943194Y-99641282D01*
X130860613Y-99623714D01*
X130724407Y-99573971D01*
X130679184Y-99514857D01*
X130580337Y-99423568D01*
X130497756Y-99406000D01*
X130361550Y-99356257D01*
X130316327Y-99297142D01*
X130217480Y-99205853D01*
X130134899Y-99188285D01*
X129998693Y-99138542D01*
X129953470Y-99079428D01*
X129856452Y-98995244D01*
X129735756Y-98970571D01*
X129584328Y-98930532D01*
X129518041Y-98861714D01*
X129419194Y-98770425D01*
X129336613Y-98752857D01*
X129200407Y-98703114D01*
X129155184Y-98644000D01*
X129056278Y-98552467D01*
X128974877Y-98535142D01*
X128812435Y-98482341D01*
X128745999Y-98426285D01*
X128627136Y-98334303D01*
X128564571Y-98317428D01*
X128445427Y-98266607D01*
X128383142Y-98208571D01*
X128244153Y-98115612D01*
X128164306Y-98099714D01*
X128032986Y-98045962D01*
X127994041Y-97990857D01*
X127895194Y-97899568D01*
X127812613Y-97882000D01*
X127676407Y-97832257D01*
X127631184Y-97773142D01*
X127534167Y-97688959D01*
X127413470Y-97664285D01*
X127262042Y-97624247D01*
X127195756Y-97555428D01*
X127096908Y-97464139D01*
X127014327Y-97446571D01*
X126878121Y-97396828D01*
X126832899Y-97337714D01*
X126734457Y-97248070D01*
X126643706Y-97228857D01*
X126524539Y-97199452D01*
X126496285Y-97157668D01*
X126434779Y-97088570D01*
X126317833Y-97041691D01*
X126145369Y-96967576D01*
X126054947Y-96895165D01*
X125915021Y-96806284D01*
X125842021Y-96793428D01*
X125710700Y-96739676D01*
X125671756Y-96684571D01*
X125572849Y-96593038D01*
X125491449Y-96575714D01*
X125329006Y-96522913D01*
X125262571Y-96466857D01*
X125123581Y-96373897D01*
X125043735Y-96358000D01*
X124912414Y-96304248D01*
X124873470Y-96249142D01*
X124775028Y-96159498D01*
X124684277Y-96140285D01*
X124564285Y-96095442D01*
X124536857Y-96031428D01*
X124474205Y-95943618D01*
X124363192Y-95922571D01*
X124212691Y-95882036D01*
X124147756Y-95813714D01*
X124048849Y-95722181D01*
X123967449Y-95704857D01*
X123805006Y-95652055D01*
X123738571Y-95596000D01*
X123599581Y-95503040D01*
X123519735Y-95487142D01*
X123388414Y-95433391D01*
X123349470Y-95378285D01*
X123250622Y-95286996D01*
X123168041Y-95269428D01*
X123031836Y-95219685D01*
X122986613Y-95160571D01*
X122887765Y-95069282D01*
X122805184Y-95051714D01*
X122668978Y-95001971D01*
X122623756Y-94942857D01*
X122526738Y-94858673D01*
X122406041Y-94834000D01*
X122254614Y-94793961D01*
X122188327Y-94725142D01*
X122088520Y-94629679D01*
X122025278Y-94616285D01*
X121878173Y-94563180D01*
X121823429Y-94512698D01*
X121691917Y-94422904D01*
X121561428Y-94385698D01*
X121419831Y-94396700D01*
X121361083Y-94505962D01*
X121354875Y-94543714D01*
X121298009Y-94705306D01*
X121227875Y-94783177D01*
X121147440Y-94894998D01*
X121125999Y-95011270D01*
X121084654Y-95160297D01*
X121017142Y-95223101D01*
X120920602Y-95320087D01*
X120908285Y-95376008D01*
X120851207Y-95473677D01*
X120799428Y-95487142D01*
X120702852Y-95526329D01*
X120690571Y-95559714D01*
X120638911Y-95667636D01*
X120520709Y-95799475D01*
X120391128Y-95900067D01*
X120327714Y-95922571D01*
X120263330Y-95981351D01*
X120255142Y-96031428D01*
X120197051Y-96127641D01*
X120146285Y-96140285D01*
X120050072Y-96198376D01*
X120037428Y-96249142D01*
X119983903Y-96345457D01*
X119937457Y-96358000D01*
X119810273Y-96409198D01*
X119747142Y-96466857D01*
X119602589Y-96560067D01*
X119518264Y-96575714D01*
X119382545Y-96625832D01*
X119337958Y-96684571D01*
X119240195Y-96765636D01*
X119089841Y-96793428D01*
X118919821Y-96825199D01*
X118825463Y-96892101D01*
X118717509Y-96955313D01*
X118490491Y-97005369D01*
X118276865Y-97028943D01*
X118010530Y-97061198D01*
X117793584Y-97108223D01*
X117678151Y-97156871D01*
X117559794Y-97209321D01*
X117465504Y-97159905D01*
X117345334Y-97112548D01*
X117124989Y-97067863D01*
X116849306Y-97034655D01*
X116812566Y-97031702D01*
X116506762Y-96996214D01*
X116284781Y-96945471D01*
X116182462Y-96891826D01*
X116053214Y-96818165D01*
X115899735Y-96793428D01*
X115736843Y-96757835D01*
X115656899Y-96684571D01*
X115558457Y-96594927D01*
X115467706Y-96575714D01*
X115348560Y-96545010D01*
X115320285Y-96501346D01*
X115260212Y-96423344D01*
X115138857Y-96358000D01*
X115004280Y-96282210D01*
X114957428Y-96214653D01*
X114898676Y-96148686D01*
X114848571Y-96140285D01*
X114752358Y-96082194D01*
X114739714Y-96031428D01*
X114681623Y-95935215D01*
X114630857Y-95922571D01*
X114534644Y-95864480D01*
X114521999Y-95813714D01*
X114463908Y-95717501D01*
X114413142Y-95704857D01*
X114317475Y-95646585D01*
X114304285Y-95593722D01*
X114245573Y-95472632D01*
X114195428Y-95440815D01*
X114099057Y-95353773D01*
X114086571Y-95305714D01*
X114028181Y-95200684D01*
X113977714Y-95170613D01*
X113888539Y-95072289D01*
X113868857Y-94979142D01*
X113822242Y-94838623D01*
X113760000Y-94787672D01*
X113675816Y-94690654D01*
X113651142Y-94569958D01*
X113611104Y-94418530D01*
X113542285Y-94352243D01*
X113459813Y-94245042D01*
X113433428Y-94033133D01*
X113406066Y-93822398D01*
X113338791Y-93663531D01*
X113324571Y-93646938D01*
X113282563Y-93578491D01*
X113252438Y-93456452D01*
X113232474Y-93260201D01*
X113220950Y-92969123D01*
X113216144Y-92562600D01*
X113215714Y-92343233D01*
X113217680Y-91889617D01*
X113224743Y-91561232D01*
X113238654Y-91338206D01*
X113261161Y-91200667D01*
X113294014Y-91128743D01*
X113324571Y-91106613D01*
X113407062Y-90998707D01*
X113433428Y-90780042D01*
X113462573Y-90553039D01*
X113542285Y-90453470D01*
X113623892Y-90353352D01*
X113651142Y-90191706D01*
X113682915Y-90017866D01*
X113760000Y-89971714D01*
X113847551Y-89908627D01*
X113868857Y-89790285D01*
X113894473Y-89653914D01*
X113943706Y-89608857D01*
X114032074Y-89550861D01*
X114060341Y-89499964D01*
X114136255Y-89379466D01*
X114278316Y-89207817D01*
X114454699Y-89017803D01*
X114633577Y-88842213D01*
X114783121Y-88713835D01*
X114870412Y-88665428D01*
X114947509Y-88606893D01*
X114957428Y-88556571D01*
X115015700Y-88460903D01*
X115068563Y-88447714D01*
X115189653Y-88389002D01*
X115221470Y-88338857D01*
X115307887Y-88242497D01*
X115355449Y-88230000D01*
X115475606Y-88179130D01*
X115537999Y-88121142D01*
X115678370Y-88034785D01*
X115803163Y-88012285D01*
X115954135Y-87972004D01*
X116019756Y-87903428D01*
X116120348Y-87824242D01*
X116347819Y-87794882D01*
X116382613Y-87794571D01*
X116625313Y-87770769D01*
X116740043Y-87697470D01*
X116745470Y-87685714D01*
X116809352Y-87623919D01*
X116959388Y-87589508D01*
X117222106Y-87577151D01*
X117287478Y-87576857D01*
X117559875Y-87570538D01*
X117714963Y-87547515D01*
X117780191Y-87501690D01*
X117787714Y-87465722D01*
X117729002Y-87344632D01*
X117678857Y-87312815D01*
X117594673Y-87215797D01*
X117570000Y-87095101D01*
X117529961Y-86943673D01*
X117461142Y-86877386D01*
X117380078Y-86779624D01*
X117352285Y-86629270D01*
X117320167Y-86459260D01*
X117252519Y-86364891D01*
X117187192Y-86254922D01*
X117138503Y-86024553D01*
X117119877Y-85839310D01*
X117089935Y-85585626D01*
X117045278Y-85407550D01*
X117001929Y-85343405D01*
X116952895Y-85258624D01*
X116924323Y-85071389D01*
X116915377Y-84822817D01*
X116925219Y-84554026D01*
X116953014Y-84306133D01*
X116997924Y-84120256D01*
X117028022Y-84061415D01*
X117096696Y-83888285D01*
X117131813Y-83617308D01*
X117134571Y-83506751D01*
X117147593Y-83242425D01*
X117190581Y-83096616D01*
X117243428Y-83051184D01*
X117324751Y-82952362D01*
X117352285Y-82797184D01*
X117386967Y-82625329D01*
X117461142Y-82543184D01*
X117543986Y-82446530D01*
X117569999Y-82317706D01*
X117607454Y-82170083D01*
X117678857Y-82134000D01*
X117767456Y-82073254D01*
X117787714Y-81986411D01*
X117837317Y-81844407D01*
X117960825Y-81672736D01*
X118005428Y-81626000D01*
X118141318Y-81476648D01*
X118217323Y-81361058D01*
X118223142Y-81338160D01*
X118281884Y-81271620D01*
X118331999Y-81263142D01*
X118428212Y-81205051D01*
X118440857Y-81154285D01*
X118481337Y-81057730D01*
X118515874Y-81045428D01*
X118609550Y-80997499D01*
X118752886Y-80877659D01*
X118803714Y-80827714D01*
X118963087Y-80690729D01*
X119100484Y-80615168D01*
X119130117Y-80610000D01*
X119253413Y-80551248D01*
X119285470Y-80501143D01*
X119382488Y-80416959D01*
X119503184Y-80392285D01*
X119654612Y-80352247D01*
X119720899Y-80283428D01*
X119824047Y-80201304D01*
X120003723Y-80174571D01*
X120204550Y-80143026D01*
X120352303Y-80067026D01*
X120353632Y-80065714D01*
X120438521Y-80015807D01*
X120590470Y-79982892D01*
X120833334Y-79964246D01*
X121190968Y-79957147D01*
X121307428Y-79956857D01*
X121699310Y-79961364D01*
X121970130Y-79976699D01*
X122143743Y-80005586D01*
X122244004Y-80050747D01*
X122261224Y-80065714D01*
X122402911Y-80137689D01*
X122610259Y-80173640D01*
X122647419Y-80174571D01*
X122868916Y-80204226D01*
X122966529Y-80283428D01*
X123065377Y-80374717D01*
X123147958Y-80392285D01*
X123284163Y-80442028D01*
X123329386Y-80501142D01*
X123428234Y-80592432D01*
X123510815Y-80610000D01*
X123647021Y-80659743D01*
X123692243Y-80718857D01*
X123789230Y-80815397D01*
X123845150Y-80827714D01*
X123942820Y-80884792D01*
X123956285Y-80936571D01*
X123995472Y-81033147D01*
X124028857Y-81045428D01*
X124128973Y-81092270D01*
X124246571Y-81190571D01*
X124353121Y-81320542D01*
X124391714Y-81408285D01*
X124450494Y-81472669D01*
X124500571Y-81480857D01*
X124596239Y-81539129D01*
X124609428Y-81591992D01*
X124667068Y-81714023D01*
X124711736Y-81742386D01*
X124807011Y-81837372D01*
X124858261Y-81957822D01*
X124916581Y-82091253D01*
X124973668Y-82134000D01*
X125031213Y-82194892D01*
X125044857Y-82281420D01*
X125092146Y-82420968D01*
X125153714Y-82470613D01*
X125234510Y-82567360D01*
X125262571Y-82713449D01*
X125296489Y-82892192D01*
X125362569Y-82997504D01*
X125423361Y-83111895D01*
X125474350Y-83318932D01*
X125496741Y-83492590D01*
X125528838Y-83721149D01*
X125576173Y-83882458D01*
X125614457Y-83932533D01*
X125659861Y-84016328D01*
X125689220Y-84207273D01*
X125703126Y-84468333D01*
X125702168Y-84762471D01*
X125686939Y-85052652D01*
X125658029Y-85301839D01*
X125616030Y-85472997D01*
X125589142Y-85518938D01*
X125514334Y-85674461D01*
X125481052Y-85927264D01*
X125480285Y-85976583D01*
X125454452Y-86246521D01*
X125381390Y-86406531D01*
X125371428Y-86415714D01*
X125289672Y-86552235D01*
X125262571Y-86707121D01*
X125226977Y-86870013D01*
X125153714Y-86949958D01*
X125069530Y-87046975D01*
X125044857Y-87167672D01*
X125004818Y-87319100D01*
X124936000Y-87385386D01*
X124839459Y-87482373D01*
X124827142Y-87538293D01*
X124770065Y-87635963D01*
X124718285Y-87649428D01*
X124630734Y-87712515D01*
X124609428Y-87830857D01*
X124645220Y-87975004D01*
X124745685Y-88012285D01*
X124906030Y-88064994D01*
X124972285Y-88121142D01*
X125111275Y-88214102D01*
X125191121Y-88230000D01*
X125322442Y-88283752D01*
X125361386Y-88338857D01*
X125460234Y-88430146D01*
X125542815Y-88447714D01*
X125679021Y-88497457D01*
X125724243Y-88556571D01*
X125822567Y-88645746D01*
X125915714Y-88665428D01*
X126056233Y-88712043D01*
X126107184Y-88774285D01*
X126204688Y-88860291D01*
X126314857Y-88883143D01*
X126462172Y-88925465D01*
X126522529Y-88992000D01*
X126621377Y-89083289D01*
X126703958Y-89100857D01*
X126840163Y-89150600D01*
X126885386Y-89209714D01*
X126984234Y-89301003D01*
X127066815Y-89318571D01*
X127203021Y-89368314D01*
X127248243Y-89427428D01*
X127345261Y-89511612D01*
X127465958Y-89536285D01*
X127617385Y-89576324D01*
X127683672Y-89645142D01*
X127782519Y-89736432D01*
X127865100Y-89754000D01*
X128001306Y-89803743D01*
X128046529Y-89862857D01*
X128144853Y-89952032D01*
X128238000Y-89971714D01*
X128378519Y-90018329D01*
X128429470Y-90080571D01*
X128528904Y-90174350D01*
X128599735Y-90189428D01*
X128752942Y-90241818D01*
X128818571Y-90298285D01*
X128957560Y-90391245D01*
X129037407Y-90407142D01*
X129168728Y-90460894D01*
X129207672Y-90516000D01*
X129306519Y-90607289D01*
X129389100Y-90624857D01*
X129525306Y-90674600D01*
X129570529Y-90733714D01*
X129667547Y-90817898D01*
X129788243Y-90842571D01*
X129939671Y-90882610D01*
X130005958Y-90951428D01*
X130104805Y-91042717D01*
X130187386Y-91060285D01*
X130323592Y-91110028D01*
X130368815Y-91169142D01*
X130467662Y-91260432D01*
X130550243Y-91278000D01*
X130686449Y-91327743D01*
X130731672Y-91386857D01*
X130828326Y-91469701D01*
X130957150Y-91495714D01*
X131104774Y-91533169D01*
X131140857Y-91604571D01*
X131202213Y-91691289D01*
X131304142Y-91707699D01*
X131395716Y-91690956D01*
X131376714Y-91665366D01*
X131317989Y-91570159D01*
X131288253Y-91362241D01*
X131286000Y-91269674D01*
X131267955Y-91018838D01*
X131210349Y-90889831D01*
X131177142Y-90868815D01*
X131115024Y-90804384D01*
X131080604Y-90653098D01*
X131068508Y-90388448D01*
X131068285Y-90331990D01*
X131051850Y-90002511D01*
X131004204Y-89793094D01*
X130970150Y-89738804D01*
X130924389Y-89638548D01*
X130887799Y-89431263D01*
X130858925Y-89104671D01*
X130836311Y-88646498D01*
X130834365Y-88593739D01*
X130811800Y-88124066D01*
X130796052Y-87939714D01*
X135930571Y-87939714D01*
X135964430Y-88119483D01*
X136039428Y-88203756D01*
X136135877Y-88295130D01*
X136148285Y-88346621D01*
X136208367Y-88430074D01*
X136285664Y-88447714D01*
X136420881Y-88498226D01*
X136464815Y-88556571D01*
X136563637Y-88637894D01*
X136718815Y-88665428D01*
X136893952Y-88701580D01*
X136988488Y-88825921D01*
X137019358Y-89062281D01*
X137019589Y-89088649D01*
X137054405Y-89296103D01*
X137128447Y-89490152D01*
X137192066Y-89692090D01*
X137230270Y-89977129D01*
X137236857Y-90156254D01*
X137256349Y-90485786D01*
X137315953Y-90684156D01*
X137345714Y-90723347D01*
X137420473Y-90867901D01*
X137454389Y-91071302D01*
X137454571Y-91086204D01*
X137484483Y-91290555D01*
X137557120Y-91442328D01*
X137563428Y-91449061D01*
X137637263Y-91592662D01*
X137671916Y-91797441D01*
X137672285Y-91819379D01*
X137703077Y-92029066D01*
X137781142Y-92122613D01*
X137861938Y-92219360D01*
X137889999Y-92365449D01*
X137927178Y-92547312D01*
X137998857Y-92656857D01*
X138091788Y-92795229D01*
X138107714Y-92874571D01*
X138160057Y-93026749D01*
X138216571Y-93092285D01*
X138309595Y-93232699D01*
X138325428Y-93313702D01*
X138374395Y-93471974D01*
X138434285Y-93553632D01*
X138524640Y-93695633D01*
X138543142Y-93778808D01*
X138601936Y-93904572D01*
X138651999Y-93936899D01*
X138743289Y-94035746D01*
X138760857Y-94118327D01*
X138810600Y-94254533D01*
X138869714Y-94299756D01*
X138966185Y-94392402D01*
X138978571Y-94444899D01*
X139037150Y-94558986D01*
X139087428Y-94590042D01*
X139178717Y-94688889D01*
X139196285Y-94771470D01*
X139246028Y-94907676D01*
X139305142Y-94952899D01*
X139401112Y-95021571D01*
X139413999Y-95054819D01*
X139464430Y-95150425D01*
X139603941Y-95326621D01*
X139814859Y-95565658D01*
X140079511Y-95849786D01*
X140380224Y-96161258D01*
X140699326Y-96482325D01*
X141019144Y-96795237D01*
X141322004Y-97082248D01*
X141590234Y-97325607D01*
X141806162Y-97507566D01*
X141952114Y-97610378D01*
X141965448Y-97617204D01*
X142196372Y-97747886D01*
X142368138Y-97884384D01*
X142411177Y-97936428D01*
X142522802Y-98019516D01*
X142566698Y-98027142D01*
X142675479Y-98085613D01*
X142705958Y-98136000D01*
X142804805Y-98227289D01*
X142887386Y-98244857D01*
X143023592Y-98294600D01*
X143068815Y-98353714D01*
X143167721Y-98445247D01*
X143249122Y-98462571D01*
X143411564Y-98515372D01*
X143477999Y-98571428D01*
X143616989Y-98664388D01*
X143696835Y-98680285D01*
X143828156Y-98734037D01*
X143867100Y-98789142D01*
X143964118Y-98873326D01*
X144084815Y-98898000D01*
X144236242Y-98938038D01*
X144302529Y-99006857D01*
X144399600Y-99091239D01*
X144519122Y-99115714D01*
X144693311Y-99158492D01*
X144784285Y-99224571D01*
X144920806Y-99306327D01*
X145075693Y-99333428D01*
X145238585Y-99369022D01*
X145318529Y-99442285D01*
X145422476Y-99524510D01*
X145607693Y-99551142D01*
X145803388Y-99581356D01*
X145940660Y-99654617D01*
X145945428Y-99660000D01*
X146077869Y-99734214D01*
X146283314Y-99768445D01*
X146308285Y-99768857D01*
X146517561Y-99797158D01*
X146661947Y-99867876D01*
X146671142Y-99877714D01*
X146816845Y-99955022D01*
X147070483Y-99986290D01*
X147100943Y-99986571D01*
X147323163Y-100004591D01*
X147489660Y-100050086D01*
X147529382Y-100075554D01*
X147638944Y-100119795D01*
X147859049Y-100162971D01*
X148155181Y-100199118D01*
X148324039Y-100212902D01*
X148661751Y-100242117D01*
X148973232Y-100279716D01*
X149210549Y-100319481D01*
X149283714Y-100337413D01*
X149464478Y-100368830D01*
X149740677Y-100389800D01*
X150081603Y-100400846D01*
X150456548Y-100402494D01*
X150834803Y-100395271D01*
X151185660Y-100379701D01*
X151478409Y-100356310D01*
X151682344Y-100325624D01*
X151762150Y-100295000D01*
X151893524Y-100243436D01*
X152156868Y-100212780D01*
X152477500Y-100204285D01*
X152854391Y-100192771D01*
X153105590Y-100156582D01*
X153243129Y-100097736D01*
X153406346Y-100031354D01*
X153653988Y-99993368D01*
X153767277Y-99988879D01*
X154025375Y-99971400D01*
X154162384Y-99919209D01*
X154192327Y-99877714D01*
X154292920Y-99798528D01*
X154520391Y-99769167D01*
X154555184Y-99768857D01*
X154797884Y-99745055D01*
X154912615Y-99671755D01*
X154918041Y-99660000D01*
X155020702Y-99577944D01*
X155197164Y-99551142D01*
X155389859Y-99519652D01*
X155523608Y-99443764D01*
X155524857Y-99442285D01*
X155666433Y-99354489D01*
X155782559Y-99333428D01*
X155964623Y-99287603D01*
X156058775Y-99224571D01*
X156214050Y-99133498D01*
X156309073Y-99115714D01*
X156474194Y-99062794D01*
X156540857Y-99006857D01*
X156679229Y-98913926D01*
X156758571Y-98898000D01*
X156910749Y-98845656D01*
X156976285Y-98789142D01*
X157120839Y-98695933D01*
X157205163Y-98680285D01*
X157340882Y-98630167D01*
X157385470Y-98571428D01*
X157484318Y-98480139D01*
X157566899Y-98462571D01*
X157703104Y-98412828D01*
X157748327Y-98353714D01*
X157847484Y-98261131D01*
X157923872Y-98244857D01*
X158067321Y-98200360D01*
X158115679Y-98154142D01*
X158251872Y-98019806D01*
X158458685Y-97891270D01*
X158590999Y-97835143D01*
X158697934Y-97776767D01*
X158717999Y-97743883D01*
X158772597Y-97675041D01*
X158910514Y-97556418D01*
X159092934Y-97416653D01*
X159281042Y-97284384D01*
X159436022Y-97188250D01*
X159514400Y-97156285D01*
X159580446Y-97097535D01*
X159588857Y-97047428D01*
X159625904Y-96950821D01*
X159657396Y-96938571D01*
X159738561Y-96889479D01*
X159888588Y-96761181D01*
X160079009Y-96582146D01*
X160281357Y-96380839D01*
X160467164Y-96185729D01*
X160607962Y-96025283D01*
X160675286Y-95927969D01*
X160677428Y-95918539D01*
X160736269Y-95857712D01*
X160786285Y-95850000D01*
X160882498Y-95791909D01*
X160895142Y-95741142D01*
X160926077Y-95644455D01*
X160952223Y-95632285D01*
X161024284Y-95577707D01*
X161145862Y-95439801D01*
X161287956Y-95257314D01*
X161421569Y-95068991D01*
X161517700Y-94913580D01*
X161548285Y-94835885D01*
X161607035Y-94769839D01*
X161657142Y-94761428D01*
X161745746Y-94700698D01*
X161765999Y-94614008D01*
X161813289Y-94474460D01*
X161874857Y-94424815D01*
X161971327Y-94332169D01*
X161983714Y-94279672D01*
X162042293Y-94165585D01*
X162092571Y-94134529D01*
X162178577Y-94037025D01*
X162201428Y-93926857D01*
X162243751Y-93779542D01*
X162310285Y-93719184D01*
X162401818Y-93620278D01*
X162419142Y-93538878D01*
X162471944Y-93376435D01*
X162527999Y-93310000D01*
X162620931Y-93171628D01*
X162636857Y-93092285D01*
X162689200Y-92940108D01*
X162745714Y-92874571D01*
X162834022Y-92732565D01*
X162854571Y-92619449D01*
X162897165Y-92472598D01*
X162963428Y-92412899D01*
X163045784Y-92307648D01*
X163072285Y-92112571D01*
X163103293Y-91905062D01*
X163181142Y-91812243D01*
X163263637Y-91704072D01*
X163289999Y-91482766D01*
X163316529Y-91267938D01*
X163382255Y-91106125D01*
X163398857Y-91086204D01*
X163472499Y-90935419D01*
X163508482Y-90694589D01*
X163510022Y-90637816D01*
X163533752Y-90400972D01*
X163590703Y-90206611D01*
X163618879Y-90157415D01*
X163683076Y-89998457D01*
X163717652Y-89722595D01*
X163725428Y-89422444D01*
X163732170Y-89096984D01*
X163762347Y-88885677D01*
X163830884Y-88757784D01*
X163952707Y-88682564D01*
X164106428Y-88637767D01*
X164250752Y-88581144D01*
X164305999Y-88518903D01*
X164366794Y-88461059D01*
X164451142Y-88447714D01*
X164568843Y-88405597D01*
X164596285Y-88346621D01*
X164654823Y-88234588D01*
X164705142Y-88203756D01*
X164787253Y-88100704D01*
X164813999Y-87921675D01*
X164753119Y-87696065D01*
X164597948Y-87474851D01*
X164389698Y-87300720D01*
X164169575Y-87216359D01*
X164130822Y-87214000D01*
X163980231Y-87177217D01*
X163943142Y-87105143D01*
X163920877Y-87057396D01*
X163839033Y-87025584D01*
X163675039Y-87006769D01*
X163406326Y-86998017D01*
X163106293Y-86996285D01*
X162732400Y-86999730D01*
X162480255Y-87011985D01*
X162326581Y-87035934D01*
X162248105Y-87074462D01*
X162227672Y-87105143D01*
X162128849Y-87186465D01*
X161973672Y-87214000D01*
X161808976Y-87245252D01*
X161722416Y-87315705D01*
X161625450Y-87417870D01*
X161543265Y-87454054D01*
X161455304Y-87505418D01*
X161413359Y-87624937D01*
X161403142Y-87836491D01*
X161442577Y-88139398D01*
X161552943Y-88348500D01*
X161722334Y-88443930D01*
X161769483Y-88447714D01*
X161898730Y-88499856D01*
X161935503Y-88551663D01*
X162028827Y-88629374D01*
X162201372Y-88677146D01*
X162215410Y-88678663D01*
X162455428Y-88701714D01*
X162476542Y-89302641D01*
X162480962Y-89627690D01*
X162464079Y-89839259D01*
X162421996Y-89967963D01*
X162385827Y-90015396D01*
X162308716Y-90169950D01*
X162274476Y-90407013D01*
X162273999Y-90439726D01*
X162246947Y-90681451D01*
X162174405Y-90834051D01*
X162165142Y-90842571D01*
X162085421Y-90977397D01*
X162056285Y-91146926D01*
X162020674Y-91340509D01*
X161947428Y-91469796D01*
X161865605Y-91621697D01*
X161838571Y-91783419D01*
X161803278Y-91949305D01*
X161729714Y-92029958D01*
X161645332Y-92127029D01*
X161620857Y-92246550D01*
X161578079Y-92420740D01*
X161511999Y-92511714D01*
X161419040Y-92650703D01*
X161403142Y-92730550D01*
X161349390Y-92861871D01*
X161294285Y-92900815D01*
X161205110Y-92999138D01*
X161185428Y-93092285D01*
X161138813Y-93232805D01*
X161076571Y-93283756D01*
X160990565Y-93381260D01*
X160967714Y-93491428D01*
X160925391Y-93638743D01*
X160858857Y-93699101D01*
X160762386Y-93791747D01*
X160749999Y-93844243D01*
X160691420Y-93958331D01*
X160641142Y-93989386D01*
X160544754Y-94077339D01*
X160532285Y-94126120D01*
X160486484Y-94234363D01*
X160371351Y-94393985D01*
X160314571Y-94459448D01*
X160182350Y-94616694D01*
X160105092Y-94732718D01*
X160096857Y-94758143D01*
X160039216Y-94833449D01*
X159987999Y-94860243D01*
X159891608Y-94948348D01*
X159879142Y-94997251D01*
X159827689Y-95087168D01*
X159687536Y-95251553D01*
X159479996Y-95470193D01*
X159226380Y-95722879D01*
X158948000Y-95989398D01*
X158666169Y-96249540D01*
X158402198Y-96483094D01*
X158177399Y-96669848D01*
X158013084Y-96789592D01*
X157958463Y-96818727D01*
X157860779Y-96895274D01*
X157847142Y-96936293D01*
X157788982Y-97004014D01*
X157746050Y-97011142D01*
X157634016Y-97069681D01*
X157603184Y-97120000D01*
X157504337Y-97211289D01*
X157421756Y-97228857D01*
X157285550Y-97278600D01*
X157240327Y-97337714D01*
X157148308Y-97434174D01*
X157096306Y-97446571D01*
X156967056Y-97497865D01*
X156903714Y-97555428D01*
X156764724Y-97648388D01*
X156684878Y-97664285D01*
X156553557Y-97718037D01*
X156514613Y-97773142D01*
X156416289Y-97862317D01*
X156323142Y-97882000D01*
X156182623Y-97928615D01*
X156131672Y-97990857D01*
X156034654Y-98075041D01*
X155913958Y-98099714D01*
X155762530Y-98139753D01*
X155696243Y-98208571D01*
X155599496Y-98289367D01*
X155453407Y-98317428D01*
X155271545Y-98354606D01*
X155162000Y-98426285D01*
X155025325Y-98508225D01*
X154871714Y-98535142D01*
X154690184Y-98572530D01*
X154581428Y-98644000D01*
X154449243Y-98720542D01*
X154257082Y-98752852D01*
X154254857Y-98752857D01*
X154062496Y-98784497D01*
X153929145Y-98860690D01*
X153928285Y-98861714D01*
X153781706Y-98939176D01*
X153524312Y-98970288D01*
X153492857Y-98970571D01*
X153225753Y-98996530D01*
X153066500Y-99069580D01*
X153057428Y-99079428D01*
X152944819Y-99145093D01*
X152728410Y-99181152D01*
X152449828Y-99191471D01*
X152139353Y-99208373D01*
X151842002Y-99249297D01*
X151642285Y-99299235D01*
X151408479Y-99353170D01*
X151055743Y-99387374D01*
X150573377Y-99402730D01*
X150372285Y-99403814D01*
X149842101Y-99394837D01*
X149445284Y-99367319D01*
X149171135Y-99320379D01*
X149102285Y-99299235D01*
X148872744Y-99243333D01*
X148570861Y-99204152D01*
X148316959Y-99191471D01*
X147981581Y-99172929D01*
X147774626Y-99120851D01*
X147713061Y-99079428D01*
X147557538Y-99004620D01*
X147304735Y-98971338D01*
X147255416Y-98970571D01*
X146985478Y-98944738D01*
X146825468Y-98871675D01*
X146816285Y-98861714D01*
X146684100Y-98785172D01*
X146491939Y-98752862D01*
X146489714Y-98752857D01*
X146297353Y-98721217D01*
X146164002Y-98645023D01*
X146163142Y-98644000D01*
X146026468Y-98562060D01*
X145872857Y-98535142D01*
X145691327Y-98497755D01*
X145582571Y-98426285D01*
X145440565Y-98337978D01*
X145327449Y-98317428D01*
X145180598Y-98274834D01*
X145120899Y-98208571D01*
X145022076Y-98127248D01*
X144866899Y-98099714D01*
X144695043Y-98065032D01*
X144612899Y-97990857D01*
X144514051Y-97899568D01*
X144431470Y-97882000D01*
X144295264Y-97832257D01*
X144250041Y-97773142D01*
X144151194Y-97681853D01*
X144068613Y-97664285D01*
X143932407Y-97614542D01*
X143887184Y-97555428D01*
X143788337Y-97464139D01*
X143705756Y-97446571D01*
X143569550Y-97396828D01*
X143524327Y-97337714D01*
X143427341Y-97241174D01*
X143371420Y-97228857D01*
X143273361Y-97192435D01*
X143260285Y-97160245D01*
X143199978Y-97080306D01*
X143047510Y-96974010D01*
X142845560Y-96868710D01*
X142734142Y-96823056D01*
X142626781Y-96736770D01*
X142607142Y-96676107D01*
X142568469Y-96585046D01*
X142540486Y-96575714D01*
X142435505Y-96524892D01*
X142257500Y-96387509D01*
X142029076Y-96186191D01*
X141772838Y-95943565D01*
X141511391Y-95682254D01*
X141267338Y-95424886D01*
X141063286Y-95194085D01*
X140921838Y-95012478D01*
X140865600Y-94902689D01*
X140865428Y-94899109D01*
X140806538Y-94841311D01*
X140756571Y-94834000D01*
X140658964Y-94785104D01*
X140645698Y-94743285D01*
X140596184Y-94638923D01*
X140475080Y-94489261D01*
X140427984Y-94440904D01*
X140292237Y-94285477D01*
X140217388Y-94156603D01*
X140212285Y-94130198D01*
X140153785Y-94020017D01*
X140103428Y-93989386D01*
X140009906Y-93890011D01*
X139994571Y-93818000D01*
X139941251Y-93686184D01*
X139885714Y-93646613D01*
X139796539Y-93548289D01*
X139776857Y-93455142D01*
X139730242Y-93314623D01*
X139667999Y-93263672D01*
X139576710Y-93164824D01*
X139559142Y-93082243D01*
X139509399Y-92946038D01*
X139450285Y-92900815D01*
X139366101Y-92803797D01*
X139341428Y-92683101D01*
X139301389Y-92531673D01*
X139232571Y-92465386D01*
X139151248Y-92366564D01*
X139123714Y-92211386D01*
X139089032Y-92039530D01*
X139014857Y-91957386D01*
X138934061Y-91860639D01*
X138905999Y-91714550D01*
X138868821Y-91532688D01*
X138797142Y-91423142D01*
X138720600Y-91290958D01*
X138688290Y-91098796D01*
X138688285Y-91096571D01*
X138656645Y-90904211D01*
X138580452Y-90770860D01*
X138579428Y-90770000D01*
X138503202Y-90629651D01*
X138470866Y-90397340D01*
X138470571Y-90370857D01*
X138443397Y-90132071D01*
X138370963Y-89980227D01*
X138361714Y-89971714D01*
X138303416Y-89850972D01*
X138265893Y-89633925D01*
X138249992Y-89368037D01*
X138256560Y-89100772D01*
X138286446Y-88879594D01*
X138339942Y-88752514D01*
X138469151Y-88691896D01*
X138661359Y-88665469D01*
X138668791Y-88665428D01*
X138863603Y-88633134D01*
X138952327Y-88556571D01*
X139026419Y-88460471D01*
X139064090Y-88447714D01*
X139187467Y-88389645D01*
X139298846Y-88258910D01*
X139341428Y-88132374D01*
X139394454Y-88009456D01*
X139432142Y-87982047D01*
X139485512Y-87934388D01*
X139432142Y-87897381D01*
X139362074Y-87799716D01*
X139341428Y-87677870D01*
X139282661Y-87508199D01*
X139167049Y-87434394D01*
X139015666Y-87355462D01*
X138945052Y-87291048D01*
X138841318Y-87227945D01*
X138738431Y-87211692D01*
X138552578Y-87166178D01*
X138438558Y-87102834D01*
X138282906Y-87042519D01*
X138035635Y-87005266D01*
X137741200Y-86991006D01*
X137444060Y-86999668D01*
X137188672Y-87031180D01*
X137019491Y-87085471D01*
X136993224Y-87105143D01*
X136836308Y-87191729D01*
X136706641Y-87214000D01*
X136531616Y-87256075D01*
X136438571Y-87322857D01*
X136315016Y-87415077D01*
X136248256Y-87431714D01*
X136158053Y-87489351D01*
X136148285Y-87532807D01*
X136089747Y-87644840D01*
X136039428Y-87675672D01*
X135957749Y-87776150D01*
X135930571Y-87939714D01*
X130796052Y-87939714D01*
X130782838Y-87785019D01*
X130748047Y-87581684D01*
G37*
G36*
X143198187Y-107182796D02*
G01*
X143309637Y-107223144D01*
X143332857Y-107280000D01*
X143395509Y-107367810D01*
X143506521Y-107388857D01*
X143657022Y-107429392D01*
X143721958Y-107497714D01*
X143820281Y-107586889D01*
X143913428Y-107606571D01*
X144053947Y-107653186D01*
X144104899Y-107715428D01*
X144204274Y-107808950D01*
X144276285Y-107824285D01*
X144408101Y-107877606D01*
X144447672Y-107933143D01*
X144544326Y-108015987D01*
X144673150Y-108042000D01*
X144820774Y-108079455D01*
X144856857Y-108150857D01*
X144919509Y-108238667D01*
X145030521Y-108259714D01*
X145181022Y-108300249D01*
X145245958Y-108368571D01*
X145344281Y-108457746D01*
X145437428Y-108477428D01*
X145577947Y-108524043D01*
X145628899Y-108586285D01*
X145726403Y-108672291D01*
X145836571Y-108695143D01*
X145983886Y-108737465D01*
X146044243Y-108804000D01*
X146143091Y-108895289D01*
X146225672Y-108912857D01*
X146361878Y-108962600D01*
X146407100Y-109021714D01*
X146505948Y-109113003D01*
X146588529Y-109130571D01*
X146724735Y-109180314D01*
X146769958Y-109239428D01*
X146866975Y-109323612D01*
X146987672Y-109348285D01*
X147139099Y-109388324D01*
X147205386Y-109457142D01*
X147304234Y-109548432D01*
X147386815Y-109566000D01*
X147523021Y-109615743D01*
X147568243Y-109674857D01*
X147667091Y-109766146D01*
X147749672Y-109783714D01*
X147885878Y-109833457D01*
X147931100Y-109892571D01*
X148027755Y-109975415D01*
X148156579Y-110001428D01*
X148304202Y-110038883D01*
X148340285Y-110110285D01*
X148402937Y-110198095D01*
X148513949Y-110219142D01*
X148664451Y-110259677D01*
X148729386Y-110328000D01*
X148828234Y-110419289D01*
X148910815Y-110436857D01*
X149047021Y-110486600D01*
X149092243Y-110545714D01*
X149189314Y-110630096D01*
X149308836Y-110654571D01*
X149510763Y-110711075D01*
X149619356Y-110875537D01*
X149633380Y-111103402D01*
X149596766Y-111274180D01*
X149504341Y-111348823D01*
X149406428Y-111367376D01*
X149244230Y-111417822D01*
X149162806Y-111494376D01*
X149067458Y-111574465D01*
X148947100Y-111598000D01*
X148795673Y-111638038D01*
X148729386Y-111706857D01*
X148632368Y-111791041D01*
X148511672Y-111815714D01*
X148360244Y-111855753D01*
X148293958Y-111924571D01*
X148196940Y-112008755D01*
X148076243Y-112033428D01*
X147924816Y-112073467D01*
X147858529Y-112142285D01*
X147761511Y-112226469D01*
X147640815Y-112251142D01*
X147489387Y-112291181D01*
X147423100Y-112360000D01*
X147326083Y-112444183D01*
X147205386Y-112468857D01*
X147053959Y-112508896D01*
X146987672Y-112577714D01*
X146890654Y-112661898D01*
X146769958Y-112686571D01*
X146618530Y-112726610D01*
X146552243Y-112795428D01*
X146455226Y-112879612D01*
X146334529Y-112904285D01*
X146183101Y-112944324D01*
X146116815Y-113013142D01*
X146019797Y-113097326D01*
X145899100Y-113122000D01*
X145747673Y-113162038D01*
X145681386Y-113230857D01*
X145584260Y-113315445D01*
X145465949Y-113339714D01*
X145325862Y-113378986D01*
X145292285Y-113448571D01*
X145227375Y-113534993D01*
X145074571Y-113557428D01*
X144901726Y-113589883D01*
X144856857Y-113666285D01*
X144792646Y-113752306D01*
X144636865Y-113775142D01*
X144458879Y-113809188D01*
X144375100Y-113884000D01*
X144278083Y-113968183D01*
X144157386Y-113992857D01*
X144005959Y-114032896D01*
X143939672Y-114101714D01*
X143842654Y-114185898D01*
X143721958Y-114210571D01*
X143570530Y-114250610D01*
X143504243Y-114319428D01*
X143407226Y-114403612D01*
X143286529Y-114428285D01*
X143135101Y-114468324D01*
X143068815Y-114537142D01*
X142971311Y-114623149D01*
X142861142Y-114646000D01*
X142713827Y-114688322D01*
X142653470Y-114754857D01*
X142556920Y-114837319D01*
X142425714Y-114863714D01*
X142270248Y-114901704D01*
X142197958Y-114972571D01*
X142099110Y-115063860D01*
X142016529Y-115081428D01*
X141880323Y-115131171D01*
X141835100Y-115190285D01*
X141738083Y-115274469D01*
X141617386Y-115299142D01*
X141465959Y-115339181D01*
X141399672Y-115408000D01*
X141301251Y-115489227D01*
X141147949Y-115516857D01*
X140980832Y-115550315D01*
X140937999Y-115625714D01*
X140873469Y-115712363D01*
X140728050Y-115734571D01*
X140558007Y-115769440D01*
X140476327Y-115843428D01*
X140378004Y-115932603D01*
X140284857Y-115952285D01*
X140144337Y-115998900D01*
X140093386Y-116061142D01*
X139994966Y-116142370D01*
X139841664Y-116170000D01*
X139674547Y-116203458D01*
X139631714Y-116278857D01*
X139567184Y-116365505D01*
X139421764Y-116387714D01*
X139251722Y-116422583D01*
X139170041Y-116496571D01*
X139073387Y-116579415D01*
X138944563Y-116605428D01*
X138796940Y-116642883D01*
X138760857Y-116714285D01*
X138697648Y-116801761D01*
X138577150Y-116823142D01*
X138422594Y-116861578D01*
X138351672Y-116932000D01*
X138254654Y-117016183D01*
X138133958Y-117040857D01*
X137982530Y-117080896D01*
X137916243Y-117149714D01*
X137819226Y-117233898D01*
X137698529Y-117258571D01*
X137547101Y-117298610D01*
X137480815Y-117367428D01*
X137383797Y-117451612D01*
X137263100Y-117476285D01*
X137111673Y-117516324D01*
X137045386Y-117585142D01*
X136948368Y-117669326D01*
X136827672Y-117694000D01*
X136676244Y-117734038D01*
X136609958Y-117802857D01*
X136512940Y-117887041D01*
X136392243Y-117911714D01*
X136240816Y-117951753D01*
X136174529Y-118020571D01*
X136077511Y-118104755D01*
X135956815Y-118129428D01*
X135805387Y-118169467D01*
X135739100Y-118238285D01*
X135642083Y-118322469D01*
X135521386Y-118347142D01*
X135369959Y-118387181D01*
X135303672Y-118456000D01*
X135206654Y-118540183D01*
X135085958Y-118564857D01*
X134934530Y-118604896D01*
X134868243Y-118673714D01*
X134771226Y-118757898D01*
X134650529Y-118782571D01*
X134499101Y-118822610D01*
X134432815Y-118891428D01*
X134333575Y-118984365D01*
X134258847Y-119000285D01*
X134099553Y-119049300D01*
X134017795Y-119109142D01*
X133856469Y-119200528D01*
X133756334Y-119218000D01*
X133614581Y-119263782D01*
X133561958Y-119326857D01*
X133464940Y-119411041D01*
X133344243Y-119435714D01*
X133192816Y-119475753D01*
X133126529Y-119544571D01*
X133029511Y-119628755D01*
X132908815Y-119653428D01*
X132757387Y-119693467D01*
X132691100Y-119762285D01*
X132591860Y-119855222D01*
X132517133Y-119871142D01*
X132356468Y-119920188D01*
X132279664Y-119976417D01*
X132128385Y-120075344D01*
X131984195Y-120129427D01*
X131844276Y-120185535D01*
X131794000Y-120241867D01*
X131731781Y-120290300D01*
X131610293Y-120306571D01*
X131455737Y-120345007D01*
X131384815Y-120415428D01*
X131285575Y-120508365D01*
X131210847Y-120524285D01*
X131046705Y-120573415D01*
X130982036Y-120620902D01*
X130840102Y-120711201D01*
X130686567Y-120767427D01*
X130542670Y-120825723D01*
X130487714Y-120888525D01*
X130427151Y-120947065D01*
X130347755Y-120959714D01*
X130181366Y-121009062D01*
X130098938Y-121068571D01*
X129956938Y-121158926D01*
X129873763Y-121177428D01*
X129747998Y-121236222D01*
X129715672Y-121286285D01*
X129618654Y-121370469D01*
X129497958Y-121395142D01*
X129346530Y-121435181D01*
X129280243Y-121504000D01*
X129183226Y-121588183D01*
X129062529Y-121612857D01*
X128911101Y-121652896D01*
X128844815Y-121721714D01*
X128747096Y-121808539D01*
X128641473Y-121830571D01*
X128491980Y-121850312D01*
X128431269Y-121879207D01*
X128433942Y-121971411D01*
X128521840Y-122137137D01*
X128677449Y-122347377D01*
X128795062Y-122481776D01*
X128910472Y-122631780D01*
X128963358Y-122750907D01*
X128963714Y-122757393D01*
X129022112Y-122862789D01*
X129072571Y-122892899D01*
X129156755Y-122989916D01*
X129181428Y-123110613D01*
X129221467Y-123262041D01*
X129290285Y-123328327D01*
X129371273Y-123425793D01*
X129399142Y-123574866D01*
X129436397Y-123766035D01*
X129508000Y-123888489D01*
X129583020Y-124045035D01*
X129616107Y-124301449D01*
X129616857Y-124351517D01*
X129638902Y-124599253D01*
X129695250Y-124797390D01*
X129723406Y-124846558D01*
X129791979Y-125021377D01*
X129826737Y-125284967D01*
X129827563Y-125584924D01*
X129794341Y-125868844D01*
X129726953Y-126084320D01*
X129726161Y-126085847D01*
X129661496Y-126283601D01*
X129622472Y-126545115D01*
X129617304Y-126666950D01*
X129600440Y-126921421D01*
X129546941Y-127055078D01*
X129508000Y-127081958D01*
X129426677Y-127180780D01*
X129399142Y-127335958D01*
X129364460Y-127507813D01*
X129290285Y-127589958D01*
X129208546Y-127690746D01*
X129181428Y-127856005D01*
X129161924Y-128002548D01*
X129111661Y-128037012D01*
X129108721Y-128035344D01*
X129034389Y-128060418D01*
X128965374Y-128176204D01*
X128889371Y-128312776D01*
X128820367Y-128362000D01*
X128748734Y-128417633D01*
X128745999Y-128438027D01*
X128696920Y-128526055D01*
X128571662Y-128676146D01*
X128403196Y-128855003D01*
X128224495Y-129029330D01*
X128068528Y-129165831D01*
X127968268Y-129231210D01*
X127958934Y-129232857D01*
X127876490Y-129290695D01*
X127848899Y-129341714D01*
X127756253Y-129438185D01*
X127703756Y-129450571D01*
X127588450Y-129508917D01*
X127560621Y-129554194D01*
X127465943Y-129637658D01*
X127317000Y-129681194D01*
X127173797Y-129725931D01*
X127131285Y-129795285D01*
X127083656Y-129857445D01*
X126903856Y-129884445D01*
X126820579Y-129886000D01*
X126576332Y-129908402D01*
X126458363Y-129977988D01*
X126449958Y-129994857D01*
X126361519Y-130044921D01*
X126162803Y-130080979D01*
X125887993Y-130103079D01*
X125571271Y-130111271D01*
X125246822Y-130105605D01*
X124948828Y-130086130D01*
X124711473Y-130052897D01*
X124568939Y-130005955D01*
X124552138Y-129992096D01*
X124418184Y-129918319D01*
X124223180Y-129886056D01*
X124215188Y-129886000D01*
X124019149Y-129853832D01*
X123930041Y-129777142D01*
X123833024Y-129692959D01*
X123712327Y-129668285D01*
X123560900Y-129628247D01*
X123494613Y-129559428D01*
X123395765Y-129468139D01*
X123313184Y-129450571D01*
X123176978Y-129400828D01*
X123131756Y-129341714D01*
X123052367Y-129245496D01*
X123010420Y-129232857D01*
X122919127Y-129181600D01*
X122767190Y-129049234D01*
X122584783Y-128867869D01*
X122402082Y-128669614D01*
X122249262Y-128486577D01*
X122156498Y-128350866D01*
X122142000Y-128308792D01*
X122083548Y-128200910D01*
X122033142Y-128170529D01*
X121941853Y-128071681D01*
X121924285Y-127989101D01*
X121874542Y-127852895D01*
X121815428Y-127807672D01*
X121731244Y-127710654D01*
X121706571Y-127589958D01*
X121666532Y-127438530D01*
X121597714Y-127372243D01*
X121515256Y-127265406D01*
X121488857Y-127056836D01*
X121460588Y-126846627D01*
X121389798Y-126702008D01*
X121380000Y-126692857D01*
X121336948Y-126631073D01*
X121306448Y-126514611D01*
X121286608Y-126322421D01*
X121275537Y-126033453D01*
X121271342Y-125626658D01*
X121271142Y-125481359D01*
X121273828Y-125032503D01*
X121283139Y-124707469D01*
X121300956Y-124485013D01*
X121329157Y-124343891D01*
X121369624Y-124262860D01*
X121380000Y-124251347D01*
X121451975Y-124109660D01*
X121487925Y-123902311D01*
X121488857Y-123865152D01*
X121518512Y-123643655D01*
X121597714Y-123546042D01*
X121681898Y-123449024D01*
X121706571Y-123328327D01*
X121746610Y-123176900D01*
X121815428Y-123110613D01*
X121912011Y-123010727D01*
X121924285Y-122952522D01*
X121972618Y-122807642D01*
X122033142Y-122727347D01*
X122120011Y-122570131D01*
X122142000Y-122442245D01*
X122142000Y-122266000D01*
X121242621Y-122266000D01*
X120853933Y-122262939D01*
X120587708Y-122252014D01*
X120421364Y-122230613D01*
X120332314Y-122196124D01*
X120301470Y-122157142D01*
X120200992Y-122075463D01*
X120037428Y-122048285D01*
X119857659Y-122014426D01*
X119773386Y-121939428D01*
X119675882Y-121853422D01*
X119565714Y-121830571D01*
X119418399Y-121788248D01*
X119358041Y-121721714D01*
X119280314Y-121625532D01*
X119239702Y-121612857D01*
X119152381Y-121563273D01*
X118997276Y-121433451D01*
X118802857Y-121251789D01*
X118597593Y-121046682D01*
X118409958Y-120846528D01*
X118268420Y-120679721D01*
X118202850Y-120578714D01*
X118128011Y-120471733D01*
X118080277Y-120451714D01*
X118014268Y-120392812D01*
X118005428Y-120340579D01*
X117946716Y-120219489D01*
X117896571Y-120187672D01*
X117810355Y-120090113D01*
X117787714Y-119981121D01*
X117742317Y-119809773D01*
X117678857Y-119726000D01*
X117603018Y-119594398D01*
X117570044Y-119401131D01*
X117570000Y-119394148D01*
X117542531Y-119211855D01*
X117475884Y-119098031D01*
X117470600Y-119094606D01*
X117408056Y-118993683D01*
X117351746Y-118791709D01*
X117321670Y-118601142D01*
X117293055Y-118342078D01*
X117275300Y-118138640D01*
X117268252Y-117952166D01*
X117271753Y-117743993D01*
X117285647Y-117475460D01*
X117309780Y-117107903D01*
X117315319Y-117026478D01*
X117348914Y-116620114D01*
X117386348Y-116345443D01*
X117429991Y-116189022D01*
X117471568Y-116139755D01*
X117540835Y-116042102D01*
X117569769Y-115840093D01*
X117570000Y-115817184D01*
X117599145Y-115590182D01*
X117678857Y-115490613D01*
X117763040Y-115393595D01*
X117787714Y-115272899D01*
X117827753Y-115121471D01*
X117896571Y-115055184D01*
X117993042Y-114962538D01*
X118005428Y-114910042D01*
X118064007Y-114795954D01*
X118114285Y-114764899D01*
X118205574Y-114666051D01*
X118223142Y-114583470D01*
X118272885Y-114447264D01*
X118332000Y-114402042D01*
X118428540Y-114305055D01*
X118440857Y-114249134D01*
X118480615Y-114151126D01*
X118515874Y-114138000D01*
X118610802Y-114090155D01*
X118752412Y-113971472D01*
X118790100Y-113934213D01*
X118951951Y-113788426D01*
X119094488Y-113691351D01*
X119114225Y-113682490D01*
X119219958Y-113606802D01*
X119239142Y-113559706D01*
X119300002Y-113499214D01*
X119386563Y-113484857D01*
X119526111Y-113437567D01*
X119575756Y-113376000D01*
X119673315Y-113289784D01*
X119782306Y-113267142D01*
X119953655Y-113221746D01*
X120037428Y-113158285D01*
X120169285Y-113082139D01*
X120362072Y-113049451D01*
X120366950Y-113049428D01*
X120610719Y-113030845D01*
X120763666Y-112981051D01*
X120800773Y-112908980D01*
X120794728Y-112896681D01*
X120843346Y-112867857D01*
X121009333Y-112845796D01*
X121264968Y-112833391D01*
X121417186Y-112831714D01*
X121771810Y-112839180D01*
X122006768Y-112863912D01*
X122146880Y-112909413D01*
X122188653Y-112940571D01*
X122336385Y-113013559D01*
X122564105Y-113048457D01*
X122610011Y-113049428D01*
X122851736Y-113076481D01*
X123004336Y-113149023D01*
X123012857Y-113158285D01*
X123154863Y-113246593D01*
X123267978Y-113267142D01*
X123414829Y-113309737D01*
X123474529Y-113376000D01*
X123571515Y-113472540D01*
X123627436Y-113484857D01*
X123725503Y-113520792D01*
X123738571Y-113552538D01*
X123798180Y-113627354D01*
X123874700Y-113663424D01*
X124008481Y-113742579D01*
X124192063Y-113896330D01*
X124395278Y-114093206D01*
X124587961Y-114301739D01*
X124739945Y-114490456D01*
X124821064Y-114627888D01*
X124827142Y-114657043D01*
X124875677Y-114768517D01*
X124935999Y-114791142D01*
X125024603Y-114851872D01*
X125044857Y-114938563D01*
X125092146Y-115078111D01*
X125153714Y-115127756D01*
X125237898Y-115224774D01*
X125262571Y-115345470D01*
X125302610Y-115496898D01*
X125371428Y-115563184D01*
X125463213Y-115662152D01*
X125480285Y-115742335D01*
X125520444Y-115860207D01*
X125605202Y-115863199D01*
X125671756Y-115770857D01*
X125768773Y-115686673D01*
X125889470Y-115662000D01*
X126040898Y-115621961D01*
X126107184Y-115553142D01*
X126204202Y-115468959D01*
X126324899Y-115444285D01*
X126476326Y-115404247D01*
X126542613Y-115335428D01*
X126639631Y-115251244D01*
X126760327Y-115226571D01*
X126911755Y-115186532D01*
X126978041Y-115117714D01*
X127075059Y-115033530D01*
X127195756Y-115008857D01*
X127347183Y-114968818D01*
X127413470Y-114900000D01*
X127510488Y-114815816D01*
X127631184Y-114791142D01*
X127782612Y-114751104D01*
X127848899Y-114682285D01*
X127945916Y-114598102D01*
X128066613Y-114573428D01*
X128218040Y-114533389D01*
X128284327Y-114464571D01*
X128381345Y-114380387D01*
X128502041Y-114355714D01*
X128653469Y-114315675D01*
X128719756Y-114246857D01*
X128816773Y-114162673D01*
X128937470Y-114138000D01*
X129088898Y-114097961D01*
X129155184Y-114029142D01*
X129252202Y-113944959D01*
X129372899Y-113920285D01*
X129524326Y-113880247D01*
X129590613Y-113811428D01*
X129687631Y-113727244D01*
X129808327Y-113702571D01*
X129959755Y-113662532D01*
X130026041Y-113593714D01*
X130123059Y-113509530D01*
X130243756Y-113484857D01*
X130395183Y-113444818D01*
X130461470Y-113376000D01*
X130558488Y-113291816D01*
X130679184Y-113267142D01*
X130830612Y-113227104D01*
X130896899Y-113158285D01*
X130993916Y-113074102D01*
X131114613Y-113049428D01*
X131266040Y-113009389D01*
X131332327Y-112940571D01*
X131429345Y-112856387D01*
X131550041Y-112831714D01*
X131701469Y-112791675D01*
X131767756Y-112722857D01*
X131864773Y-112638673D01*
X131985470Y-112614000D01*
X132136898Y-112573961D01*
X132203184Y-112505142D01*
X132300202Y-112420959D01*
X132420899Y-112396285D01*
X132572326Y-112356247D01*
X132638613Y-112287428D01*
X132736117Y-112201422D01*
X132846285Y-112178571D01*
X132992719Y-112138345D01*
X133051949Y-112074948D01*
X133146627Y-111991484D01*
X133295571Y-111947948D01*
X133438773Y-111903211D01*
X133481285Y-111833857D01*
X133530359Y-111765589D01*
X133683134Y-111743142D01*
X133861120Y-111709097D01*
X133944899Y-111634285D01*
X134041916Y-111550102D01*
X134162613Y-111525428D01*
X134314040Y-111485389D01*
X134380327Y-111416571D01*
X134477345Y-111332387D01*
X134598041Y-111307714D01*
X134749469Y-111267675D01*
X134815756Y-111198857D01*
X134912773Y-111114673D01*
X135033470Y-111090000D01*
X135184898Y-111049961D01*
X135251184Y-110981142D01*
X135348202Y-110896959D01*
X135468899Y-110872285D01*
X135620326Y-110832247D01*
X135686613Y-110763428D01*
X135784117Y-110677422D01*
X135894285Y-110654571D01*
X136041600Y-110612248D01*
X136101958Y-110545714D01*
X136198612Y-110462870D01*
X136327436Y-110436857D01*
X136472859Y-110400896D01*
X136511142Y-110332598D01*
X136577988Y-110248212D01*
X136746999Y-110205598D01*
X136911782Y-110164696D01*
X136964998Y-110093693D01*
X136964714Y-110092142D01*
X137013787Y-110023875D01*
X137166563Y-110001428D01*
X137344548Y-109967383D01*
X137428327Y-109892571D01*
X137525453Y-109807983D01*
X137643764Y-109783714D01*
X137783851Y-109744442D01*
X137817428Y-109674857D01*
X137881958Y-109588208D01*
X138027378Y-109566000D01*
X138197420Y-109531131D01*
X138279100Y-109457142D01*
X138378007Y-109365610D01*
X138459407Y-109348285D01*
X138621850Y-109295484D01*
X138688285Y-109239428D01*
X138830292Y-109151120D01*
X138943407Y-109130571D01*
X139090258Y-109087977D01*
X139149958Y-109021714D01*
X139246975Y-108937530D01*
X139367672Y-108912857D01*
X139519099Y-108872818D01*
X139585386Y-108804000D01*
X139683710Y-108714825D01*
X139776857Y-108695143D01*
X139917376Y-108648527D01*
X139968327Y-108586285D01*
X140066748Y-108505058D01*
X140220050Y-108477428D01*
X140387167Y-108443970D01*
X140429999Y-108368571D01*
X140494530Y-108281922D01*
X140639949Y-108259714D01*
X140809992Y-108224845D01*
X140891672Y-108150857D01*
X140988326Y-108068013D01*
X141117150Y-108042000D01*
X141264774Y-108004545D01*
X141300857Y-107933143D01*
X141363443Y-107845295D01*
X141473399Y-107824285D01*
X141646938Y-107780940D01*
X141736285Y-107715428D01*
X141880839Y-107622218D01*
X141965163Y-107606571D01*
X142100882Y-107556453D01*
X142145470Y-107497714D01*
X142243890Y-107416486D01*
X142397192Y-107388857D01*
X142564309Y-107355399D01*
X142607142Y-107280000D01*
X142645988Y-107211543D01*
X142780480Y-107178108D01*
X142969999Y-107171143D01*
X143198187Y-107182796D01*
G37*
G36*
X176207714Y-128761142D02*
G01*
X176171428Y-128797428D01*
X176135142Y-128761142D01*
X176171428Y-128724857D01*
X176207714Y-128761142D01*
G37*
G36*
X168048237Y-130473477D02*
G01*
X166810389Y-130472804D01*
X165572541Y-130472132D01*
X164125706Y-127736440D01*
X162678870Y-125000748D01*
X162662104Y-127737112D01*
X162645338Y-130473477D01*
X160524693Y-130473477D01*
X160524693Y-122113983D01*
X161762541Y-122114498D01*
X163000389Y-122115012D01*
X164447225Y-124856036D01*
X165894060Y-127597060D01*
X165910827Y-124855521D01*
X165927593Y-122113983D01*
X168048237Y-122113983D01*
X168048237Y-130473477D01*
G37*
G36*
X135992794Y-122022353D02*
G01*
X136515756Y-122027960D01*
X136939767Y-122043507D01*
X137294375Y-122073638D01*
X137609129Y-122122997D01*
X137913576Y-122196227D01*
X138237265Y-122297972D01*
X138609742Y-122432876D01*
X138613174Y-122434167D01*
X138982921Y-122573350D01*
X138982921Y-123436831D01*
X138979058Y-123753239D01*
X138968469Y-124017580D01*
X138952659Y-124206364D01*
X138933130Y-124296102D01*
X138927673Y-124300312D01*
X138847321Y-124274920D01*
X138681799Y-124207332D01*
X138462156Y-124110436D01*
X138384393Y-124074827D01*
X137704753Y-123811165D01*
X137027112Y-123656067D01*
X136311915Y-123601667D01*
X136024946Y-123605660D01*
X135675636Y-123622323D01*
X135418679Y-123647542D01*
X135217842Y-123687647D01*
X135036891Y-123748968D01*
X134924065Y-123797993D01*
X134460372Y-124077830D01*
X134086102Y-124447896D01*
X133803828Y-124903571D01*
X133616122Y-125440234D01*
X133525555Y-126053262D01*
X133517098Y-126325882D01*
X133566874Y-126950972D01*
X133712285Y-127516334D01*
X133947457Y-128011246D01*
X134266516Y-128424984D01*
X134663586Y-128746823D01*
X134917813Y-128882905D01*
X135176574Y-128963083D01*
X135521563Y-129020074D01*
X135912086Y-129051445D01*
X136307449Y-129054763D01*
X136666958Y-129027596D01*
X136839176Y-128997776D01*
X137182415Y-128920962D01*
X137182415Y-127258287D01*
X135832035Y-127258287D01*
X135832035Y-125843603D01*
X139240136Y-125843603D01*
X139240136Y-129949698D01*
X138724528Y-130148538D01*
X138262618Y-130316385D01*
X137846191Y-130441242D01*
X137439323Y-130529638D01*
X137006093Y-130588100D01*
X136510579Y-130623159D01*
X136024946Y-130639191D01*
X135537980Y-130645816D01*
X135154417Y-130641136D01*
X134849456Y-130623979D01*
X134598291Y-130593171D01*
X134449503Y-130564693D01*
X133757913Y-130347841D01*
X133119086Y-130015646D01*
X132545319Y-129574843D01*
X132416606Y-129451583D01*
X132007781Y-128988421D01*
X131695266Y-128503811D01*
X131471572Y-127977660D01*
X131329211Y-127389877D01*
X131260696Y-126720367D01*
X131251763Y-126325882D01*
X131283419Y-125611063D01*
X131383565Y-124988894D01*
X131559965Y-124438655D01*
X131820387Y-123939625D01*
X132172597Y-123471086D01*
X132421150Y-123205982D01*
X132766179Y-122888706D01*
X133091829Y-122651290D01*
X133388491Y-122486849D01*
X133710776Y-122335934D01*
X133997579Y-122220893D01*
X134274818Y-122137102D01*
X134568408Y-122079941D01*
X134904268Y-122044786D01*
X135308313Y-122027015D01*
X135806462Y-122022005D01*
X135992794Y-122022353D01*
G37*
G36*
X150420202Y-125233259D02*
G01*
X150484564Y-124924028D01*
X150729242Y-124232636D01*
X151070341Y-123624456D01*
X151503665Y-123103683D01*
X152025017Y-122674511D01*
X152630199Y-122341136D01*
X153297556Y-122112183D01*
X153737751Y-122031788D01*
X154256038Y-121988077D01*
X154807255Y-121981017D01*
X155346239Y-122010573D01*
X155827828Y-122076716D01*
X155997065Y-122114115D01*
X156682273Y-122348587D01*
X157287434Y-122682563D01*
X157807952Y-123111398D01*
X158239229Y-123630445D01*
X158576668Y-124235058D01*
X158815673Y-124920591D01*
X158830030Y-124977279D01*
X158888196Y-125287050D01*
X158924039Y-125665560D01*
X158939613Y-126137853D01*
X158940656Y-126325882D01*
X158910010Y-127066787D01*
X158813860Y-127711303D01*
X158645884Y-128277220D01*
X158399764Y-128782329D01*
X158069178Y-129244420D01*
X157800318Y-129535801D01*
X157350424Y-129926348D01*
X156871725Y-130222008D01*
X156327878Y-130442973D01*
X155997065Y-130537649D01*
X155580259Y-130613596D01*
X155085619Y-130657369D01*
X154555886Y-130668984D01*
X154033803Y-130648456D01*
X153562112Y-130595801D01*
X153272509Y-130536654D01*
X152586926Y-130297875D01*
X151987764Y-129963975D01*
X151476110Y-129536054D01*
X151053053Y-129015210D01*
X150719682Y-128402545D01*
X150481983Y-127717643D01*
X150401444Y-127297003D01*
X150355037Y-126795311D01*
X150342720Y-126255501D01*
X150345854Y-126178371D01*
X152619313Y-126178371D01*
X152632871Y-126738661D01*
X152715987Y-127285467D01*
X152871190Y-127797118D01*
X153018745Y-128113082D01*
X153275933Y-128497957D01*
X153573727Y-128773808D01*
X153930535Y-128951106D01*
X154364768Y-129040322D01*
X154676498Y-129055971D01*
X154971603Y-129047807D01*
X155194961Y-129011868D01*
X155402344Y-128937079D01*
X155493507Y-128893709D01*
X155889949Y-128628649D01*
X156204008Y-128268878D01*
X156436350Y-127812935D01*
X156587643Y-127259358D01*
X156658553Y-126606686D01*
X156664564Y-126325882D01*
X156624575Y-125648853D01*
X156506417Y-125061233D01*
X156312801Y-124566811D01*
X156046440Y-124169376D01*
X155710046Y-123872718D01*
X155306332Y-123680625D01*
X154838011Y-123596888D01*
X154708650Y-123593329D01*
X154301771Y-123612789D01*
X153980073Y-123677730D01*
X153704856Y-123799092D01*
X153506421Y-123933139D01*
X153210108Y-124235787D01*
X152970713Y-124633305D01*
X152790763Y-125104022D01*
X152672787Y-125626268D01*
X152619313Y-126178371D01*
X150345854Y-126178371D01*
X150364455Y-125720506D01*
X150420202Y-125233259D01*
G37*
G36*
X140710329Y-125233259D02*
G01*
X140774690Y-124924028D01*
X141019369Y-124232636D01*
X141360468Y-123624456D01*
X141793792Y-123103683D01*
X142315143Y-122674511D01*
X142920325Y-122341136D01*
X143587683Y-122112183D01*
X144027877Y-122031788D01*
X144546165Y-121988077D01*
X145097382Y-121981017D01*
X145636366Y-122010573D01*
X146117954Y-122076716D01*
X146287192Y-122114115D01*
X146972399Y-122348587D01*
X147577561Y-122682563D01*
X148098078Y-123111398D01*
X148529355Y-123630445D01*
X148866795Y-124235058D01*
X149105799Y-124920591D01*
X149120157Y-124977279D01*
X149178322Y-125287050D01*
X149214165Y-125665560D01*
X149229739Y-126137853D01*
X149230782Y-126325882D01*
X149200137Y-127066787D01*
X149103986Y-127711303D01*
X148936011Y-128277220D01*
X148689890Y-128782329D01*
X148359304Y-129244420D01*
X148090445Y-129535801D01*
X147640551Y-129926348D01*
X147161851Y-130222008D01*
X146618004Y-130442973D01*
X146287192Y-130537649D01*
X145870386Y-130613596D01*
X145375745Y-130657369D01*
X144846012Y-130668984D01*
X144323929Y-130648456D01*
X143852239Y-130595801D01*
X143562635Y-130536654D01*
X142877053Y-130297875D01*
X142277891Y-129963975D01*
X141766236Y-129536054D01*
X141343180Y-129015210D01*
X141009808Y-128402545D01*
X140772109Y-127717643D01*
X140691571Y-127297003D01*
X140645163Y-126795311D01*
X140632847Y-126255501D01*
X140635981Y-126178371D01*
X142909440Y-126178371D01*
X142922997Y-126738661D01*
X143006113Y-127285467D01*
X143161317Y-127797118D01*
X143308871Y-128113082D01*
X143566060Y-128497957D01*
X143863854Y-128773808D01*
X144220662Y-128951106D01*
X144654895Y-129040322D01*
X144966624Y-129055971D01*
X145261730Y-129047807D01*
X145485088Y-129011868D01*
X145692471Y-128937079D01*
X145783633Y-128893709D01*
X146180075Y-128628649D01*
X146494134Y-128268878D01*
X146726477Y-127812935D01*
X146877770Y-127259358D01*
X146948680Y-126606686D01*
X146954691Y-126325882D01*
X146914702Y-125648853D01*
X146796543Y-125061233D01*
X146602927Y-124566811D01*
X146336566Y-124169376D01*
X146000173Y-123872718D01*
X145596459Y-123680625D01*
X145128137Y-123596888D01*
X144998776Y-123593329D01*
X144591897Y-123612789D01*
X144270199Y-123677730D01*
X143994982Y-123799092D01*
X143796548Y-123933139D01*
X143500235Y-124235787D01*
X143260839Y-124633305D01*
X143080889Y-125104022D01*
X142962914Y-125626268D01*
X142909440Y-126178371D01*
X140635981Y-126178371D01*
X140654582Y-125720506D01*
X140710329Y-125233259D01*
G37*
%TD*%
M02*
