%TF.GenerationSoftware,KiCad,Pcbnew,6.0.6-3a73a75311~116~ubuntu21.10.1*%
%TF.CreationDate,2023-05-16T20:40:28-06:00*%
%TF.ProjectId,goon,676f6f6e-2e6b-4696-9361-645f70636258,rev?*%
%TF.SameCoordinates,Original*%
%TF.FileFunction,Copper,L2,Bot*%
%TF.FilePolarity,Positive*%
%FSLAX46Y46*%
G04 Gerber Fmt 4.6, Leading zero omitted, Abs format (unit mm)*
G04 Created by KiCad (PCBNEW 6.0.6-3a73a75311~116~ubuntu21.10.1) date 2023-05-16 20:40:28*
%MOMM*%
%LPD*%
G01*
G04 APERTURE LIST*
G04 Aperture macros list*
%AMRoundRect*
0 Rectangle with rounded corners*
0 $1 Rounding radius*
0 $2 $3 $4 $5 $6 $7 $8 $9 X,Y pos of 4 corners*
0 Add a 4 corners polygon primitive as box body*
4,1,4,$2,$3,$4,$5,$6,$7,$8,$9,$2,$3,0*
0 Add four circle primitives for the rounded corners*
1,1,$1+$1,$2,$3*
1,1,$1+$1,$4,$5*
1,1,$1+$1,$6,$7*
1,1,$1+$1,$8,$9*
0 Add four rect primitives between the rounded corners*
20,1,$1+$1,$2,$3,$4,$5,0*
20,1,$1+$1,$4,$5,$6,$7,0*
20,1,$1+$1,$6,$7,$8,$9,0*
20,1,$1+$1,$8,$9,$2,$3,0*%
G04 Aperture macros list end*
%TA.AperFunction,SMDPad,CuDef*%
%ADD10R,2.600000X1.500000*%
%TD*%
%TA.AperFunction,SMDPad,CuDef*%
%ADD11RoundRect,0.250000X-0.625000X0.400000X-0.625000X-0.400000X0.625000X-0.400000X0.625000X0.400000X0*%
%TD*%
%TA.AperFunction,SMDPad,CuDef*%
%ADD12R,5.100000X5.100000*%
%TD*%
%TA.AperFunction,SMDPad,CuDef*%
%ADD13C,17.800000*%
%TD*%
%TA.AperFunction,Conductor*%
%ADD14C,0.250000*%
%TD*%
G04 APERTURE END LIST*
D10*
%TO.P,D1,1,K*%
%TO.N,GND*%
X144100000Y-77675000D03*
%TO.P,D1,2,A*%
%TO.N,Net-(D1-Pad2)*%
X144100000Y-83175000D03*
%TD*%
%TO.P,D2,1,K*%
%TO.N,GND*%
X157450000Y-77675000D03*
%TO.P,D2,2,A*%
%TO.N,Net-(D1-Pad2)*%
X157450000Y-83175000D03*
%TD*%
D11*
%TO.P,R1,2*%
%TO.N,Net-(BT1-Pad1)*%
X172725000Y-101625000D03*
%TO.P,R1,1*%
%TO.N,Net-(D1-Pad2)*%
X172725000Y-98525000D03*
%TD*%
D12*
%TO.P,BT1,1,+*%
%TO.N,Net-(BT1-Pad1)*%
X137550000Y-129200000D03*
X163150000Y-129200000D03*
D13*
%TO.P,BT1,2,-*%
%TO.N,GND*%
X150350000Y-129200000D03*
%TD*%
D14*
%TO.N,GND*%
X157450000Y-77675000D02*
X157450000Y-76275000D01*
X144100000Y-77675000D02*
X144100000Y-76275000D01*
%TO.N,Net-(BT1-Pad1)*%
X163150000Y-129175000D02*
X172825000Y-119500000D01*
X172825000Y-119500000D02*
X172825000Y-101725000D01*
%TO.N,Net-(D1-Pad2)*%
X157450000Y-83250000D02*
X172725000Y-98525000D01*
X144100000Y-83175000D02*
X157450000Y-83175000D01*
%TD*%
%TA.AperFunction,Conductor*%
%TO.N,GND*%
G36*
X151736316Y-58897593D02*
G01*
X151740053Y-58897697D01*
X151825327Y-58901345D01*
X152104028Y-58913270D01*
X152107946Y-58913499D01*
X154295762Y-59076082D01*
X154299188Y-59076385D01*
X154643544Y-59111667D01*
X154655612Y-59112903D01*
X154659760Y-59113398D01*
X156843345Y-59410571D01*
X156846607Y-59411058D01*
X156939228Y-59426142D01*
X157188110Y-59466675D01*
X157192370Y-59467446D01*
X159370559Y-59900714D01*
X159373571Y-59901352D01*
X159692475Y-59972928D01*
X159696962Y-59974021D01*
X161868793Y-60545817D01*
X161871549Y-60546576D01*
X161979208Y-60577548D01*
X162159995Y-60629559D01*
X162164584Y-60630976D01*
X164261926Y-61322575D01*
X164329850Y-61344973D01*
X164332347Y-61345826D01*
X164581769Y-61433906D01*
X164586503Y-61435685D01*
X166745867Y-62297184D01*
X166748105Y-62298102D01*
X166949277Y-62382873D01*
X166954088Y-62385020D01*
X169109760Y-63401700D01*
X169111591Y-63402583D01*
X169253993Y-63472808D01*
X169258869Y-63475346D01*
X171415008Y-64658245D01*
X171416735Y-64659211D01*
X171469466Y-64689227D01*
X171472686Y-64691123D01*
X171524593Y-64722746D01*
X171526208Y-64723747D01*
X173606114Y-66036069D01*
X173610666Y-66039082D01*
X173741062Y-66129541D01*
X173742832Y-66130792D01*
X175677103Y-67523268D01*
X175681312Y-67526433D01*
X175853024Y-67661315D01*
X175854808Y-67662745D01*
X176729566Y-68377452D01*
X177655236Y-69133757D01*
X177659087Y-69137034D01*
X177857041Y-69312477D01*
X177858998Y-69314248D01*
X179533229Y-70861891D01*
X179536710Y-70865235D01*
X179749124Y-71077279D01*
X179751086Y-71079282D01*
X181304136Y-72701619D01*
X181307241Y-72704984D01*
X181524476Y-72949231D01*
X181526493Y-72951556D01*
X182961426Y-74646567D01*
X182964209Y-74649973D01*
X183178386Y-74921655D01*
X183180390Y-74924266D01*
X184476610Y-76660115D01*
X184498937Y-76690015D01*
X184501381Y-76693404D01*
X184706113Y-76987427D01*
X184708080Y-76990337D01*
X185287779Y-77874526D01*
X185910898Y-78824941D01*
X185913016Y-78828285D01*
X186103094Y-79139072D01*
X186104990Y-79142279D01*
X187093216Y-80871312D01*
X187191930Y-81044026D01*
X187193724Y-81047275D01*
X187265480Y-81181945D01*
X187365078Y-81368869D01*
X187366884Y-81372391D01*
X188024334Y-82705568D01*
X188248754Y-83160646D01*
X188337135Y-83339866D01*
X188338647Y-83343043D01*
X188488080Y-83668683D01*
X188489759Y-83672508D01*
X189341965Y-85704790D01*
X189343201Y-85707848D01*
X189468595Y-86030297D01*
X189470091Y-86034355D01*
X189957295Y-87429490D01*
X190202285Y-88131035D01*
X190203265Y-88133954D01*
X190303463Y-88445100D01*
X190304796Y-88449517D01*
X190743032Y-90003381D01*
X190914396Y-90610993D01*
X190915141Y-90613754D01*
X190990042Y-90904424D01*
X190991159Y-90909131D01*
X191474898Y-93137096D01*
X191475431Y-93139680D01*
X191526140Y-93399344D01*
X191527010Y-93404326D01*
X191880683Y-95702182D01*
X191881028Y-95704577D01*
X191910082Y-95920887D01*
X191910674Y-95926131D01*
X192128747Y-98299404D01*
X192128930Y-98301595D01*
X192140696Y-98459922D01*
X192140983Y-98465412D01*
X192168789Y-99375500D01*
X192212900Y-100819247D01*
X192216083Y-100923433D01*
X192216128Y-100925414D01*
X192217032Y-100986401D01*
X192217038Y-100989695D01*
X192216302Y-101054601D01*
X192216271Y-101056263D01*
X192175808Y-102601500D01*
X192162648Y-103104058D01*
X192162602Y-103105488D01*
X192159394Y-103190929D01*
X192159199Y-103194661D01*
X192155113Y-103255378D01*
X192154964Y-103257352D01*
X191951328Y-105708036D01*
X191950754Y-105713503D01*
X191930726Y-105870935D01*
X191930429Y-105873114D01*
X191588438Y-108231782D01*
X191587572Y-108236988D01*
X191547238Y-108451474D01*
X191546768Y-108453847D01*
X191073310Y-110730084D01*
X191072188Y-110734980D01*
X191007966Y-110991602D01*
X191007299Y-110994155D01*
X190407606Y-113193804D01*
X190406244Y-113198446D01*
X190316255Y-113484725D01*
X190315367Y-113487442D01*
X189593461Y-115614110D01*
X189591901Y-115618444D01*
X189475559Y-115923913D01*
X189474462Y-115926692D01*
X189031466Y-117009517D01*
X188633520Y-117982227D01*
X188631784Y-117986267D01*
X188489697Y-118301689D01*
X188488316Y-118304652D01*
X187530886Y-120289609D01*
X187529054Y-120293252D01*
X187362750Y-120610689D01*
X187361084Y-120613762D01*
X186289176Y-122527791D01*
X186287203Y-122531188D01*
X186099282Y-122843324D01*
X186097326Y-122846467D01*
X185220162Y-124210172D01*
X184912306Y-124688787D01*
X184910237Y-124691900D01*
X184704177Y-124992281D01*
X184701887Y-124995510D01*
X183404692Y-126764660D01*
X183402572Y-126767468D01*
X183182731Y-127050376D01*
X183180117Y-127053627D01*
X181770960Y-128747953D01*
X181768857Y-128750416D01*
X181718481Y-128807860D01*
X181540729Y-129010546D01*
X181537772Y-129013801D01*
X180016108Y-130631379D01*
X180013971Y-130633596D01*
X179784253Y-130866138D01*
X179780948Y-130869363D01*
X178145084Y-132408230D01*
X178143075Y-132410076D01*
X178033426Y-132508631D01*
X177919834Y-132610730D01*
X177916185Y-132613886D01*
X177505688Y-132955292D01*
X176163297Y-134071747D01*
X176161251Y-134073413D01*
X175954347Y-134238287D01*
X175950329Y-134241359D01*
X175533786Y-134546781D01*
X174233727Y-135500024D01*
X174075449Y-135616078D01*
X174073485Y-135617489D01*
X173895008Y-135743158D01*
X173890651Y-135746092D01*
X173450750Y-136029046D01*
X171886103Y-137035460D01*
X171884243Y-137036633D01*
X171749354Y-137120105D01*
X171744617Y-137122895D01*
X170757762Y-137675561D01*
X169598990Y-138324504D01*
X169597283Y-138325443D01*
X169543749Y-138354328D01*
X169540456Y-138356043D01*
X169486003Y-138383370D01*
X169484414Y-138384152D01*
X167924821Y-139136410D01*
X167269353Y-139452570D01*
X167264351Y-139454849D01*
X167118545Y-139517493D01*
X167116575Y-139518320D01*
X164910642Y-140420791D01*
X164905725Y-140422684D01*
X164700396Y-140496809D01*
X164698152Y-140497594D01*
X163307009Y-140969824D01*
X162496616Y-141244915D01*
X162491795Y-141246444D01*
X162238127Y-141321343D01*
X162235589Y-141322064D01*
X160981243Y-141664038D01*
X160417732Y-141817669D01*
X160035912Y-141921765D01*
X160031227Y-141922946D01*
X159738864Y-141990713D01*
X159736123Y-141991315D01*
X158866357Y-142172227D01*
X157537270Y-142448677D01*
X157532732Y-142449534D01*
X157210549Y-142504316D01*
X157207508Y-142504795D01*
X155009655Y-142823469D01*
X155005292Y-142824024D01*
X154661373Y-142861690D01*
X154658098Y-142862005D01*
X152464116Y-143044311D01*
X152461961Y-143044490D01*
X152457791Y-143044767D01*
X152099929Y-143062582D01*
X152096437Y-143062708D01*
X151275649Y-143080617D01*
X149903197Y-143110564D01*
X149899238Y-143110588D01*
X149534975Y-143107091D01*
X149531238Y-143107000D01*
X148014545Y-143047409D01*
X147342443Y-143021002D01*
X147338742Y-143020802D01*
X146975200Y-142995699D01*
X146971338Y-142995371D01*
X145807765Y-142878206D01*
X144788639Y-142775585D01*
X144785144Y-142775184D01*
X144429786Y-142729347D01*
X144425651Y-142728744D01*
X142250581Y-142374511D01*
X142247333Y-142373938D01*
X141907438Y-142309406D01*
X141903132Y-142308510D01*
X140193961Y-141921765D01*
X139737060Y-141818379D01*
X139734118Y-141817675D01*
X139588729Y-141781021D01*
X139417143Y-141737762D01*
X139412687Y-141736551D01*
X137990645Y-141322064D01*
X137256569Y-141108100D01*
X137253877Y-141107283D01*
X136967677Y-141016769D01*
X136963161Y-141015245D01*
X135785475Y-140592413D01*
X134817331Y-140244813D01*
X134814858Y-140243896D01*
X134636463Y-140175596D01*
X134567766Y-140149294D01*
X134563128Y-140147411D01*
X132995609Y-139473952D01*
X132426998Y-139229657D01*
X132424785Y-139228681D01*
X132225933Y-139138687D01*
X132221172Y-139136410D01*
X130092890Y-138063667D01*
X130090935Y-138062661D01*
X130078199Y-138055960D01*
X129950518Y-137988784D01*
X129945745Y-137986138D01*
X127821445Y-136747284D01*
X127819744Y-136746274D01*
X127767656Y-136714791D01*
X127764486Y-136712810D01*
X127713398Y-136679823D01*
X127711743Y-136678736D01*
X126743666Y-136031887D01*
X143883653Y-136031887D01*
X143883677Y-136032226D01*
X143889500Y-136040858D01*
X144222715Y-136345660D01*
X144225846Y-136348344D01*
X144696614Y-136726175D01*
X144699897Y-136728640D01*
X145194088Y-137075319D01*
X145197515Y-137077562D01*
X145713060Y-137391635D01*
X145716595Y-137393635D01*
X146251368Y-137673802D01*
X146255006Y-137675561D01*
X146806712Y-137920619D01*
X146810502Y-137922158D01*
X147376872Y-138131103D01*
X147380737Y-138132389D01*
X147959415Y-138304350D01*
X147963356Y-138305384D01*
X148551917Y-138439642D01*
X148555912Y-138440419D01*
X149151930Y-138536419D01*
X149155969Y-138536936D01*
X149756918Y-138594272D01*
X149760987Y-138594528D01*
X150364384Y-138612964D01*
X150368470Y-138612956D01*
X150971812Y-138592414D01*
X150975856Y-138592145D01*
X151576622Y-138532710D01*
X151580658Y-138532179D01*
X152176321Y-138434102D01*
X152180324Y-138433309D01*
X152768425Y-138296995D01*
X152772345Y-138295952D01*
X153350442Y-138121964D01*
X153354275Y-138120674D01*
X153919914Y-137909753D01*
X153923707Y-137908197D01*
X154474544Y-137661219D01*
X154478205Y-137659433D01*
X155011987Y-137377406D01*
X155015493Y-137375406D01*
X155529963Y-137059521D01*
X155533360Y-137057280D01*
X156026367Y-136708858D01*
X156029591Y-136706420D01*
X156499100Y-136326897D01*
X156502167Y-136324250D01*
X156807854Y-136042663D01*
X156816032Y-136029046D01*
X156816018Y-136028587D01*
X156810673Y-136019883D01*
X150362812Y-129572022D01*
X150348868Y-129564408D01*
X150347035Y-129564539D01*
X150340420Y-129568790D01*
X143891267Y-136017943D01*
X143883653Y-136031887D01*
X126743666Y-136031887D01*
X125666992Y-135312476D01*
X125662560Y-135309373D01*
X125534523Y-135215493D01*
X125532847Y-135214241D01*
X123635619Y-133771555D01*
X123631532Y-133768309D01*
X123463498Y-133629052D01*
X123461650Y-133627491D01*
X121700354Y-132109862D01*
X121696604Y-132106497D01*
X121503274Y-131925898D01*
X121501402Y-131924113D01*
X121342942Y-131769748D01*
X134799500Y-131769748D01*
X134811133Y-131828231D01*
X134855448Y-131894552D01*
X134921769Y-131938867D01*
X134933938Y-131941288D01*
X134933939Y-131941288D01*
X134974184Y-131949293D01*
X134980252Y-131950500D01*
X140119748Y-131950500D01*
X140125816Y-131949293D01*
X140166061Y-131941288D01*
X140166062Y-131941288D01*
X140178231Y-131938867D01*
X140244552Y-131894552D01*
X140288867Y-131828231D01*
X140300500Y-131769748D01*
X140300500Y-129411514D01*
X140939403Y-129411514D01*
X140939495Y-129415588D01*
X140972667Y-130018368D01*
X140973022Y-130022420D01*
X141045028Y-130621822D01*
X141045638Y-130625812D01*
X141156173Y-131219317D01*
X141157045Y-131223282D01*
X141305647Y-131808405D01*
X141306772Y-131812303D01*
X141492827Y-132386624D01*
X141494203Y-132390445D01*
X141716923Y-132951541D01*
X141718554Y-132955292D01*
X141977015Y-133500839D01*
X141978873Y-133504453D01*
X142272019Y-134032217D01*
X142274094Y-134035684D01*
X142600683Y-134543424D01*
X142602999Y-134546781D01*
X142961653Y-135032359D01*
X142964184Y-135035564D01*
X143353434Y-135496995D01*
X143356161Y-135500024D01*
X143507555Y-135657621D01*
X143521340Y-135665511D01*
X143522504Y-135665451D01*
X143530137Y-135660653D01*
X149977978Y-129212812D01*
X149984356Y-129201132D01*
X150714408Y-129201132D01*
X150714539Y-129202965D01*
X150718790Y-129209580D01*
X157166962Y-135657752D01*
X157180906Y-135665366D01*
X157181950Y-135665292D01*
X157189643Y-135660218D01*
X157365787Y-135475573D01*
X157368510Y-135472527D01*
X157756152Y-135009734D01*
X157758646Y-135006554D01*
X158115621Y-134519701D01*
X158117921Y-134516341D01*
X158442732Y-134007472D01*
X158444803Y-134003984D01*
X158736104Y-133475202D01*
X158737940Y-133471600D01*
X158994512Y-132925120D01*
X158996114Y-132921401D01*
X159216884Y-132359502D01*
X159218241Y-132355692D01*
X159402293Y-131780714D01*
X159403399Y-131776832D01*
X159405172Y-131769748D01*
X160399500Y-131769748D01*
X160411133Y-131828231D01*
X160455448Y-131894552D01*
X160521769Y-131938867D01*
X160533938Y-131941288D01*
X160533939Y-131941288D01*
X160574184Y-131949293D01*
X160580252Y-131950500D01*
X165719748Y-131950500D01*
X165725816Y-131949293D01*
X165766061Y-131941288D01*
X165766062Y-131941288D01*
X165778231Y-131938867D01*
X165844552Y-131894552D01*
X165888867Y-131828231D01*
X165900500Y-131769748D01*
X165900500Y-126937016D01*
X165920502Y-126868895D01*
X165937405Y-126847921D01*
X173041222Y-119744105D01*
X173049326Y-119736678D01*
X173069750Y-119719540D01*
X173078194Y-119712455D01*
X173083704Y-119702912D01*
X173083707Y-119702908D01*
X173097036Y-119679821D01*
X173102941Y-119670551D01*
X173118232Y-119648713D01*
X173124554Y-119639684D01*
X173127407Y-119629036D01*
X173128886Y-119625865D01*
X173130078Y-119622589D01*
X173135588Y-119613045D01*
X173142134Y-119575924D01*
X173144508Y-119565217D01*
X173154263Y-119528807D01*
X173150979Y-119491269D01*
X173150500Y-119480288D01*
X173150500Y-102601500D01*
X173170502Y-102533379D01*
X173224158Y-102486886D01*
X173276500Y-102475500D01*
X173403834Y-102475500D01*
X173421752Y-102473806D01*
X173427722Y-102473242D01*
X173427723Y-102473242D01*
X173435369Y-102472519D01*
X173563184Y-102427634D01*
X173570754Y-102422042D01*
X173570757Y-102422041D01*
X173664579Y-102352742D01*
X173672150Y-102347150D01*
X173684665Y-102330206D01*
X173747041Y-102245757D01*
X173747042Y-102245754D01*
X173752634Y-102238184D01*
X173797519Y-102110369D01*
X173800500Y-102078834D01*
X173800500Y-101171166D01*
X173797519Y-101139631D01*
X173752634Y-101011816D01*
X173747042Y-101004246D01*
X173747041Y-101004243D01*
X173677742Y-100910421D01*
X173672150Y-100902850D01*
X173655206Y-100890335D01*
X173570757Y-100827959D01*
X173570754Y-100827958D01*
X173563184Y-100822366D01*
X173435369Y-100777481D01*
X173427723Y-100776758D01*
X173427722Y-100776758D01*
X173421752Y-100776194D01*
X173403834Y-100774500D01*
X172046166Y-100774500D01*
X172028248Y-100776194D01*
X172022278Y-100776758D01*
X172022277Y-100776758D01*
X172014631Y-100777481D01*
X171886816Y-100822366D01*
X171879246Y-100827958D01*
X171879243Y-100827959D01*
X171794794Y-100890335D01*
X171777850Y-100902850D01*
X171772258Y-100910421D01*
X171702959Y-101004243D01*
X171702958Y-101004246D01*
X171697366Y-101011816D01*
X171652481Y-101139631D01*
X171649500Y-101171166D01*
X171649500Y-102078834D01*
X171652481Y-102110369D01*
X171697366Y-102238184D01*
X171702958Y-102245754D01*
X171702959Y-102245757D01*
X171765335Y-102330206D01*
X171777850Y-102347150D01*
X171785421Y-102352742D01*
X171879243Y-102422041D01*
X171879246Y-102422042D01*
X171886816Y-102427634D01*
X172014631Y-102472519D01*
X172022277Y-102473242D01*
X172022278Y-102473242D01*
X172028248Y-102473806D01*
X172046166Y-102475500D01*
X172373500Y-102475500D01*
X172441621Y-102495502D01*
X172488114Y-102549158D01*
X172499500Y-102601500D01*
X172499500Y-119312983D01*
X172479498Y-119381104D01*
X172462595Y-119402078D01*
X165452079Y-126412595D01*
X165389767Y-126446621D01*
X165362984Y-126449500D01*
X160580252Y-126449500D01*
X160574184Y-126450707D01*
X160533939Y-126458712D01*
X160533938Y-126458712D01*
X160521769Y-126461133D01*
X160455448Y-126505448D01*
X160411133Y-126571769D01*
X160399500Y-126630252D01*
X160399500Y-131769748D01*
X159405172Y-131769748D01*
X159549966Y-131191165D01*
X159550818Y-131187221D01*
X159659281Y-130593335D01*
X159659882Y-130589310D01*
X159729790Y-129989698D01*
X159730132Y-129985621D01*
X159761238Y-129382012D01*
X159761318Y-129379395D01*
X159763027Y-129201337D01*
X159762997Y-129198661D01*
X159743486Y-128594588D01*
X159743223Y-128590530D01*
X159684836Y-127989662D01*
X159684316Y-127985652D01*
X159587275Y-127389796D01*
X159586487Y-127385783D01*
X159451206Y-126797474D01*
X159450160Y-126793518D01*
X159277195Y-126215163D01*
X159275897Y-126211282D01*
X159065959Y-125645262D01*
X159064433Y-125641524D01*
X158818405Y-125090231D01*
X158816625Y-125086566D01*
X158535537Y-124552303D01*
X158533528Y-124548768D01*
X158218550Y-124033762D01*
X158216322Y-124030371D01*
X157868748Y-123536739D01*
X157866322Y-123533520D01*
X157487619Y-123063349D01*
X157484975Y-123060276D01*
X157192813Y-122741994D01*
X157179209Y-122733792D01*
X157178810Y-122733804D01*
X157170017Y-122739193D01*
X150722022Y-129187188D01*
X150714408Y-129201132D01*
X149984356Y-129201132D01*
X149985592Y-129198868D01*
X149985461Y-129197035D01*
X149981210Y-129190420D01*
X143530806Y-122740016D01*
X143516862Y-122732402D01*
X143515057Y-122732531D01*
X143508404Y-122736810D01*
X143478383Y-122766885D01*
X143475621Y-122769835D01*
X143077560Y-123223737D01*
X143074995Y-123226860D01*
X142707060Y-123705497D01*
X142704697Y-123708785D01*
X142368413Y-124210172D01*
X142366271Y-124213601D01*
X142063052Y-124735630D01*
X142061126Y-124739208D01*
X141792232Y-125279706D01*
X141790535Y-125283415D01*
X141557078Y-125840146D01*
X141555638Y-125843916D01*
X141358586Y-126414579D01*
X141357390Y-126418443D01*
X141197586Y-127000591D01*
X141196629Y-127004578D01*
X141074729Y-127595806D01*
X141074033Y-127599835D01*
X140990539Y-128197713D01*
X140990107Y-128201757D01*
X140945367Y-128803802D01*
X140945197Y-128807860D01*
X140939403Y-129411514D01*
X140300500Y-129411514D01*
X140300500Y-126630252D01*
X140288867Y-126571769D01*
X140244552Y-126505448D01*
X140178231Y-126461133D01*
X140166062Y-126458712D01*
X140166061Y-126458712D01*
X140125816Y-126450707D01*
X140119748Y-126449500D01*
X134980252Y-126449500D01*
X134974184Y-126450707D01*
X134933939Y-126458712D01*
X134933938Y-126458712D01*
X134921769Y-126461133D01*
X134855448Y-126505448D01*
X134811133Y-126571769D01*
X134799500Y-126630252D01*
X134799500Y-131769748D01*
X121342942Y-131769748D01*
X120781979Y-131223282D01*
X119911625Y-130375421D01*
X119908263Y-130372017D01*
X119589118Y-130036296D01*
X119587246Y-130034280D01*
X118274154Y-128588679D01*
X118271119Y-128585213D01*
X117753537Y-127971651D01*
X117751581Y-127969273D01*
X117016701Y-127053632D01*
X116743855Y-126713673D01*
X116741175Y-126710213D01*
X116686086Y-126636439D01*
X116080366Y-125825281D01*
X116078434Y-125822622D01*
X115953089Y-125645262D01*
X115563127Y-125093479D01*
X115562874Y-125093120D01*
X115298422Y-124716145D01*
X115296321Y-124713053D01*
X115190528Y-124552303D01*
X114610072Y-123670321D01*
X114608063Y-123667168D01*
X113953032Y-122604510D01*
X113951118Y-122601299D01*
X113817160Y-122368808D01*
X143882090Y-122368808D01*
X143882225Y-122370670D01*
X143886453Y-122377243D01*
X150337188Y-128827978D01*
X150351132Y-128835592D01*
X150352965Y-128835461D01*
X150359580Y-128831210D01*
X156807803Y-122382987D01*
X156815417Y-122369043D01*
X156815339Y-122367941D01*
X156810326Y-122360325D01*
X156637807Y-122195175D01*
X156634777Y-122192456D01*
X156172650Y-121803998D01*
X156169478Y-121801502D01*
X155683249Y-121443677D01*
X155679891Y-121441369D01*
X155171601Y-121115679D01*
X155168083Y-121113582D01*
X154639845Y-120821377D01*
X154636220Y-120819522D01*
X154090225Y-120562014D01*
X154086457Y-120560384D01*
X153524988Y-120338649D01*
X153521159Y-120337278D01*
X152946502Y-120152222D01*
X152942627Y-120151111D01*
X152357229Y-120003526D01*
X152353268Y-120002663D01*
X151759588Y-119893167D01*
X151755566Y-119892558D01*
X151156029Y-119821598D01*
X151152027Y-119821255D01*
X150549136Y-119789131D01*
X150545119Y-119789047D01*
X149941442Y-119795896D01*
X149937380Y-119796073D01*
X149335416Y-119841864D01*
X149331389Y-119842301D01*
X148733660Y-119926839D01*
X148729623Y-119927543D01*
X148138587Y-120050478D01*
X148134639Y-120051434D01*
X147552765Y-120212254D01*
X147548873Y-120213467D01*
X146978579Y-120411506D01*
X146974796Y-120412959D01*
X146418481Y-120647384D01*
X146414782Y-120649085D01*
X145874758Y-120918920D01*
X145871156Y-120920868D01*
X145349693Y-121224975D01*
X145346229Y-121227148D01*
X144845452Y-121564292D01*
X144842161Y-121566665D01*
X144364195Y-121935414D01*
X144361040Y-121938013D01*
X143907848Y-122336854D01*
X143904900Y-122339622D01*
X143889690Y-122354859D01*
X143882090Y-122368808D01*
X113817160Y-122368808D01*
X113327904Y-121519681D01*
X113326086Y-121516414D01*
X112735250Y-120416816D01*
X112733529Y-120413497D01*
X112175555Y-119296815D01*
X112173934Y-119293447D01*
X111649333Y-118160702D01*
X111647813Y-118157287D01*
X111157062Y-117009517D01*
X111155643Y-117006058D01*
X110731574Y-115926734D01*
X110699132Y-115844164D01*
X110697841Y-115840728D01*
X110275992Y-114665783D01*
X110274799Y-114662297D01*
X109888017Y-113475428D01*
X109886911Y-113471857D01*
X109805339Y-113193804D01*
X109535490Y-112273972D01*
X109534509Y-112270437D01*
X109218783Y-111062665D01*
X109217892Y-111059035D01*
X108938151Y-109842502D01*
X108937367Y-109838846D01*
X108693834Y-108614521D01*
X108693159Y-108610844D01*
X108486051Y-107379817D01*
X108485486Y-107376122D01*
X108314995Y-106139540D01*
X108314539Y-106135830D01*
X108180803Y-104894678D01*
X108180458Y-104890955D01*
X108083605Y-103646430D01*
X108083370Y-103642699D01*
X108023478Y-102395820D01*
X108023354Y-102392084D01*
X108000922Y-101168218D01*
X108000478Y-101143966D01*
X108000465Y-101140243D01*
X108002211Y-100986401D01*
X108014627Y-99892011D01*
X108014725Y-99888274D01*
X108065910Y-98641010D01*
X108066119Y-98637277D01*
X108134268Y-97674779D01*
X108154283Y-97392095D01*
X108154601Y-97388382D01*
X108279669Y-96146330D01*
X108280099Y-96142617D01*
X108441952Y-94904878D01*
X108442491Y-94901179D01*
X108640998Y-93668742D01*
X108641647Y-93665060D01*
X108742840Y-93137096D01*
X108876638Y-92439014D01*
X108877393Y-92435371D01*
X109148632Y-91216922D01*
X109149498Y-91213286D01*
X109255385Y-90796358D01*
X109456780Y-90003362D01*
X109457749Y-89999771D01*
X109800780Y-88799526D01*
X109801860Y-88795948D01*
X110013422Y-88131035D01*
X110180358Y-87606374D01*
X110181522Y-87602895D01*
X110595155Y-86425042D01*
X110596445Y-86421536D01*
X111044818Y-85256525D01*
X111046213Y-85253056D01*
X111483399Y-84210485D01*
X111528944Y-84101871D01*
X111530433Y-84098463D01*
X111579266Y-83991062D01*
X111876484Y-83337364D01*
X112047115Y-82962081D01*
X112048713Y-82958701D01*
X112394724Y-82253962D01*
X112598869Y-81838169D01*
X112600561Y-81834848D01*
X113016668Y-81047299D01*
X113183720Y-80731125D01*
X113185515Y-80727846D01*
X113359113Y-80421636D01*
X140275240Y-80421636D01*
X140275390Y-80424817D01*
X140289681Y-80727846D01*
X140293257Y-80803679D01*
X140349789Y-81181945D01*
X140350575Y-81185027D01*
X140350575Y-81185029D01*
X140435062Y-81516483D01*
X140444258Y-81552562D01*
X140537701Y-81807905D01*
X140571403Y-81900000D01*
X140575697Y-81911735D01*
X140742759Y-82255787D01*
X140943735Y-82581195D01*
X140945676Y-82583725D01*
X140945677Y-82583726D01*
X141151448Y-82851891D01*
X141176567Y-82884627D01*
X141438870Y-83162976D01*
X141727959Y-83413393D01*
X141730569Y-83415228D01*
X141730575Y-83415232D01*
X141851900Y-83500500D01*
X142040875Y-83633314D01*
X142374413Y-83820487D01*
X142377335Y-83821758D01*
X142377338Y-83821759D01*
X142533282Y-83889566D01*
X142587777Y-83935072D01*
X142606618Y-83980531D01*
X142611133Y-84003231D01*
X142655448Y-84069552D01*
X142721769Y-84113867D01*
X142733938Y-84116288D01*
X142733939Y-84116288D01*
X142751244Y-84119730D01*
X142780252Y-84125500D01*
X143248273Y-84125500D01*
X143274255Y-84128208D01*
X143460650Y-84167488D01*
X143460655Y-84167489D01*
X143463769Y-84168145D01*
X143844071Y-84208787D01*
X143847259Y-84208804D01*
X143847264Y-84208804D01*
X144020605Y-84209712D01*
X144226533Y-84210790D01*
X144370979Y-84196881D01*
X144604075Y-84174437D01*
X144604080Y-84174436D01*
X144607240Y-84174132D01*
X144610359Y-84173509D01*
X144610364Y-84173508D01*
X144838393Y-84127943D01*
X144863082Y-84125500D01*
X145419748Y-84125500D01*
X145448756Y-84119730D01*
X145466061Y-84116288D01*
X145466062Y-84116288D01*
X145478231Y-84113867D01*
X145544552Y-84069552D01*
X145588867Y-84003231D01*
X145591921Y-83987881D01*
X145600500Y-83944748D01*
X145601992Y-83945045D01*
X145625762Y-83886188D01*
X145675536Y-83848310D01*
X145700177Y-83837901D01*
X146035657Y-83654231D01*
X146227094Y-83522660D01*
X146298461Y-83500500D01*
X155304957Y-83500500D01*
X155377407Y-83523413D01*
X155394110Y-83535152D01*
X155396872Y-83536702D01*
X155396880Y-83536707D01*
X155632059Y-83668683D01*
X155727648Y-83722325D01*
X155730562Y-83723592D01*
X155730566Y-83723594D01*
X155767697Y-83739739D01*
X155873743Y-83785849D01*
X155928237Y-83831354D01*
X155949500Y-83901398D01*
X155949500Y-83944748D01*
X155950707Y-83950816D01*
X155958080Y-83987881D01*
X155961133Y-84003231D01*
X156005448Y-84069552D01*
X156071769Y-84113867D01*
X156083938Y-84116288D01*
X156083939Y-84116288D01*
X156101244Y-84119730D01*
X156130252Y-84125500D01*
X157812984Y-84125500D01*
X157881105Y-84145502D01*
X157902079Y-84162405D01*
X171629390Y-97889716D01*
X171663416Y-97952028D01*
X171659178Y-98020558D01*
X171655026Y-98032381D01*
X171655024Y-98032389D01*
X171652481Y-98039631D01*
X171649500Y-98071166D01*
X171649500Y-98978834D01*
X171652481Y-99010369D01*
X171697366Y-99138184D01*
X171702958Y-99145754D01*
X171702959Y-99145757D01*
X171765335Y-99230206D01*
X171777850Y-99247150D01*
X171785421Y-99252742D01*
X171879243Y-99322041D01*
X171879246Y-99322042D01*
X171886816Y-99327634D01*
X172014631Y-99372519D01*
X172022277Y-99373242D01*
X172022278Y-99373242D01*
X172028248Y-99373806D01*
X172046166Y-99375500D01*
X173403834Y-99375500D01*
X173421752Y-99373806D01*
X173427722Y-99373242D01*
X173427723Y-99373242D01*
X173435369Y-99372519D01*
X173563184Y-99327634D01*
X173570754Y-99322042D01*
X173570757Y-99322041D01*
X173664579Y-99252742D01*
X173672150Y-99247150D01*
X173684665Y-99230206D01*
X173747041Y-99145757D01*
X173747042Y-99145754D01*
X173752634Y-99138184D01*
X173797519Y-99010369D01*
X173800500Y-98978834D01*
X173800500Y-98071166D01*
X173797519Y-98039631D01*
X173752634Y-97911816D01*
X173747042Y-97904246D01*
X173747041Y-97904243D01*
X173677742Y-97810421D01*
X173672150Y-97802850D01*
X173655206Y-97790335D01*
X173570757Y-97727959D01*
X173570754Y-97727958D01*
X173563184Y-97722366D01*
X173435369Y-97677481D01*
X173427723Y-97676758D01*
X173427722Y-97676758D01*
X173421752Y-97676194D01*
X173403834Y-97674500D01*
X172387017Y-97674500D01*
X172318896Y-97654498D01*
X172297922Y-97637595D01*
X158899600Y-84239273D01*
X158865574Y-84176961D01*
X158870639Y-84106146D01*
X158893857Y-84070017D01*
X158894552Y-84069552D01*
X158938867Y-84003231D01*
X158941921Y-83987881D01*
X158949293Y-83950816D01*
X158950500Y-83944748D01*
X158950500Y-83866766D01*
X158970502Y-83798645D01*
X159027471Y-83750697D01*
X159053412Y-83739739D01*
X159056215Y-83738205D01*
X159056220Y-83738202D01*
X159206786Y-83655769D01*
X159388892Y-83556069D01*
X159704093Y-83339437D01*
X159706532Y-83337369D01*
X159706538Y-83337364D01*
X159993349Y-83094131D01*
X159993357Y-83094123D01*
X159995789Y-83092061D01*
X159997997Y-83089766D01*
X159998005Y-83089759D01*
X160205726Y-82873904D01*
X160260993Y-82816473D01*
X160463229Y-82581195D01*
X160507370Y-82529842D01*
X160511708Y-82525050D01*
X160617082Y-82414476D01*
X160762485Y-82261898D01*
X160950000Y-81900000D01*
X160964420Y-81862773D01*
X161098551Y-81516483D01*
X161098551Y-81516482D01*
X161099792Y-81513279D01*
X161137362Y-81372391D01*
X161198660Y-81142525D01*
X161198661Y-81142521D01*
X161199792Y-81138279D01*
X161240442Y-80803679D01*
X161249540Y-80728790D01*
X161249540Y-80728783D01*
X161250000Y-80725000D01*
X161250000Y-80325000D01*
X161232171Y-80039728D01*
X161225239Y-79928826D01*
X161225000Y-79925000D01*
X161224298Y-79921233D01*
X161224297Y-79921225D01*
X161158214Y-79566632D01*
X161158213Y-79566625D01*
X161157817Y-79564503D01*
X161156417Y-79559087D01*
X161088116Y-79294990D01*
X161062055Y-79194218D01*
X161060780Y-79190781D01*
X160964278Y-78930812D01*
X160925000Y-78825000D01*
X160750000Y-78475000D01*
X160512864Y-78180374D01*
X160511344Y-78178446D01*
X160505855Y-78171343D01*
X160344589Y-77962690D01*
X160280187Y-77879363D01*
X160280182Y-77879358D01*
X160278235Y-77876838D01*
X160266553Y-77864528D01*
X160017161Y-77601723D01*
X160017158Y-77601721D01*
X160014962Y-77599406D01*
X159725000Y-77350000D01*
X159411319Y-77131173D01*
X159322721Y-77081860D01*
X159272926Y-77031254D01*
X159257999Y-76971765D01*
X159257999Y-76880331D01*
X159257629Y-76873510D01*
X159252105Y-76822648D01*
X159248479Y-76807396D01*
X159203324Y-76686946D01*
X159194786Y-76671351D01*
X159118285Y-76569276D01*
X159105724Y-76556715D01*
X159003649Y-76480214D01*
X158988054Y-76471676D01*
X158867606Y-76426522D01*
X158852351Y-76422895D01*
X158801486Y-76417369D01*
X158794672Y-76417000D01*
X157722115Y-76417000D01*
X157706876Y-76421475D01*
X157705671Y-76422865D01*
X157704000Y-76430548D01*
X157704000Y-76435948D01*
X157683998Y-76504069D01*
X157630342Y-76550562D01*
X157577782Y-76561948D01*
X157377070Y-76561598D01*
X157321780Y-76561501D01*
X157253694Y-76541380D01*
X157207295Y-76487643D01*
X157196000Y-76435501D01*
X157196000Y-76435116D01*
X157191525Y-76419877D01*
X157190135Y-76418672D01*
X157182452Y-76417001D01*
X156105331Y-76417001D01*
X156098510Y-76417371D01*
X156047648Y-76422895D01*
X156032396Y-76426521D01*
X155911946Y-76471676D01*
X155896351Y-76480214D01*
X155794276Y-76556715D01*
X155781715Y-76569276D01*
X155705214Y-76671351D01*
X155696676Y-76686946D01*
X155651522Y-76807394D01*
X155647895Y-76822649D01*
X155642369Y-76873514D01*
X155642000Y-76880328D01*
X155642000Y-76925344D01*
X155621998Y-76993465D01*
X155576896Y-77035650D01*
X155416489Y-77124200D01*
X155102045Y-77341931D01*
X154811215Y-77590324D01*
X154546974Y-77866835D01*
X154545017Y-77869348D01*
X154545016Y-77869350D01*
X154520925Y-77900297D01*
X154312030Y-78168635D01*
X154310334Y-78171339D01*
X154310331Y-78171343D01*
X154252032Y-78264280D01*
X154108788Y-78492631D01*
X153939327Y-78835508D01*
X153805384Y-79193755D01*
X153804580Y-79196821D01*
X153804579Y-79196823D01*
X153709541Y-79559087D01*
X153706770Y-79568222D01*
X153650973Y-79729883D01*
X153575000Y-79950000D01*
X153525000Y-80329956D01*
X153550000Y-80725000D01*
X153561377Y-80757654D01*
X153674661Y-81082810D01*
X153675311Y-81084724D01*
X153797493Y-81454400D01*
X153928932Y-81813573D01*
X154095994Y-82157625D01*
X154296970Y-82483033D01*
X154298911Y-82485563D01*
X154298912Y-82485564D01*
X154422630Y-82646796D01*
X154448231Y-82713016D01*
X154433966Y-82782565D01*
X154384365Y-82833361D01*
X154322668Y-82849500D01*
X147301722Y-82849500D01*
X147233601Y-82829498D01*
X147187108Y-82775842D01*
X147177004Y-82705568D01*
X147200765Y-82650492D01*
X147200000Y-82650000D01*
X147202972Y-82645377D01*
X147425000Y-82300000D01*
X147600000Y-82025000D01*
X147750000Y-81675000D01*
X147875000Y-81300000D01*
X147925000Y-80875000D01*
X147925000Y-80075000D01*
X147900000Y-79725000D01*
X147898899Y-79720227D01*
X147826023Y-79404431D01*
X147826021Y-79404425D01*
X147825000Y-79400000D01*
X147823356Y-79395773D01*
X147823354Y-79395766D01*
X147651935Y-78954976D01*
X147650000Y-78950000D01*
X147647255Y-78945424D01*
X147647252Y-78945419D01*
X147425923Y-78576538D01*
X147424149Y-78573485D01*
X147203488Y-78181199D01*
X147203483Y-78181192D01*
X147200000Y-78175000D01*
X146950270Y-77900297D01*
X146949847Y-77899830D01*
X146731731Y-77657478D01*
X146731728Y-77657476D01*
X146725000Y-77650000D01*
X146498939Y-77520829D01*
X146376689Y-77450975D01*
X146367110Y-77444914D01*
X146060697Y-77231158D01*
X146058084Y-77229335D01*
X145972718Y-77181821D01*
X145922927Y-77131217D01*
X145907999Y-77071728D01*
X145907999Y-76880331D01*
X145907629Y-76873510D01*
X145902105Y-76822648D01*
X145898479Y-76807396D01*
X145853324Y-76686946D01*
X145844786Y-76671351D01*
X145768285Y-76569276D01*
X145755724Y-76556715D01*
X145653649Y-76480214D01*
X145638054Y-76471676D01*
X145517606Y-76426522D01*
X145502351Y-76422895D01*
X145451486Y-76417369D01*
X145444672Y-76417000D01*
X144372115Y-76417000D01*
X144356876Y-76421475D01*
X144355671Y-76422865D01*
X144354000Y-76430548D01*
X144354000Y-76534115D01*
X144333998Y-76602236D01*
X144280342Y-76648729D01*
X144227780Y-76660115D01*
X144108249Y-76659907D01*
X143971779Y-76659669D01*
X143903695Y-76639548D01*
X143857295Y-76585812D01*
X143846000Y-76533669D01*
X143846000Y-76435116D01*
X143841525Y-76419877D01*
X143840135Y-76418672D01*
X143832452Y-76417001D01*
X142755331Y-76417001D01*
X142748510Y-76417371D01*
X142697648Y-76422895D01*
X142682396Y-76426521D01*
X142561946Y-76471676D01*
X142546351Y-76480214D01*
X142444276Y-76556715D01*
X142431715Y-76569276D01*
X142355214Y-76671351D01*
X142346676Y-76686946D01*
X142301522Y-76807394D01*
X142297895Y-76822649D01*
X142292369Y-76873514D01*
X142292000Y-76880328D01*
X142292000Y-77021720D01*
X142271998Y-77089841D01*
X142226898Y-77132026D01*
X142063254Y-77222362D01*
X141748810Y-77440093D01*
X141457980Y-77688486D01*
X141193739Y-77964997D01*
X141191782Y-77967510D01*
X141191781Y-77967512D01*
X141030257Y-78175000D01*
X140958795Y-78266797D01*
X140755553Y-78590793D01*
X140586092Y-78933670D01*
X140452149Y-79291917D01*
X140355095Y-79661865D01*
X140295923Y-80039728D01*
X140295752Y-80042890D01*
X140295751Y-80042897D01*
X140280367Y-80326969D01*
X140275240Y-80421636D01*
X113359113Y-80421636D01*
X113801169Y-79641893D01*
X113803061Y-79638669D01*
X114450648Y-78571478D01*
X114452635Y-78568311D01*
X115131580Y-77520829D01*
X115133659Y-77517722D01*
X115843421Y-76490781D01*
X115845592Y-76487738D01*
X116585471Y-75482354D01*
X116587731Y-75479376D01*
X117357145Y-74496342D01*
X117359493Y-74493433D01*
X118157692Y-73533703D01*
X118160125Y-73530864D01*
X118621130Y-73008876D01*
X118621568Y-73008383D01*
X118895365Y-72701619D01*
X119067819Y-72508400D01*
X119069829Y-72506202D01*
X119842723Y-71681713D01*
X119845318Y-71679026D01*
X119932042Y-71591847D01*
X119932664Y-71591226D01*
X120977701Y-70555269D01*
X120979754Y-70553279D01*
X121594738Y-69970701D01*
X121598313Y-69967442D01*
X123044746Y-68698954D01*
X123046749Y-68697235D01*
X123427177Y-68377452D01*
X123431113Y-68374276D01*
X124350014Y-67662787D01*
X125206315Y-66999767D01*
X125208240Y-66998306D01*
X125383369Y-66868006D01*
X125387669Y-66864945D01*
X127357700Y-65523599D01*
X127359528Y-65522377D01*
X127492241Y-65435366D01*
X127496903Y-65432453D01*
X129610343Y-64175089D01*
X129612052Y-64174090D01*
X129664791Y-64143825D01*
X129668060Y-64142013D01*
X129721641Y-64113343D01*
X129723372Y-64112435D01*
X131014936Y-63447236D01*
X147719958Y-63447236D01*
X147720321Y-63451384D01*
X147720321Y-63451389D01*
X147723350Y-63486011D01*
X147746014Y-63745065D01*
X147811232Y-64036832D01*
X147812676Y-64040756D01*
X147812676Y-64040757D01*
X147861733Y-64174090D01*
X147914464Y-64317410D01*
X148053898Y-64581870D01*
X148227084Y-64825565D01*
X148430979Y-65044216D01*
X148662000Y-65233979D01*
X148916090Y-65391521D01*
X149188783Y-65514074D01*
X149363027Y-65566018D01*
X149471290Y-65598293D01*
X149471292Y-65598293D01*
X149475289Y-65599485D01*
X149479409Y-65600138D01*
X149479411Y-65600138D01*
X149597423Y-65618829D01*
X149770575Y-65646254D01*
X149813135Y-65648187D01*
X149862659Y-65650436D01*
X149862678Y-65650436D01*
X149864078Y-65650500D01*
X150050834Y-65650500D01*
X150273309Y-65635723D01*
X150566377Y-65576630D01*
X150849056Y-65479296D01*
X150852789Y-65477427D01*
X150852793Y-65477425D01*
X151112640Y-65347303D01*
X151112642Y-65347302D01*
X151116378Y-65345431D01*
X151363647Y-65177387D01*
X151586520Y-64978117D01*
X151781079Y-64751120D01*
X151943908Y-64500386D01*
X152072145Y-64230319D01*
X152089878Y-64175089D01*
X152162258Y-63949651D01*
X152162258Y-63949650D01*
X152163538Y-63945664D01*
X152216480Y-63651422D01*
X152221222Y-63547011D01*
X152229853Y-63356934D01*
X152229853Y-63356929D01*
X152230042Y-63352764D01*
X152203986Y-63054935D01*
X152138768Y-62763168D01*
X152035536Y-62482590D01*
X151995936Y-62407481D01*
X151898055Y-62221834D01*
X151898054Y-62221833D01*
X151896102Y-62218130D01*
X151722916Y-61974435D01*
X151519021Y-61755784D01*
X151288000Y-61566021D01*
X151033910Y-61408479D01*
X150761217Y-61285926D01*
X150548603Y-61222543D01*
X150478710Y-61201707D01*
X150478708Y-61201707D01*
X150474711Y-61200515D01*
X150470591Y-61199862D01*
X150470589Y-61199862D01*
X150352577Y-61181171D01*
X150179425Y-61153746D01*
X150136865Y-61151813D01*
X150087341Y-61149564D01*
X150087322Y-61149564D01*
X150085922Y-61149500D01*
X149899166Y-61149500D01*
X149676691Y-61164277D01*
X149383623Y-61223370D01*
X149100944Y-61320704D01*
X149097211Y-61322573D01*
X149097207Y-61322575D01*
X148921268Y-61410679D01*
X148833622Y-61454569D01*
X148586353Y-61622613D01*
X148363480Y-61821883D01*
X148168921Y-62048880D01*
X148006092Y-62299614D01*
X147877855Y-62569681D01*
X147786462Y-62854336D01*
X147733520Y-63148578D01*
X147733331Y-63152745D01*
X147733330Y-63152752D01*
X147720147Y-63443066D01*
X147719958Y-63447236D01*
X131014936Y-63447236D01*
X131206428Y-63348611D01*
X131909664Y-62986421D01*
X131914598Y-62984014D01*
X132058741Y-62917564D01*
X132060649Y-62916704D01*
X133471070Y-62296104D01*
X134242209Y-61956795D01*
X134247082Y-61954771D01*
X134450437Y-61875282D01*
X134452546Y-61874481D01*
X136633840Y-61069759D01*
X136638575Y-61068119D01*
X136729677Y-61038606D01*
X136890266Y-60986583D01*
X136892784Y-60985796D01*
X139075978Y-60328730D01*
X139080636Y-60327425D01*
X139241022Y-60285796D01*
X139371150Y-60252022D01*
X139373842Y-60251356D01*
X140860253Y-59901352D01*
X141559939Y-59736598D01*
X141564452Y-59735622D01*
X141792498Y-59690674D01*
X141885171Y-59672408D01*
X141888172Y-59671855D01*
X144076931Y-59295758D01*
X144081210Y-59295099D01*
X144424144Y-59248428D01*
X144427287Y-59248042D01*
X146617979Y-59008123D01*
X146622112Y-59007739D01*
X146858989Y-58989720D01*
X146979335Y-58980566D01*
X146982847Y-58980348D01*
X147797470Y-58941219D01*
X149174087Y-58875095D01*
X149178017Y-58874967D01*
X149265787Y-58873512D01*
X149542329Y-58868927D01*
X149546067Y-58868921D01*
X151736316Y-58897593D01*
G37*
%TD.AperFunction*%
%TD*%
M02*
