%TF.GenerationSoftware,KiCad,Pcbnew,6.0.6-3a73a75311~116~ubuntu21.10.1*%
%TF.CreationDate,2023-05-16T20:40:28-06:00*%
%TF.ProjectId,goon,676f6f6e-2e6b-4696-9361-645f70636258,rev?*%
%TF.SameCoordinates,Original*%
%TF.FileFunction,Copper,L1,Top*%
%TF.FilePolarity,Positive*%
%FSLAX46Y46*%
G04 Gerber Fmt 4.6, Leading zero omitted, Abs format (unit mm)*
G04 Created by KiCad (PCBNEW 6.0.6-3a73a75311~116~ubuntu21.10.1) date 2023-05-16 20:40:28*
%MOMM*%
%LPD*%
G01*
G04 APERTURE LIST*
G04 APERTURE END LIST*
%TA.AperFunction,NonConductor*%
G36*
X151736316Y-58897593D02*
G01*
X151740053Y-58897697D01*
X151825327Y-58901345D01*
X152104028Y-58913270D01*
X152107946Y-58913499D01*
X154295762Y-59076082D01*
X154299188Y-59076385D01*
X154643544Y-59111667D01*
X154655612Y-59112903D01*
X154659760Y-59113398D01*
X156843345Y-59410571D01*
X156846607Y-59411058D01*
X156939228Y-59426142D01*
X157188110Y-59466675D01*
X157192370Y-59467446D01*
X159370559Y-59900714D01*
X159373571Y-59901352D01*
X159692475Y-59972928D01*
X159696962Y-59974021D01*
X161868793Y-60545817D01*
X161871549Y-60546576D01*
X161979208Y-60577548D01*
X162159995Y-60629559D01*
X162164584Y-60630976D01*
X164261926Y-61322575D01*
X164329850Y-61344973D01*
X164332347Y-61345826D01*
X164581769Y-61433906D01*
X164586503Y-61435685D01*
X166745867Y-62297184D01*
X166748105Y-62298102D01*
X166949277Y-62382873D01*
X166954088Y-62385020D01*
X169109760Y-63401700D01*
X169111591Y-63402583D01*
X169253993Y-63472808D01*
X169258869Y-63475346D01*
X171415008Y-64658245D01*
X171416735Y-64659211D01*
X171469466Y-64689227D01*
X171472686Y-64691123D01*
X171524593Y-64722746D01*
X171526208Y-64723747D01*
X173606114Y-66036069D01*
X173610666Y-66039082D01*
X173741062Y-66129541D01*
X173742832Y-66130792D01*
X175677103Y-67523268D01*
X175681312Y-67526433D01*
X175853024Y-67661315D01*
X175854808Y-67662745D01*
X176729566Y-68377452D01*
X177655236Y-69133757D01*
X177659087Y-69137034D01*
X177857041Y-69312477D01*
X177858998Y-69314248D01*
X179533229Y-70861891D01*
X179536710Y-70865235D01*
X179749124Y-71077279D01*
X179751086Y-71079282D01*
X181304136Y-72701619D01*
X181307241Y-72704984D01*
X181524476Y-72949231D01*
X181526493Y-72951556D01*
X182961426Y-74646567D01*
X182964209Y-74649973D01*
X183178386Y-74921655D01*
X183180390Y-74924266D01*
X184490132Y-76678224D01*
X184498937Y-76690015D01*
X184501380Y-76693402D01*
X184637379Y-76888715D01*
X184706113Y-76987427D01*
X184708080Y-76990337D01*
X185287779Y-77874526D01*
X185910898Y-78824941D01*
X185913016Y-78828285D01*
X186103094Y-79139072D01*
X186104990Y-79142279D01*
X187093216Y-80871312D01*
X187191930Y-81044026D01*
X187193724Y-81047275D01*
X187265480Y-81181945D01*
X187365078Y-81368869D01*
X187366884Y-81372391D01*
X187961661Y-82578480D01*
X188248754Y-83160646D01*
X188337135Y-83339866D01*
X188338647Y-83343043D01*
X188488080Y-83668683D01*
X188489759Y-83672508D01*
X189341965Y-85704790D01*
X189343201Y-85707848D01*
X189468595Y-86030297D01*
X189470091Y-86034355D01*
X189957295Y-87429490D01*
X190202285Y-88131035D01*
X190203265Y-88133954D01*
X190303463Y-88445100D01*
X190304796Y-88449517D01*
X190743032Y-90003381D01*
X190914396Y-90610993D01*
X190915141Y-90613754D01*
X190990042Y-90904424D01*
X190991159Y-90909131D01*
X191474898Y-93137096D01*
X191475431Y-93139680D01*
X191526140Y-93399344D01*
X191527010Y-93404326D01*
X191880683Y-95702182D01*
X191881028Y-95704577D01*
X191910082Y-95920887D01*
X191910674Y-95926131D01*
X192128747Y-98299404D01*
X192128930Y-98301595D01*
X192140696Y-98459922D01*
X192140983Y-98465412D01*
X192216083Y-100923433D01*
X192216128Y-100925414D01*
X192217032Y-100986401D01*
X192217038Y-100989695D01*
X192216302Y-101054601D01*
X192216271Y-101056263D01*
X192162648Y-103104058D01*
X192162602Y-103105488D01*
X192159394Y-103190929D01*
X192159199Y-103194661D01*
X192155113Y-103255378D01*
X192154964Y-103257352D01*
X191951328Y-105708036D01*
X191950754Y-105713503D01*
X191930726Y-105870935D01*
X191930429Y-105873114D01*
X191588438Y-108231782D01*
X191587572Y-108236988D01*
X191547238Y-108451474D01*
X191546768Y-108453847D01*
X191073310Y-110730084D01*
X191072188Y-110734980D01*
X191007966Y-110991602D01*
X191007299Y-110994155D01*
X190407606Y-113193804D01*
X190406244Y-113198446D01*
X190316255Y-113484725D01*
X190315367Y-113487442D01*
X189593461Y-115614110D01*
X189591901Y-115618444D01*
X189475559Y-115923913D01*
X189474462Y-115926692D01*
X189031466Y-117009517D01*
X188633520Y-117982227D01*
X188631784Y-117986267D01*
X188489697Y-118301689D01*
X188488316Y-118304652D01*
X187530886Y-120289609D01*
X187529054Y-120293252D01*
X187464320Y-120416816D01*
X187362750Y-120610689D01*
X187361084Y-120613762D01*
X186289176Y-122527791D01*
X186287203Y-122531188D01*
X186099282Y-122843324D01*
X186097326Y-122846467D01*
X185569434Y-123667168D01*
X184912306Y-124688787D01*
X184910237Y-124691900D01*
X184704177Y-124992281D01*
X184701887Y-124995510D01*
X183404692Y-126764660D01*
X183402572Y-126767468D01*
X183182731Y-127050376D01*
X183180117Y-127053627D01*
X181770960Y-128747953D01*
X181768857Y-128750416D01*
X181670036Y-128863100D01*
X181540729Y-129010546D01*
X181537772Y-129013801D01*
X180016108Y-130631379D01*
X180013971Y-130633596D01*
X179784253Y-130866138D01*
X179780948Y-130869363D01*
X178145084Y-132408230D01*
X178143075Y-132410076D01*
X178033426Y-132508631D01*
X177919834Y-132610730D01*
X177916175Y-132613894D01*
X176163297Y-134071747D01*
X176161251Y-134073413D01*
X175954347Y-134238287D01*
X175950329Y-134241359D01*
X174075449Y-135616078D01*
X174073485Y-135617489D01*
X173895008Y-135743158D01*
X173890651Y-135746092D01*
X172775690Y-136463259D01*
X171886103Y-137035460D01*
X171884243Y-137036633D01*
X171749354Y-137120105D01*
X171744617Y-137122895D01*
X170609562Y-137758557D01*
X169598990Y-138324504D01*
X169597283Y-138325443D01*
X169543749Y-138354328D01*
X169540456Y-138356043D01*
X169486003Y-138383370D01*
X169484414Y-138384152D01*
X167924821Y-139136410D01*
X167269353Y-139452570D01*
X167264351Y-139454849D01*
X167118545Y-139517493D01*
X167116575Y-139518320D01*
X164910642Y-140420791D01*
X164905725Y-140422684D01*
X164700396Y-140496809D01*
X164698152Y-140497594D01*
X163307009Y-140969824D01*
X162496616Y-141244915D01*
X162491795Y-141246444D01*
X162238127Y-141321343D01*
X162235589Y-141322064D01*
X160981243Y-141664038D01*
X160417732Y-141817669D01*
X160035912Y-141921765D01*
X160031227Y-141922946D01*
X159738864Y-141990713D01*
X159736123Y-141991315D01*
X158866357Y-142172227D01*
X157537270Y-142448677D01*
X157532732Y-142449534D01*
X157210549Y-142504316D01*
X157207508Y-142504795D01*
X155009655Y-142823469D01*
X155005292Y-142824024D01*
X154661373Y-142861690D01*
X154658098Y-142862005D01*
X152464116Y-143044311D01*
X152461961Y-143044490D01*
X152457791Y-143044767D01*
X152099929Y-143062582D01*
X152096437Y-143062708D01*
X151275649Y-143080617D01*
X149903197Y-143110564D01*
X149899238Y-143110588D01*
X149534975Y-143107091D01*
X149531238Y-143107000D01*
X148014545Y-143047409D01*
X147342443Y-143021002D01*
X147338742Y-143020802D01*
X146975200Y-142995699D01*
X146971338Y-142995371D01*
X145807765Y-142878206D01*
X144788639Y-142775585D01*
X144785144Y-142775184D01*
X144429786Y-142729347D01*
X144425651Y-142728744D01*
X142250581Y-142374511D01*
X142247333Y-142373938D01*
X141907438Y-142309406D01*
X141903132Y-142308510D01*
X140193961Y-141921765D01*
X139737060Y-141818379D01*
X139734118Y-141817675D01*
X139588729Y-141781021D01*
X139417143Y-141737762D01*
X139412687Y-141736551D01*
X137990645Y-141322064D01*
X137256569Y-141108100D01*
X137253877Y-141107283D01*
X136967677Y-141016769D01*
X136963161Y-141015245D01*
X135785475Y-140592413D01*
X134817331Y-140244813D01*
X134814858Y-140243896D01*
X134636463Y-140175596D01*
X134567766Y-140149294D01*
X134563128Y-140147411D01*
X132995609Y-139473952D01*
X132426998Y-139229657D01*
X132424785Y-139228681D01*
X132225933Y-139138687D01*
X132221172Y-139136410D01*
X130092890Y-138063667D01*
X130090935Y-138062661D01*
X130078199Y-138055960D01*
X129950518Y-137988784D01*
X129945745Y-137986138D01*
X127821445Y-136747284D01*
X127819744Y-136746274D01*
X127767656Y-136714791D01*
X127764486Y-136712810D01*
X127713398Y-136679823D01*
X127711743Y-136678736D01*
X125666992Y-135312476D01*
X125662560Y-135309373D01*
X125534523Y-135215493D01*
X125532847Y-135214241D01*
X123635619Y-133771555D01*
X123631532Y-133768309D01*
X123463498Y-133629052D01*
X123461650Y-133627491D01*
X121700354Y-132109862D01*
X121696604Y-132106497D01*
X121503274Y-131925898D01*
X121501402Y-131924113D01*
X121072551Y-131506345D01*
X119911625Y-130375421D01*
X119908263Y-130372017D01*
X119589118Y-130036296D01*
X119587246Y-130034280D01*
X118274154Y-128588679D01*
X118271119Y-128585213D01*
X117753537Y-127971651D01*
X117751581Y-127969273D01*
X117016701Y-127053632D01*
X116743855Y-126713673D01*
X116741175Y-126710213D01*
X116080373Y-125825291D01*
X116078434Y-125822622D01*
X115563127Y-125093479D01*
X115562874Y-125093120D01*
X115298422Y-124716145D01*
X115296321Y-124713053D01*
X114610072Y-123670321D01*
X114608063Y-123667168D01*
X113953032Y-122604510D01*
X113951118Y-122601299D01*
X113327904Y-121519681D01*
X113326086Y-121516414D01*
X112735250Y-120416816D01*
X112733529Y-120413497D01*
X112175555Y-119296815D01*
X112173934Y-119293447D01*
X111649333Y-118160702D01*
X111647813Y-118157287D01*
X111157062Y-117009517D01*
X111155643Y-117006058D01*
X110731574Y-115926734D01*
X110699132Y-115844164D01*
X110697841Y-115840728D01*
X110275992Y-114665783D01*
X110274799Y-114662297D01*
X109888017Y-113475428D01*
X109886911Y-113471857D01*
X109805339Y-113193804D01*
X109535490Y-112273972D01*
X109534509Y-112270437D01*
X109218783Y-111062665D01*
X109217892Y-111059035D01*
X108938151Y-109842502D01*
X108937367Y-109838846D01*
X108693834Y-108614521D01*
X108693159Y-108610844D01*
X108486051Y-107379817D01*
X108485486Y-107376122D01*
X108314995Y-106139540D01*
X108314539Y-106135830D01*
X108180803Y-104894678D01*
X108180458Y-104890955D01*
X108083605Y-103646430D01*
X108083370Y-103642699D01*
X108023478Y-102395820D01*
X108023354Y-102392084D01*
X108000478Y-101143981D01*
X108000465Y-101140243D01*
X108002211Y-100986401D01*
X108014627Y-99892011D01*
X108014725Y-99888274D01*
X108065910Y-98641010D01*
X108066119Y-98637277D01*
X108154282Y-97392107D01*
X108154601Y-97388382D01*
X108279669Y-96146330D01*
X108280099Y-96142617D01*
X108441952Y-94904878D01*
X108442491Y-94901179D01*
X108640998Y-93668742D01*
X108641647Y-93665060D01*
X108742840Y-93137096D01*
X108876638Y-92439014D01*
X108877393Y-92435371D01*
X109148632Y-91216922D01*
X109149498Y-91213286D01*
X109255385Y-90796358D01*
X109456780Y-90003362D01*
X109457749Y-89999771D01*
X109800780Y-88799526D01*
X109801860Y-88795948D01*
X110013422Y-88131035D01*
X110180358Y-87606374D01*
X110181522Y-87602895D01*
X110595155Y-86425042D01*
X110596445Y-86421536D01*
X111044818Y-85256525D01*
X111046213Y-85253056D01*
X111483399Y-84210485D01*
X111528944Y-84101871D01*
X111530433Y-84098463D01*
X111540522Y-84076275D01*
X111887502Y-83313131D01*
X112047115Y-82962081D01*
X112048713Y-82958701D01*
X112394724Y-82253962D01*
X112598869Y-81838169D01*
X112600561Y-81834848D01*
X113016668Y-81047299D01*
X113183720Y-80731125D01*
X113185515Y-80727846D01*
X113359113Y-80421636D01*
X140275240Y-80421636D01*
X140275390Y-80424817D01*
X140289681Y-80727846D01*
X140293257Y-80803679D01*
X140349789Y-81181945D01*
X140350575Y-81185027D01*
X140350575Y-81185029D01*
X140435062Y-81516483D01*
X140444258Y-81552562D01*
X140537701Y-81807905D01*
X140571403Y-81900000D01*
X140575697Y-81911735D01*
X140742759Y-82255787D01*
X140943735Y-82581195D01*
X140945676Y-82583725D01*
X140945677Y-82583726D01*
X141151448Y-82851891D01*
X141176567Y-82884627D01*
X141438870Y-83162976D01*
X141727959Y-83413393D01*
X141730569Y-83415228D01*
X141730575Y-83415232D01*
X141764980Y-83439412D01*
X142040875Y-83633314D01*
X142374413Y-83820487D01*
X142725159Y-83972996D01*
X143089521Y-84089278D01*
X143247312Y-84122530D01*
X143460650Y-84167488D01*
X143460655Y-84167489D01*
X143463769Y-84168145D01*
X143844071Y-84208787D01*
X143847259Y-84208804D01*
X143847264Y-84208804D01*
X144020605Y-84209712D01*
X144226533Y-84210790D01*
X144370979Y-84196881D01*
X144604075Y-84174437D01*
X144604080Y-84174436D01*
X144607240Y-84174132D01*
X144610359Y-84173509D01*
X144610364Y-84173508D01*
X144795115Y-84136591D01*
X144982293Y-84099189D01*
X145299342Y-84001652D01*
X145344808Y-83987665D01*
X145344812Y-83987663D01*
X145347853Y-83986728D01*
X145350788Y-83985488D01*
X145350794Y-83985486D01*
X145507297Y-83919376D01*
X145700177Y-83837901D01*
X146035657Y-83654231D01*
X146350858Y-83437599D01*
X146353297Y-83435531D01*
X146353303Y-83435526D01*
X146641733Y-83190919D01*
X146642554Y-83190223D01*
X146894421Y-82962081D01*
X146906298Y-82951323D01*
X146906307Y-82951314D01*
X146907758Y-82950000D01*
X146971441Y-82884627D01*
X147195579Y-82654538D01*
X147200000Y-82650000D01*
X147425000Y-82300000D01*
X147600000Y-82025000D01*
X147750000Y-81675000D01*
X147875000Y-81300000D01*
X147925000Y-80875000D01*
X147925000Y-80329956D01*
X153525000Y-80329956D01*
X153550000Y-80725000D01*
X153561377Y-80757654D01*
X153674661Y-81082810D01*
X153675311Y-81084724D01*
X153797493Y-81454400D01*
X153928932Y-81813573D01*
X154095994Y-82157625D01*
X154296970Y-82483033D01*
X154298911Y-82485563D01*
X154298912Y-82485564D01*
X154428571Y-82654538D01*
X154529802Y-82786465D01*
X154792105Y-83064814D01*
X155081194Y-83315231D01*
X155083804Y-83317066D01*
X155083810Y-83317070D01*
X155255306Y-83437599D01*
X155394110Y-83535152D01*
X155727648Y-83722325D01*
X156078394Y-83874834D01*
X156442756Y-83991116D01*
X156645913Y-84033928D01*
X156813885Y-84069326D01*
X156813890Y-84069327D01*
X156817004Y-84069983D01*
X157197306Y-84110625D01*
X157200494Y-84110642D01*
X157200499Y-84110642D01*
X157373840Y-84111550D01*
X157579768Y-84112628D01*
X157729068Y-84098252D01*
X157957310Y-84076275D01*
X157957315Y-84076274D01*
X157960475Y-84075970D01*
X157963594Y-84075347D01*
X157963599Y-84075346D01*
X158148350Y-84038429D01*
X158335528Y-84001027D01*
X158589378Y-83922932D01*
X158698043Y-83889503D01*
X158698047Y-83889501D01*
X158701088Y-83888566D01*
X158704023Y-83887326D01*
X158704029Y-83887324D01*
X158865940Y-83818930D01*
X159053412Y-83739739D01*
X159388892Y-83556069D01*
X159704093Y-83339437D01*
X159706532Y-83337369D01*
X159706538Y-83337364D01*
X159993349Y-83094131D01*
X159993357Y-83094123D01*
X159995789Y-83092061D01*
X159997997Y-83089766D01*
X159998005Y-83089759D01*
X160205726Y-82873904D01*
X160260993Y-82816473D01*
X160463229Y-82581195D01*
X160507370Y-82529842D01*
X160511708Y-82525050D01*
X160617082Y-82414476D01*
X160762485Y-82261898D01*
X160950000Y-81900000D01*
X160964420Y-81862773D01*
X161098551Y-81516483D01*
X161098551Y-81516482D01*
X161099792Y-81513279D01*
X161137362Y-81372391D01*
X161198660Y-81142525D01*
X161198661Y-81142521D01*
X161199792Y-81138279D01*
X161240442Y-80803679D01*
X161249540Y-80728790D01*
X161249540Y-80728783D01*
X161250000Y-80725000D01*
X161250000Y-80325000D01*
X161232171Y-80039728D01*
X161225239Y-79928826D01*
X161225000Y-79925000D01*
X161224298Y-79921233D01*
X161224297Y-79921225D01*
X161158214Y-79566632D01*
X161158213Y-79566625D01*
X161157817Y-79564503D01*
X161156417Y-79559087D01*
X161088116Y-79294990D01*
X161062055Y-79194218D01*
X161060780Y-79190781D01*
X160964278Y-78930812D01*
X160925000Y-78825000D01*
X160750000Y-78475000D01*
X160512864Y-78180374D01*
X160511344Y-78178446D01*
X160505855Y-78171343D01*
X160344589Y-77962690D01*
X160280187Y-77879363D01*
X160280182Y-77879358D01*
X160278235Y-77876838D01*
X160266553Y-77864528D01*
X160017161Y-77601723D01*
X160017158Y-77601721D01*
X160014962Y-77599406D01*
X159725000Y-77350000D01*
X159411319Y-77131173D01*
X159077129Y-76945165D01*
X159074209Y-76943907D01*
X159074204Y-76943905D01*
X158728787Y-76795145D01*
X158728777Y-76795141D01*
X158725853Y-76793882D01*
X158361088Y-76678872D01*
X158094426Y-76623649D01*
X157989692Y-76601959D01*
X157989689Y-76601959D01*
X157986567Y-76601312D01*
X157693974Y-76571075D01*
X157609281Y-76562323D01*
X157609278Y-76562323D01*
X157606125Y-76561997D01*
X157602959Y-76561991D01*
X157602950Y-76561991D01*
X157414181Y-76561662D01*
X157223658Y-76561330D01*
X157072034Y-76576464D01*
X156846255Y-76598999D01*
X156846249Y-76599000D01*
X156843082Y-76599316D01*
X156648435Y-76638917D01*
X156471417Y-76674932D01*
X156471413Y-76674933D01*
X156468292Y-76675568D01*
X156465250Y-76676515D01*
X156465244Y-76676517D01*
X156389461Y-76700121D01*
X156103127Y-76789304D01*
X156100199Y-76790553D01*
X155754257Y-76938109D01*
X155754251Y-76938112D01*
X155751325Y-76939360D01*
X155714427Y-76959729D01*
X155419283Y-77122657D01*
X155419274Y-77122663D01*
X155416489Y-77124200D01*
X155102045Y-77341931D01*
X154811215Y-77590324D01*
X154546974Y-77866835D01*
X154545017Y-77869348D01*
X154545016Y-77869350D01*
X154520925Y-77900297D01*
X154312030Y-78168635D01*
X154310334Y-78171339D01*
X154310331Y-78171343D01*
X154252032Y-78264280D01*
X154108788Y-78492631D01*
X153939327Y-78835508D01*
X153805384Y-79193755D01*
X153804580Y-79196821D01*
X153804579Y-79196823D01*
X153709541Y-79559087D01*
X153706770Y-79568222D01*
X153650973Y-79729883D01*
X153575000Y-79950000D01*
X153525000Y-80329956D01*
X147925000Y-80329956D01*
X147925000Y-80075000D01*
X147900000Y-79725000D01*
X147898899Y-79720227D01*
X147826023Y-79404431D01*
X147826021Y-79404425D01*
X147825000Y-79400000D01*
X147823356Y-79395773D01*
X147823354Y-79395766D01*
X147651935Y-78954976D01*
X147650000Y-78950000D01*
X147647255Y-78945424D01*
X147647252Y-78945419D01*
X147425923Y-78576538D01*
X147424149Y-78573485D01*
X147203488Y-78181199D01*
X147203483Y-78181192D01*
X147200000Y-78175000D01*
X146950270Y-77900297D01*
X146949847Y-77899830D01*
X146731731Y-77657478D01*
X146731728Y-77657476D01*
X146725000Y-77650000D01*
X146498939Y-77520829D01*
X146376689Y-77450975D01*
X146367110Y-77444914D01*
X146060697Y-77231158D01*
X146058084Y-77229335D01*
X145723894Y-77043327D01*
X145720974Y-77042069D01*
X145720969Y-77042067D01*
X145375552Y-76893307D01*
X145375542Y-76893303D01*
X145372618Y-76892044D01*
X145007853Y-76777034D01*
X144741191Y-76721811D01*
X144636457Y-76700121D01*
X144636454Y-76700121D01*
X144633332Y-76699474D01*
X144340739Y-76669237D01*
X144256046Y-76660485D01*
X144256043Y-76660485D01*
X144252890Y-76660159D01*
X144249724Y-76660153D01*
X144249715Y-76660153D01*
X144060946Y-76659824D01*
X143870423Y-76659492D01*
X143718799Y-76674626D01*
X143493020Y-76697161D01*
X143493014Y-76697162D01*
X143489847Y-76697478D01*
X143295200Y-76737079D01*
X143118182Y-76773094D01*
X143118178Y-76773095D01*
X143115057Y-76773730D01*
X143112015Y-76774677D01*
X143112009Y-76774679D01*
X143050356Y-76793882D01*
X142749892Y-76887466D01*
X142746964Y-76888715D01*
X142401022Y-77036271D01*
X142401016Y-77036274D01*
X142398090Y-77037522D01*
X142361192Y-77057891D01*
X142066048Y-77220819D01*
X142066039Y-77220825D01*
X142063254Y-77222362D01*
X141748810Y-77440093D01*
X141457980Y-77688486D01*
X141193739Y-77964997D01*
X141191782Y-77967510D01*
X141191781Y-77967512D01*
X141030257Y-78175000D01*
X140958795Y-78266797D01*
X140755553Y-78590793D01*
X140586092Y-78933670D01*
X140452149Y-79291917D01*
X140355095Y-79661865D01*
X140295923Y-80039728D01*
X140295752Y-80042890D01*
X140295751Y-80042897D01*
X140280367Y-80326969D01*
X140275240Y-80421636D01*
X113359113Y-80421636D01*
X113801169Y-79641893D01*
X113803061Y-79638669D01*
X114450648Y-78571478D01*
X114452635Y-78568311D01*
X115131580Y-77520829D01*
X115133659Y-77517722D01*
X115843421Y-76490781D01*
X115845592Y-76487738D01*
X116585471Y-75482354D01*
X116587731Y-75479376D01*
X117357145Y-74496342D01*
X117359493Y-74493433D01*
X118157692Y-73533703D01*
X118160125Y-73530864D01*
X118621130Y-73008876D01*
X118621568Y-73008383D01*
X118895365Y-72701619D01*
X119067819Y-72508400D01*
X119069829Y-72506202D01*
X119842723Y-71681713D01*
X119845318Y-71679026D01*
X119932042Y-71591847D01*
X119932664Y-71591226D01*
X120977701Y-70555269D01*
X120979754Y-70553279D01*
X121594738Y-69970701D01*
X121598313Y-69967442D01*
X123044746Y-68698954D01*
X123046749Y-68697235D01*
X123427177Y-68377452D01*
X123431113Y-68374276D01*
X124350014Y-67662787D01*
X125206315Y-66999767D01*
X125208240Y-66998306D01*
X125383369Y-66868006D01*
X125387669Y-66864945D01*
X127357700Y-65523599D01*
X127359528Y-65522377D01*
X127492241Y-65435366D01*
X127496903Y-65432453D01*
X129610343Y-64175089D01*
X129612052Y-64174090D01*
X129664791Y-64143825D01*
X129668060Y-64142013D01*
X129721641Y-64113343D01*
X129723372Y-64112435D01*
X131014936Y-63447236D01*
X147719958Y-63447236D01*
X147720321Y-63451384D01*
X147720321Y-63451389D01*
X147723350Y-63486011D01*
X147746014Y-63745065D01*
X147811232Y-64036832D01*
X147812676Y-64040756D01*
X147812676Y-64040757D01*
X147861733Y-64174090D01*
X147914464Y-64317410D01*
X148053898Y-64581870D01*
X148227084Y-64825565D01*
X148430979Y-65044216D01*
X148662000Y-65233979D01*
X148916090Y-65391521D01*
X149188783Y-65514074D01*
X149363027Y-65566018D01*
X149471290Y-65598293D01*
X149471292Y-65598293D01*
X149475289Y-65599485D01*
X149479409Y-65600138D01*
X149479411Y-65600138D01*
X149597423Y-65618829D01*
X149770575Y-65646254D01*
X149813135Y-65648187D01*
X149862659Y-65650436D01*
X149862678Y-65650436D01*
X149864078Y-65650500D01*
X150050834Y-65650500D01*
X150273309Y-65635723D01*
X150566377Y-65576630D01*
X150849056Y-65479296D01*
X150852789Y-65477427D01*
X150852793Y-65477425D01*
X151112640Y-65347303D01*
X151112642Y-65347302D01*
X151116378Y-65345431D01*
X151363647Y-65177387D01*
X151586520Y-64978117D01*
X151781079Y-64751120D01*
X151943908Y-64500386D01*
X152072145Y-64230319D01*
X152089878Y-64175089D01*
X152162258Y-63949651D01*
X152162258Y-63949650D01*
X152163538Y-63945664D01*
X152216480Y-63651422D01*
X152221222Y-63547011D01*
X152229853Y-63356934D01*
X152229853Y-63356929D01*
X152230042Y-63352764D01*
X152203986Y-63054935D01*
X152138768Y-62763168D01*
X152035536Y-62482590D01*
X151995936Y-62407481D01*
X151898055Y-62221834D01*
X151898054Y-62221833D01*
X151896102Y-62218130D01*
X151722916Y-61974435D01*
X151519021Y-61755784D01*
X151288000Y-61566021D01*
X151033910Y-61408479D01*
X150761217Y-61285926D01*
X150548603Y-61222543D01*
X150478710Y-61201707D01*
X150478708Y-61201707D01*
X150474711Y-61200515D01*
X150470591Y-61199862D01*
X150470589Y-61199862D01*
X150352577Y-61181171D01*
X150179425Y-61153746D01*
X150136865Y-61151813D01*
X150087341Y-61149564D01*
X150087322Y-61149564D01*
X150085922Y-61149500D01*
X149899166Y-61149500D01*
X149676691Y-61164277D01*
X149383623Y-61223370D01*
X149100944Y-61320704D01*
X149097211Y-61322573D01*
X149097207Y-61322575D01*
X148921268Y-61410679D01*
X148833622Y-61454569D01*
X148586353Y-61622613D01*
X148363480Y-61821883D01*
X148168921Y-62048880D01*
X148006092Y-62299614D01*
X147877855Y-62569681D01*
X147786462Y-62854336D01*
X147733520Y-63148578D01*
X147733331Y-63152745D01*
X147733330Y-63152752D01*
X147720147Y-63443066D01*
X147719958Y-63447236D01*
X131014936Y-63447236D01*
X131206428Y-63348611D01*
X131909664Y-62986421D01*
X131914598Y-62984014D01*
X132058741Y-62917564D01*
X132060649Y-62916704D01*
X133471070Y-62296104D01*
X134242209Y-61956795D01*
X134247082Y-61954771D01*
X134450437Y-61875282D01*
X134452546Y-61874481D01*
X136633840Y-61069759D01*
X136638575Y-61068119D01*
X136729677Y-61038606D01*
X136890266Y-60986583D01*
X136892784Y-60985796D01*
X139075978Y-60328730D01*
X139080636Y-60327425D01*
X139241022Y-60285796D01*
X139371150Y-60252022D01*
X139373842Y-60251356D01*
X140860253Y-59901352D01*
X141559939Y-59736598D01*
X141564452Y-59735622D01*
X141792498Y-59690674D01*
X141885171Y-59672408D01*
X141888172Y-59671855D01*
X144076931Y-59295758D01*
X144081210Y-59295099D01*
X144424144Y-59248428D01*
X144427287Y-59248042D01*
X146617979Y-59008123D01*
X146622112Y-59007739D01*
X146858989Y-58989720D01*
X146979335Y-58980566D01*
X146982847Y-58980348D01*
X147797470Y-58941219D01*
X149174087Y-58875095D01*
X149178017Y-58874967D01*
X149265787Y-58873512D01*
X149542329Y-58868927D01*
X149546067Y-58868921D01*
X151736316Y-58897593D01*
G37*
%TD.AperFunction*%
M02*
